<?xml version="1.0" encoding="utf-8"?>
<!-- Generator: Adobe Illustrator 21.1.0, SVG Export Plug-In . SVG Version: 6.00 Build 0)  -->
<svg version="1.1" id="Ebene_1" xmlns="http://www.w3.org/2000/svg" xmlns:xlink="http://www.w3.org/1999/xlink" x="0px" y="0px"
	 viewBox="0 0 500 60" style="enable-background:new 0 0 500 60;" xml:space="preserve">
<path d="M37.5,43.4h-8.9c-0.3,0-0.5-0.2-0.5-0.5s0.2-0.5,0.5-0.5h8.9c0.3,0,0.5,0.2,0.5,0.5S37.8,43.4,37.5,43.4z"/>
<path d="M79.6,43.4h-8.9c-0.3,0-0.5-0.2-0.5-0.5s0.2-0.5,0.5-0.5h8.9c0.3,0,0.5,0.2,0.5,0.5S79.9,43.4,79.6,43.4z"/>
<path d="M104.3,38.1H1.1c-0.1,0-0.2-0.1-0.2-0.2s0.1-0.2,0.2-0.2h103.2c0.1,0,0.2,0.1,0.2,0.2S104.4,38.1,104.3,38.1z"/>
<path d="M104.3,33.1H1.1c-0.1,0-0.2-0.1-0.2-0.2s0.1-0.2,0.2-0.2h103.2c0.1,0,0.2,0.1,0.2,0.2S104.4,33.1,104.3,33.1z"/>
<path d="M104.3,28.1H1.1c-0.1,0-0.2-0.1-0.2-0.2s0.1-0.2,0.2-0.2h103.2c0.1,0,0.2,0.1,0.2,0.2S104.4,28.1,104.3,28.1z"/>
<path d="M104.3,23.2H1.1c-0.1,0-0.2-0.1-0.2-0.2s0.1-0.2,0.2-0.2h103.2c0.1,0,0.2,0.1,0.2,0.2S104.4,23.2,104.3,23.2z"/>
<path d="M104.3,18.2H1.1c-0.1,0-0.2-0.1-0.2-0.2s0.1-0.2,0.2-0.2h103.2c0.1,0,0.2,0.1,0.2,0.2S104.4,18.2,104.3,18.2z"/>
<rect x="103.6" y="18" width="0.9" height="19.9"/>
<rect x="61.4" y="18" width="0.9" height="19.9"/>
<path d="M36.3,41.9c0,1.4-1.1,2.4-2.1,3c-0.7,0.4-1.5,0.7-2.3,0.7c-1.1,0-2.2-0.6-2.2-1.8c0-1.4,1.1-2.4,2.1-3
	c0.7-0.4,1.5-0.7,2.3-0.7C35.3,40.1,36.3,40.7,36.3,41.9z"/>
<path d="M36.3,37c0,1.4-1.1,2.4-2.1,3c-0.7,0.4-1.5,0.7-2.3,0.7c-1.1,0-2.2-0.6-2.2-1.8c0-1.4,1.1-2.4,2.1-3
	c0.7-0.4,1.5-0.7,2.3-0.7C35.3,35.1,36.3,35.7,36.3,37z"/>
<path d="M12.6,27.7c3.1,0,5.1,2.6,5.1,5.2c0,1.5-0.7,3.1-2.1,4.2c-0.4,0.3-0.9,0.6-1.5,0.7c0.1,0.7,0.1,1.4,0.1,2.1
	c0,0.4,0,0.8,0,1.2c-0.1,2.4-1.8,4.5-4.1,4.5c-2.2,0-3.9-1.8-3.9-3.9c0-1.2,1.1-2.1,2.2-2.1s1.9,0.9,1.9,2.1c0,1-0.9,1.9-1.9,1.9
	c-0.2,0-0.4,0-0.6-0.1c0.5,0.8,1.4,1.3,2.3,1.3c1.9,0,3.1-1.8,3.2-3.8c0-0.4,0-0.7,0-1.1c0-0.6,0-1.2-0.1-1.8
	c-0.6,0.1-1.2,0.2-1.8,0.2c-3.7,0-6.6-3.4-6.6-7.5c0-3.5,2.6-6.1,4.9-8.8c-0.4-1.2-0.7-2.5-0.9-3.8c-0.1-1-0.1-2.1-0.1-3.1
	c0-2.3,1.1-4.5,3-5.8c0.1,0,0.1-0.1,0.2-0.1c0.1,0,0.1,0,0.2,0.1c1.4,1.7,2.7,4.9,2.7,7.1c0,2.8-1.7,5.1-3.6,7.3
	c0.4,1.4,0.8,2.8,1.1,4.1C12.4,27.7,12.5,27.7,12.6,27.7z M11.6,37.3c0.6,0,1.1,0,1.6-0.1c-0.3-2.5-0.7-4.9-1.3-7.3
	c-1.6,0.2-2.5,1.2-2.5,2.4c0,0.9,0.5,1.8,1.6,2.5c0.1,0.1,0.1,0.2,0.1,0.3c0,0.2-0.2,0.4-0.4,0.4c-0.1,0-0.1,0-0.2,0
	c-1.6-0.9-2.3-2.3-2.3-3.7c0-1.8,1.2-3.5,3.2-3.9c-0.3-1.2-0.6-2.3-0.9-3.5c-2.1,2.4-4.2,4.8-4.2,8C6.3,35,8.9,37.3,11.6,37.3z
	 M9.8,17.3c0,1.5,0.4,2.7,0.7,3.9c1.6-1.9,2.9-3.9,2.9-6.5c0-1.1-0.1-1.6-0.4-2.6C11,13,9.8,15.1,9.8,17.3z M16.3,33.7
	c0-1.8-1.3-3.6-3.4-3.8c0.5,2.3,0.9,4.6,1.2,7.1C15.4,36.5,16.3,35.1,16.3,33.7z M36.3,32c0,1.4-1.1,2.4-2.1,3
	c-0.7,0.4-1.5,0.7-2.3,0.7c-1.1,0-2.2-0.6-2.2-1.8c0-1.4,1.1-2.4,2.1-3c0.7-0.4,1.5-0.7,2.3-0.7C35.3,30.2,36.3,30.7,36.3,32z"/>
<path d="M36.1,42h-0.2c-0.1,0-0.2-0.1-0.2-0.2V15.7c0-0.1,0.1-0.2,0.2-0.2h0.2c0.1,0,0.2,0.1,0.2,0.2v26.1
	C36.3,41.9,36.2,42,36.1,42z"/>
<rect x="35.9" y="15.7" width="0.2" height="26.1"/>
<path d="M78.4,41.9c0,1.4-1.1,2.4-2.1,3c-0.7,0.4-1.5,0.7-2.3,0.7c-1.1,0-2.2-0.6-2.2-1.8c0-1.4,1.1-2.4,2.1-3
	c0.7-0.4,1.5-0.7,2.3-0.7C77.4,40.1,78.4,40.7,78.4,41.9z"/>
<path d="M78.4,37c0,1.4-1.1,2.4-2.1,3c-0.7,0.4-1.5,0.7-2.3,0.7c-1.1,0-2.2-0.6-2.2-1.8c0-1.4,1.1-2.4,2.1-3
	c0.7-0.4,1.5-0.7,2.3-0.7C77.4,35.1,78.4,35.7,78.4,37z"/>
<path d="M78.4,32c0,1.4-1.1,2.4-2.1,3c-0.7,0.4-1.5,0.7-2.3,0.7c-1.1,0-2.2-0.6-2.2-1.8c0-1.4,1.1-2.4,2.1-3
	c0.7-0.4,1.5-0.7,2.3-0.7C77.4,30.2,78.4,30.7,78.4,32z"/>
<path d="M78.2,42H78c-0.1,0-0.2-0.1-0.2-0.2V15.7c0-0.1,0.1-0.2,0.2-0.2h0.2c0.1,0,0.2,0.1,0.2,0.2v26.1C78.4,41.9,78.3,42,78.2,42z
	"/>
<rect x="78" y="15.7" width="0.2" height="26.1"/>
<path d="M65.6,28.8c0.2-0.1,0.4-0.2,0.5-0.2s0.4,0.1,0.5,0.2l-0.1,6.9c0.5-0.4,1.2-0.7,1.8-0.7c1,0,1.8,1,1.8,2
	c0,1.6-1.7,2.3-2.9,3.4c-0.3,0.3-0.5,0.8-0.9,0.8c-0.3,0-0.5-0.2-0.5-0.5L65.6,28.8z M66.7,38.4v0.2c0,0.4,0,0.9,0.1,1.3
	c0.9-0.8,1.9-1.6,1.9-2.8c0-0.7-0.3-1.3-0.9-1.3s-1,0.6-1.1,1.3V38.4z"/>
</svg>
