<?xml version="1.0" encoding="utf-8"?>
<!-- Generator: Adobe Illustrator 21.1.0, SVG Export Plug-In . SVG Version: 6.00 Build 0)  -->
<svg version="1.1" id="Ebene_1" xmlns="http://www.w3.org/2000/svg" xmlns:xlink="http://www.w3.org/1999/xlink" x="0px" y="0px"
	 viewBox="0 0 500 60" style="enable-background:new 0 0 500 60;" xml:space="preserve">
<style type="text/css">
	.st0{fill:none;stroke:#000000;stroke-width:0.9963;stroke-linecap:round;stroke-miterlimit:10;}
	.st1{fill:none;stroke:#000000;stroke-width:0.4981;stroke-linecap:round;stroke-miterlimit:10;}
	.st2{fill:none;stroke:#000000;stroke-width:0.9465;stroke-miterlimit:10;}
	.st3{fill:none;stroke:#000000;stroke-width:0.3985;stroke-linejoin:round;stroke-miterlimit:10;}
</style>
<line class="st0" x1="28.6" y1="42.9" x2="37.5" y2="42.9"/>
<line class="st1" x1="1.1" y1="37.9" x2="195.3" y2="37.9"/>
<line class="st1" x1="1.1" y1="32.9" x2="195.3" y2="32.9"/>
<line class="st1" x1="1.1" y1="27.9" x2="195.3" y2="27.9"/>
<line class="st1" x1="1.1" y1="23" x2="195.3" y2="23"/>
<line class="st1" x1="1.1" y1="18" x2="195.3" y2="18"/>
<line class="st2" x1="61.9" y1="37.9" x2="61.9" y2="18"/>
<line class="st2" x1="195" y1="37.9" x2="195" y2="18"/>
<line class="st2" x1="104.1" y1="37.9" x2="104.1" y2="18"/>
<line class="st2" x1="152.9" y1="37.9" x2="152.9" y2="18"/>
<path d="M156.6,28.8c0.2-0.1,0.4-0.2,0.5-0.2s0.4,0.1,0.5,0.2l-0.1,6.9c0.5-0.4,1.2-0.7,1.8-0.7c1,0,1.8,1,1.8,2
	c0,1.6-1.7,2.3-2.9,3.4c-0.3,0.3-0.5,0.8-0.9,0.8c-0.3,0-0.5-0.2-0.5-0.5L156.6,28.8z M157.6,38.4v0.2c0,0.4,0,0.9,0.1,1.3
	c0.9-0.8,1.9-1.6,1.9-2.8c0-0.7-0.3-1.3-0.9-1.3c-0.6,0-1,0.6-1.1,1.3V38.4z"/>
<rect x="169" y="11.5" class="st3" width="0.2" height="25.2"/>
<rect x="169" y="11.5" width="0.2" height="25.2"/>
<path d="M169.4,27c0,1.4-1.1,2.4-2.1,3c-0.7,0.4-1.5,0.7-2.3,0.7c-1.1,0-2.2-0.6-2.2-1.8c0-1.4,1.1-2.4,2.1-3
	c0.7-0.4,1.5-0.7,2.3-0.7C168.4,25.2,169.4,25.8,169.4,27z"/>
<path d="M169.4,32c0,1.4-1.1,2.4-2.1,3c-0.7,0.4-1.5,0.7-2.3,0.7c-1.1,0-2.2-0.6-2.2-1.8c0-1.4,1.1-2.4,2.1-3
	c0.7-0.4,1.5-0.7,2.3-0.7C168.4,30.2,169.4,30.7,169.4,32z"/>
<path d="M169.4,37c0,1.4-1.1,2.4-2.1,3c-0.7,0.4-1.5,0.7-2.3,0.7c-1.1,0-2.2-0.6-2.2-1.8c0-1.4,1.1-2.4,2.1-3
	c0.7-0.4,1.5-0.7,2.3-0.7C168.4,35.1,169.4,35.7,169.4,37z"/>
<path d="M117.5,37c-0.2,0-0.4-0.2-0.4-0.4v-2.9l-1.7,0.6v3.1c0,0.2-0.2,0.4-0.4,0.4s-0.4-0.2-0.4-0.4v-2.9l-0.6,0.2h-0.1
	c-0.2,0-0.4-0.2-0.4-0.4v-1.2c0-0.2,0.1-0.3,0.3-0.4l0.9-0.3v-3.2l-0.6,0.2H114c-0.2,0-0.4-0.2-0.4-0.4v-1.2c0-0.2,0.1-0.3,0.3-0.4
	l0.9-0.3V24c0-0.2,0.2-0.4,0.4-0.4s0.4,0.2,0.4,0.4v2.9l1.7-0.6v-3.1c0-0.2,0.2-0.4,0.4-0.4s0.4,0.2,0.4,0.4v2.9l0.6-0.2h0.1
	c0.2,0,0.4,0.2,0.4,0.4v1.2c0,0.2-0.1,0.3-0.3,0.4l-0.9,0.3v3.2l0.6-0.2h0.1c0.2,0,0.4,0.2,0.4,0.4v1.2c0,0.2-0.1,0.3-0.3,0.4
	l-0.9,0.3v3.1C117.8,36.8,117.7,37,117.5,37z M115.4,32.3l1.7-0.6v-3.2l-1.7,0.6V32.3z"/>
<path d="M26.5,39.5c-0.2,0-0.4-0.2-0.4-0.4v-2.9l-1.7,0.6V40c0,0.2-0.2,0.4-0.4,0.4s-0.4-0.2-0.4-0.4v-2.9L23,37.3h-0.1
	c-0.2,0-0.4-0.2-0.4-0.4v-1.2c0-0.2,0.1-0.3,0.3-0.4l0.9-0.3v-3.2L23.1,32H23c-0.2,0-0.4-0.2-0.4-0.4v-1.2c0-0.2,0.1-0.3,0.3-0.4
	l0.9-0.3v-3.1c0-0.2,0.2-0.4,0.4-0.4s0.4,0.2,0.4,0.4v2.9l1.7-0.6v-3.1c0-0.2,0.2-0.4,0.4-0.4s0.4,0.2,0.4,0.4v2.9l0.6-0.2h0.1
	c0.2,0,0.4,0.2,0.4,0.4V30c0,0.2-0.1,0.3-0.3,0.4L27,30.7v3.2l0.6-0.2h0.1c0.2,0,0.4,0.2,0.4,0.4v1.2c0,0.2-0.1,0.3-0.3,0.4l-1,0.3
	v3.1C26.8,39.3,26.7,39.5,26.5,39.5z M24.4,34.8l1.7-0.6V31l-1.7,0.6V34.8z"/>
<rect x="35.9" y="15.7" class="st3" width="0.2" height="26.1"/>
<rect x="35.9" y="15.7" width="0.2" height="26.1"/>
<path d="M36.3,32c0,1.4-1.1,2.4-2.1,3c-0.7,0.4-1.5,0.7-2.3,0.7c-1.1,0-2.2-0.6-2.2-1.8c0-1.4,1.1-2.4,2.1-3
	c0.7-0.4,1.5-0.7,2.3-0.7C35.3,30.2,36.3,30.7,36.3,32z"/>
<path d="M12.6,27.7c3.1,0,5.1,2.6,5.1,5.2c0,1.5-0.7,3.1-2.1,4.2c-0.4,0.3-0.9,0.6-1.5,0.7c0.1,0.7,0.1,1.4,0.1,2.1
	c0,0.4,0,0.8,0,1.2c-0.1,2.4-1.8,4.5-4.1,4.5c-2.2,0-3.9-1.8-3.9-3.9c0-1.2,1.1-2.1,2.2-2.1s1.9,0.9,1.9,2.1c0,1-0.9,1.9-1.9,1.9
	c-0.2,0-0.4,0-0.6-0.1c0.5,0.8,1.4,1.3,2.3,1.3c1.9,0,3.1-1.8,3.2-3.8c0-0.4,0-0.7,0-1.1c0-0.6,0-1.2-0.1-1.8
	c-0.6,0.1-1.2,0.2-1.8,0.2c-3.7,0-6.6-3.4-6.6-7.5c0-3.5,2.6-6.1,4.9-8.8c-0.4-1.2-0.7-2.5-0.9-3.8c-0.1-1-0.1-2.1-0.1-3.1
	c0-2.3,1.1-4.5,3-5.8c0.1,0,0.1-0.1,0.2-0.1c0.1,0,0.1,0,0.2,0.1c1.4,1.7,2.7,4.9,2.7,7.1c0,2.8-1.7,5.1-3.6,7.3
	c0.4,1.4,0.8,2.8,1.1,4.1C12.4,27.7,12.5,27.7,12.6,27.7z M11.6,37.3c0.6,0,1.1,0,1.6-0.1c-0.3-2.5-0.7-4.9-1.3-7.3
	c-1.6,0.2-2.5,1.2-2.5,2.4c0,0.9,0.5,1.8,1.6,2.5c0.1,0.1,0.1,0.2,0.1,0.3c0,0.2-0.2,0.4-0.4,0.4c-0.1,0-0.1,0-0.2,0
	c-1.6-0.9-2.3-2.3-2.3-3.7c0-1.8,1.2-3.5,3.2-3.9c-0.3-1.2-0.6-2.3-0.9-3.5c-2.1,2.4-4.2,4.8-4.2,8C6.3,35,8.9,37.3,11.6,37.3z
	 M9.8,17.2c0,1.5,0.4,2.7,0.7,3.9c1.6-1.9,2.9-3.9,2.9-6.5c0-1.1-0.1-1.6-0.4-2.6C11,13,9.8,15.1,9.8,17.2z M16.3,33.7
	c0-1.8-1.3-3.6-3.4-3.8c0.5,2.3,0.9,4.6,1.2,7.1C15.4,36.5,16.3,35.1,16.3,33.7z"/>
<path d="M36.3,37c0,1.4-1.1,2.4-2.1,3c-0.7,0.4-1.5,0.7-2.3,0.7c-1.1,0-2.2-0.6-2.2-1.8c0-1.4,1.1-2.4,2.1-3
	c0.7-0.4,1.5-0.7,2.3-0.7C35.3,35.1,36.3,35.7,36.3,37z"/>
<path d="M36.3,41.9c0,1.4-1.1,2.4-2.1,3c-0.7,0.4-1.5,0.7-2.3,0.7c-1.1,0-2.2-0.6-2.2-1.8c0-1.4,1.1-2.4,2.1-3
	c0.7-0.4,1.5-0.7,2.3-0.7C35.3,40.1,36.3,40.7,36.3,41.9z"/>
<path d="M65.6,31.3c0.2-0.1,0.4-0.2,0.5-0.2s0.4,0.1,0.5,0.2l-0.1,6.9c0.5-0.4,1.2-0.7,1.8-0.7c1,0,1.8,1,1.8,2
	c0,1.6-1.7,2.3-2.9,3.4c-0.3,0.3-0.5,0.8-0.9,0.8c-0.3,0-0.5-0.2-0.5-0.5L65.6,31.3z M66.7,40.9v0.2c0,0.4,0,0.9,0.1,1.3
	c0.9-0.8,1.9-1.6,1.9-2.8c0-0.7-0.3-1.3-0.9-1.3s-1,0.6-1.1,1.3V40.9z"/>
<rect x="78" y="13.2" class="st3" width="0.2" height="26.1"/>
<rect x="78" y="13.2" width="0.2" height="26.1"/>
<path d="M78.4,29.5c0,1.4-1.1,2.4-2.1,3c-0.7,0.4-1.5,0.7-2.3,0.7c-1.1,0-2.2-0.6-2.2-1.8c0-1.4,1.1-2.4,2.1-3
	c0.7-0.4,1.5-0.7,2.3-0.7C77.4,27.7,78.4,28.3,78.4,29.5z"/>
<path d="M78.4,34.5c0,1.4-1.1,2.4-2.1,3c-0.7,0.4-1.5,0.7-2.3,0.7c-1.1,0-2.2-0.6-2.2-1.8c0-1.4,1.1-2.4,2.1-3
	c0.7-0.4,1.5-0.7,2.3-0.7C77.4,32.7,78.4,33.2,78.4,34.5z"/>
<path d="M78.4,39.4c0,1.4-1.1,2.4-2.1,3c-0.7,0.4-1.5,0.7-2.3,0.7c-1.1,0-2.2-0.6-2.2-1.8c0-1.4,1.1-2.4,2.1-3
	c0.7-0.4,1.5-0.7,2.3-0.7C77.4,37.6,78.4,38.2,78.4,39.4z"/>
<path d="M111,42c-0.2,0-0.4-0.2-0.4-0.4v-2.9l-1.7,0.6v3.1c0,0.2-0.2,0.4-0.4,0.4s-0.4-0.2-0.4-0.4v-2.9l-0.6,0.2h-0.1
	c-0.2,0-0.4-0.2-0.4-0.4v-1.2c0-0.2,0.1-0.3,0.3-0.4l0.9-0.3v-3.2l-0.6,0.2h-0.1c-0.2,0-0.4-0.2-0.4-0.4v-1c0-0.2,0.1-0.3,0.3-0.4
	l0.9-0.3v-3.1c0-0.2,0.2-0.4,0.4-0.4s0.4,0.2,0.4,0.4v2.9l1.7-0.6v-3.1c0-0.2,0.2-0.4,0.4-0.4s0.4,0.2,0.4,0.4v2.9L112,31h0.1
	c0.2,0,0.4,0.2,0.4,0.4v1.2c0,0.2-0.1,0.3-0.3,0.4l-0.9,0.3v3.2l0.6-0.2h0.1c0.2,0,0.4,0.2,0.4,0.4v1.2c0,0.2-0.1,0.3-0.3,0.4
	l-0.9,0.3v3.1C111.3,41.8,111.2,42,111,42z M108.9,37.3l1.7-0.6v-3.2l-1.7,0.6V37.3z"/>
<rect x="126.8" y="13.2" class="st3" width="0.2" height="26.1"/>
<rect x="126.8" y="13.2" width="0.2" height="26.1"/>
<path d="M127.3,29.5c0,1.4-1.1,2.4-2.1,3c-0.7,0.4-1.5,0.7-2.3,0.7c-1.1,0-2.2-0.6-2.2-1.8c0-1.4,1.1-2.4,2.1-3
	c0.7-0.4,1.5-0.7,2.3-0.7C126.2,27.7,127.3,28.3,127.3,29.5z"/>
<path d="M127.3,34.5c0,1.4-1.1,2.4-2.1,3c-0.7,0.4-1.5,0.7-2.3,0.7c-1.1,0-2.2-0.6-2.2-1.8c0-1.4,1.1-2.4,2.1-3
	c0.7-0.4,1.5-0.7,2.3-0.7C126.2,32.7,127.3,33.2,127.3,34.5z"/>
<path d="M127.3,39.4c0,1.4-1.1,2.4-2.1,3c-0.7,0.4-1.5,0.7-2.3,0.7c-1.1,0-2.2-0.6-2.2-1.8c0-1.4,1.1-2.4,2.1-3
	c0.7-0.4,1.5-0.7,2.3-0.7C126.2,37.6,127.3,38.2,127.3,39.4z"/>
</svg>
