<?xml version="1.0" encoding="utf-8"?>
<!-- Generator: Adobe Illustrator 21.1.0, SVG Export Plug-In . SVG Version: 6.00 Build 0)  -->
<svg version="1.1" id="Ebene_1" xmlns="http://www.w3.org/2000/svg" xmlns:xlink="http://www.w3.org/1999/xlink" x="0px" y="0px"
	 viewBox="0 0 500 80" style="enable-background:new 0 0 500 80;" xml:space="preserve">
<style type="text/css">
	.st0{fill:none;stroke:#000000;stroke-width:0.9963;stroke-linecap:round;stroke-miterlimit:10;}
	.st1{fill:none;stroke:#000000;stroke-width:0.4981;stroke-linecap:round;stroke-miterlimit:10;}
	.st2{fill:none;stroke:#000000;stroke-width:0.9465;stroke-miterlimit:10;}
	.st3{fill:none;stroke:#000000;stroke-width:0.3985;stroke-linejoin:round;stroke-miterlimit:10;}
</style>
<line class="st0" x1="28.6" y1="52.9" x2="37.5" y2="52.9"/>
<line class="st1" x1="1.1" y1="47.9" x2="195.3" y2="47.9"/>
<line class="st1" x1="1.1" y1="42.9" x2="195.3" y2="42.9"/>
<line class="st1" x1="1.1" y1="37.9" x2="195.3" y2="37.9"/>
<line class="st1" x1="1.1" y1="33" x2="195.3" y2="33"/>
<line class="st1" x1="1.1" y1="28" x2="195.3" y2="28"/>
<line class="st2" x1="61.9" y1="47.9" x2="61.9" y2="28"/>
<line class="st2" x1="195" y1="47.9" x2="195" y2="28"/>
<line class="st2" x1="104.1" y1="47.9" x2="104.1" y2="28"/>
<line class="st2" x1="152.9" y1="47.9" x2="152.9" y2="28"/>
<path d="M156.6,38.8c0.2-0.1,0.4-0.2,0.5-0.2s0.4,0.1,0.5,0.2l-0.1,6.9c0.5-0.4,1.2-0.7,1.8-0.7c1,0,1.8,1,1.8,2
	c0,1.6-1.7,2.3-2.9,3.4c-0.3,0.3-0.5,0.8-0.9,0.8c-0.3,0-0.5-0.2-0.5-0.5L156.6,38.8z M157.6,48.4v0.2c0,0.4,0,0.9,0.1,1.3
	c0.9-0.8,1.9-1.6,1.9-2.8c0-0.7-0.3-1.3-0.9-1.3c-0.6,0-1,0.6-1.1,1.3L157.6,48.4z"/>
<rect x="169" y="21.5" class="st3" width="0.2" height="25.2"/>
<rect x="169" y="21.5" width="0.2" height="25.2"/>
<path d="M169.4,37c0,1.4-1.1,2.4-2.1,3c-0.7,0.4-1.5,0.7-2.3,0.7c-1.1,0-2.2-0.6-2.2-1.8c0-1.4,1.1-2.4,2.1-3
	c0.7-0.4,1.5-0.7,2.3-0.7C168.4,35.2,169.4,35.8,169.4,37z"/>
<path d="M169.4,42c0,1.4-1.1,2.4-2.1,3c-0.7,0.4-1.5,0.7-2.3,0.7c-1.1,0-2.2-0.6-2.2-1.8c0-1.4,1.1-2.4,2.1-3
	c0.7-0.4,1.5-0.7,2.3-0.7C168.4,40.2,169.4,40.7,169.4,42z"/>
<path d="M169.4,47c0,1.4-1.1,2.4-2.1,3c-0.7,0.4-1.5,0.7-2.3,0.7c-1.1,0-2.2-0.6-2.2-1.8c0-1.4,1.1-2.4,2.1-3
	c0.7-0.4,1.5-0.7,2.3-0.7C168.4,45.1,169.4,45.7,169.4,47z"/>
<path d="M117.5,47c-0.2,0-0.4-0.2-0.4-0.4v-2.9l-1.7,0.6v3.1c0,0.2-0.2,0.4-0.4,0.4s-0.4-0.2-0.4-0.4v-2.9l-0.6,0.2c0,0-0.1,0-0.1,0
	c-0.2,0-0.4-0.2-0.4-0.4v-1.2c0-0.2,0.1-0.3,0.3-0.4l0.9-0.3v-3.2l-0.6,0.2c0,0-0.1,0-0.1,0c-0.2,0-0.4-0.2-0.4-0.4v-1.2
	c0-0.2,0.1-0.3,0.3-0.4l0.9-0.3v-3.1c0-0.2,0.2-0.4,0.4-0.4s0.4,0.2,0.4,0.4v2.9l1.7-0.6v-3.1c0-0.2,0.2-0.4,0.4-0.4
	s0.4,0.2,0.4,0.4v2.9l0.6-0.2c0,0,0.1,0,0.1,0c0.2,0,0.4,0.2,0.4,0.4v1.2c0,0.2-0.1,0.3-0.3,0.4l-0.9,0.3v3.2l0.6-0.2
	c0,0,0.1,0,0.1,0c0.2,0,0.4,0.2,0.4,0.4v1.2c0,0.2-0.1,0.3-0.3,0.4l-0.9,0.3v3.1C117.8,46.8,117.7,47,117.5,47z M115.4,42.3l1.7-0.6
	v-3.2l-1.7,0.6V42.3z"/>
<path d="M26.5,49.5c-0.2,0-0.4-0.2-0.4-0.4v-2.9l-1.7,0.6V50c0,0.2-0.2,0.4-0.4,0.4s-0.4-0.2-0.4-0.4v-2.9l-0.6,0.2c0,0-0.1,0-0.1,0
	c-0.2,0-0.4-0.2-0.4-0.4v-1.2c0-0.2,0.1-0.3,0.3-0.4l0.9-0.3v-3.2l-0.6,0.2c0,0-0.1,0-0.1,0c-0.2,0-0.4-0.2-0.4-0.4v-1.2
	c0-0.2,0.1-0.3,0.3-0.4l0.9-0.3v-3.1c0-0.2,0.2-0.4,0.4-0.4s0.4,0.2,0.4,0.4v2.9l1.7-0.6v-3.1c0-0.2,0.2-0.4,0.4-0.4
	s0.4,0.2,0.4,0.4v2.9l0.6-0.2c0,0,0.1,0,0.1,0c0.2,0,0.4,0.2,0.4,0.4V40c0,0.2-0.1,0.3-0.3,0.4l-0.9,0.3v3.2l0.6-0.2
	c0,0,0.1,0,0.1,0c0.2,0,0.4,0.2,0.4,0.4v1.2c0,0.2-0.1,0.3-0.3,0.4L26.8,46v3.1C26.8,49.3,26.7,49.5,26.5,49.5z M24.4,44.8l1.7-0.6
	V41l-1.7,0.6V44.8z"/>
<rect x="35.9" y="25.7" class="st3" width="0.2" height="26.1"/>
<rect x="35.9" y="25.7" width="0.2" height="26.1"/>
<path d="M36.3,42c0,1.4-1.1,2.4-2.1,3c-0.7,0.4-1.5,0.7-2.3,0.7c-1.1,0-2.2-0.6-2.2-1.8c0-1.4,1.1-2.4,2.1-3
	c0.7-0.4,1.5-0.7,2.3-0.7C35.3,40.2,36.3,40.7,36.3,42z"/>
<path d="M12.6,37.7c3.1,0,5.1,2.6,5.1,5.2c0,1.5-0.7,3.1-2.1,4.2c-0.4,0.3-0.9,0.6-1.5,0.7c0.1,0.7,0.1,1.4,0.1,2.1
	c0,0.4,0,0.8,0,1.2c-0.1,2.4-1.8,4.5-4.1,4.5c-2.2,0-3.9-1.8-3.9-3.9c0-1.2,1.1-2.1,2.2-2.1c1.1,0,1.9,0.9,1.9,2.1
	c0,1-0.9,1.9-1.9,1.9c-0.2,0-0.4,0-0.6-0.1c0.5,0.8,1.4,1.3,2.3,1.3c1.9,0,3.1-1.8,3.2-3.8c0-0.4,0-0.7,0-1.1c0-0.6,0-1.2-0.1-1.8
	c-0.6,0.1-1.2,0.2-1.8,0.2c-3.7,0-6.6-3.4-6.6-7.5c0-3.5,2.6-6.1,4.9-8.8c-0.4-1.2-0.7-2.5-0.9-3.8c-0.1-1-0.1-2.1-0.1-3.1
	c0-2.3,1.1-4.5,3-5.8c0.1,0,0.1-0.1,0.2-0.1c0.1,0,0.1,0,0.2,0.1c1.4,1.7,2.7,4.9,2.7,7.1c0,2.8-1.7,5.1-3.6,7.3
	c0.4,1.4,0.8,2.8,1.1,4.1C12.4,37.7,12.5,37.7,12.6,37.7z M11.6,47.3c0.6,0,1.1,0,1.6-0.1c-0.3-2.5-0.7-4.9-1.3-7.3
	c-1.6,0.2-2.5,1.2-2.5,2.4c0,0.9,0.5,1.8,1.6,2.5c0.1,0.1,0.1,0.2,0.1,0.3c0,0.2-0.2,0.4-0.4,0.4c-0.1,0-0.1,0-0.2,0
	c-1.6-0.9-2.3-2.3-2.3-3.7c0-1.8,1.2-3.5,3.2-3.9c-0.3-1.2-0.6-2.3-0.9-3.5c-2.1,2.4-4.2,4.8-4.2,8C6.3,45,8.9,47.3,11.6,47.3z
	 M9.8,27.2c0,1.5,0.4,2.7,0.7,3.9c1.6-1.9,2.9-3.9,2.9-6.5c0-1.1-0.1-1.6-0.4-2.6C11,23,9.8,25.1,9.8,27.2z M16.3,43.7
	c0-1.8-1.3-3.6-3.4-3.8c0.5,2.3,0.9,4.6,1.2,7.1C15.4,46.5,16.3,45.1,16.3,43.7z"/>
<path d="M36.3,47c0,1.4-1.1,2.4-2.1,3c-0.7,0.4-1.5,0.7-2.3,0.7c-1.1,0-2.2-0.6-2.2-1.8c0-1.4,1.1-2.4,2.1-3
	c0.7-0.4,1.5-0.7,2.3-0.7C35.3,45.1,36.3,45.7,36.3,47z"/>
<path d="M36.3,51.9c0,1.4-1.1,2.4-2.1,3c-0.7,0.4-1.5,0.7-2.3,0.7c-1.1,0-2.2-0.6-2.2-1.8c0-1.4,1.1-2.4,2.1-3
	c0.7-0.4,1.5-0.7,2.3-0.7C35.3,50.1,36.3,50.7,36.3,51.9z"/>
<path d="M65.6,41.3c0.2-0.1,0.4-0.2,0.5-0.2s0.4,0.1,0.5,0.2l-0.1,6.9c0.5-0.4,1.2-0.7,1.8-0.7c1,0,1.8,1,1.8,2
	c0,1.6-1.7,2.3-2.9,3.4c-0.3,0.3-0.5,0.8-0.9,0.8c-0.3,0-0.5-0.2-0.5-0.5L65.6,41.3z M66.7,50.9v0.2c0,0.4,0,0.9,0.1,1.3
	c0.9-0.8,1.9-1.6,1.9-2.8c0-0.7-0.3-1.3-0.9-1.3c-0.6,0-1,0.6-1.1,1.3L66.7,50.9z"/>
<rect x="78" y="23.2" class="st3" width="0.2" height="26.1"/>
<rect x="78" y="23.2" width="0.2" height="26.1"/>
<path d="M78.4,39.5c0,1.4-1.1,2.4-2.1,3c-0.7,0.4-1.5,0.7-2.3,0.7c-1.1,0-2.2-0.6-2.2-1.8c0-1.4,1.1-2.4,2.1-3
	c0.7-0.4,1.5-0.7,2.3-0.7C77.4,37.7,78.4,38.3,78.4,39.5z"/>
<path d="M78.4,44.5c0,1.4-1.1,2.4-2.1,3c-0.7,0.4-1.5,0.7-2.3,0.7c-1.1,0-2.2-0.6-2.2-1.8c0-1.4,1.1-2.4,2.1-3
	c0.7-0.4,1.5-0.7,2.3-0.7C77.4,42.7,78.4,43.2,78.4,44.5z"/>
<path d="M78.4,49.4c0,1.4-1.1,2.4-2.1,3c-0.7,0.4-1.5,0.7-2.3,0.7c-1.1,0-2.2-0.6-2.2-1.8c0-1.4,1.1-2.4,2.1-3
	c0.7-0.4,1.5-0.7,2.3-0.7C77.4,47.6,78.4,48.2,78.4,49.4z"/>
<path d="M111,52c-0.2,0-0.4-0.2-0.4-0.4v-2.9l-1.7,0.6v3.1c0,0.2-0.2,0.4-0.4,0.4s-0.4-0.2-0.4-0.4v-2.9l-0.6,0.2c0,0-0.1,0-0.1,0
	c-0.2,0-0.4-0.2-0.4-0.4v-1.2c0-0.2,0.1-0.3,0.3-0.4l0.9-0.3v-3.2l-0.6,0.2c0,0-0.1,0-0.1,0c-0.2,0-0.4-0.2-0.4-0.4V43
	c0-0.2,0.1-0.3,0.3-0.4l0.9-0.3v-3.1c0-0.2,0.2-0.4,0.4-0.4s0.4,0.2,0.4,0.4v2.9l1.7-0.6v-3.1c0-0.2,0.2-0.4,0.4-0.4
	s0.4,0.2,0.4,0.4v2.9L112,41c0,0,0.1,0,0.1,0c0.2,0,0.4,0.2,0.4,0.4v1.2c0,0.2-0.1,0.3-0.3,0.4l-0.9,0.3v3.2l0.6-0.2
	c0,0,0.1,0,0.1,0c0.2,0,0.4,0.2,0.4,0.4v1.2c0,0.2-0.1,0.3-0.3,0.4l-0.9,0.3v3.1C111.3,51.8,111.2,52,111,52z M108.9,47.3l1.7-0.6
	v-3.2l-1.7,0.6V47.3z"/>
<rect x="126.8" y="23.2" class="st3" width="0.2" height="26.1"/>
<rect x="126.8" y="23.2" width="0.2" height="26.1"/>
<path d="M127.3,39.5c0,1.4-1.1,2.4-2.1,3c-0.7,0.4-1.5,0.7-2.3,0.7c-1.1,0-2.2-0.6-2.2-1.8c0-1.4,1.1-2.4,2.1-3
	c0.7-0.4,1.5-0.7,2.3-0.7C126.2,37.7,127.3,38.3,127.3,39.5z"/>
<path d="M127.3,44.5c0,1.4-1.1,2.4-2.1,3c-0.7,0.4-1.5,0.7-2.3,0.7c-1.1,0-2.2-0.6-2.2-1.8c0-1.4,1.1-2.4,2.1-3
	c0.7-0.4,1.5-0.7,2.3-0.7C126.2,42.7,127.3,43.2,127.3,44.5z"/>
<path d="M127.3,49.4c0,1.4-1.1,2.4-2.1,3c-0.7,0.4-1.5,0.7-2.3,0.7c-1.1,0-2.2-0.6-2.2-1.8c0-1.4,1.1-2.4,2.1-3
	c0.7-0.4,1.5-0.7,2.3-0.7C126.2,47.6,127.3,48.2,127.3,49.4z"/>
</svg>
