<?xml version="1.0" encoding="utf-8"?>
<!-- Generator: Adobe Illustrator 21.1.0, SVG Export Plug-In . SVG Version: 6.00 Build 0)  -->
<svg version="1.1" id="Ebene_1" xmlns="http://www.w3.org/2000/svg" xmlns:xlink="http://www.w3.org/1999/xlink" x="0px" y="0px"
	 viewBox="0 0 500 80" style="enable-background:new 0 0 500 80;" xml:space="preserve">
<style type="text/css">
	.st0{fill:none;stroke:#000000;stroke-width:0.9465;stroke-miterlimit:10;}
	.st1{fill:none;stroke:#000000;stroke-width:0.9963;stroke-linecap:round;stroke-miterlimit:10;}
	.st2{fill:none;stroke:#000000;stroke-width:0.4981;stroke-linecap:round;stroke-miterlimit:10;}
	.st3{fill:none;stroke:#000000;stroke-width:0.3985;stroke-linecap:round;stroke-linejoin:round;stroke-miterlimit:10;}
</style>
<line class="st0" x1="136.7" y1="47.9" x2="136.7" y2="28"/>
<line class="st0" x1="383.3" y1="47.9" x2="383.3" y2="28"/>
<line class="st0" x1="346.6" y1="47.9" x2="346.6" y2="28"/>
<line class="st0" x1="98.6" y1="47.9" x2="98.6" y2="28"/>
<line class="st0" x1="419.6" y1="47.9" x2="419.6" y2="28"/>
<line class="st0" x1="60.1" y1="47.9" x2="60.1" y2="28"/>
<line class="st0" x1="181.7" y1="47.9" x2="181.7" y2="28"/>
<line class="st0" x1="305.9" y1="47.9" x2="305.9" y2="28"/>
<line class="st0" x1="462.1" y1="47.9" x2="462.1" y2="28"/>
<line class="st0" x1="267.5" y1="47.9" x2="267.5" y2="28"/>
<line class="st0" x1="224.6" y1="47.9" x2="224.6" y2="28"/>
<line class="st0" x1="496.5" y1="47.9" x2="496.5" y2="28"/>
<line class="st1" x1="30.6" y1="52.9" x2="39.4" y2="52.9"/>
<line class="st1" x1="69.9" y1="52.9" x2="78" y2="52.9"/>
<line class="st2" x1="1.1" y1="47.9" x2="496.7" y2="47.9"/>
<line class="st2" x1="1.1" y1="42.9" x2="496.7" y2="42.9"/>
<line class="st2" x1="1.1" y1="37.9" x2="496.7" y2="37.9"/>
<line class="st2" x1="1.1" y1="33" x2="496.7" y2="33"/>
<line class="st2" x1="1.1" y1="28" x2="496.7" y2="28"/>
<path d="M314.3,23.8c0.2-0.1,0.4-0.2,0.5-0.2s0.4,0.1,0.5,0.2l-0.1,6.9c0.5-0.4,1.2-0.7,1.8-0.7c1,0,1.8,1,1.8,2
	c0,1.6-1.7,2.3-2.9,3.4c-0.3,0.3-0.5,0.8-0.9,0.8c-0.3,0-0.5-0.2-0.5-0.5L314.3,23.8z M315.3,33.4v0.2c0,0.4,0,0.9,0.1,1.3
	c0.9-0.8,1.9-1.6,1.9-2.8c0-0.7-0.3-1.3-0.9-1.3c-0.6,0-1,0.6-1.1,1.3L315.3,33.4z"/>
<path d="M363.7,42c0,1.4-1.1,2.4-2.1,3c-0.7,0.4-1.5,0.7-2.3,0.7c-1.1,0-2.2-0.6-2.2-1.8c0-1.4,1.1-2.4,2.1-3
	c0.7-0.4,1.5-0.7,2.3-0.7C362.7,40.2,363.7,40.7,363.7,42z"/>
<path d="M363.7,37c0,1.4-1.1,2.4-2.1,3c-0.7,0.4-1.5,0.7-2.3,0.7c-1.1,0-2.2-0.6-2.2-1.8c0-1.4,1.1-2.4,2.1-3
	c0.7-0.4,1.5-0.7,2.3-0.7C362.7,35.2,363.7,35.8,363.7,37z"/>
<path d="M363.7,32c0,1.4-1.1,2.4-2.1,3c-0.7,0.4-1.5,0.7-2.3,0.7c-1.1,0-2.2-0.6-2.2-1.8c0-1.4,1.1-2.4,2.1-3
	c0.7-0.4,1.5-0.7,2.3-0.7C362.7,30.2,363.7,30.8,363.7,32z"/>
<rect x="357.4" y="34.1" class="st3" width="0.2" height="23.6"/>
<rect x="357.4" y="34.1" width="0.2" height="23.6"/>
<path d="M353.9,49.5c-0.2,0-0.4-0.2-0.4-0.4v-2.9l-1.7,0.6V50c0,0.2-0.2,0.4-0.4,0.4s-0.4-0.2-0.4-0.4v-2.9l-0.6,0.2
	c0,0-0.1,0-0.1,0c-0.2,0-0.4-0.2-0.4-0.4v-1.2c0-0.2,0.1-0.3,0.3-0.4l0.9-0.3v-3.2l-0.6,0.2c0,0-0.1,0-0.1,0c-0.2,0-0.4-0.2-0.4-0.4
	v-1.2c0-0.2,0.1-0.3,0.3-0.4l0.9-0.3v-3.1c0-0.2,0.2-0.4,0.4-0.4s0.4,0.2,0.4,0.4v2.9l1.7-0.6v-3.1c0-0.2,0.2-0.4,0.4-0.4
	s0.4,0.2,0.4,0.4v2.9l0.6-0.2c0,0,0.1,0,0.1,0c0.2,0,0.4,0.2,0.4,0.4V40c0,0.2-0.1,0.3-0.3,0.4l-0.9,0.3v3.2l0.6-0.2
	c0,0,0.1,0,0.1,0c0.2,0,0.4,0.2,0.4,0.4v1.2c0,0.2-0.1,0.3-0.3,0.4l-0.9,0.3v3.1C354.3,49.3,354.1,49.5,353.9,49.5z M351.9,44.8
	l1.7-0.6V41l-1.7,0.6V44.8z"/>
<path d="M274.4,52c-0.2,0-0.4-0.2-0.4-0.4v-2.9l-1.7,0.6v3.1c0,0.2-0.2,0.4-0.4,0.4s-0.4-0.2-0.4-0.4v-2.9l-0.6,0.2c0,0-0.1,0-0.1,0
	c-0.2,0-0.4-0.2-0.4-0.4v-1.2c0-0.2,0.1-0.3,0.3-0.4l0.9-0.3v-3.2l-0.6,0.2c0,0-0.1,0-0.1,0c-0.2,0-0.4-0.2-0.4-0.4V43
	c0-0.2,0.1-0.3,0.3-0.4l0.9-0.3v-3.1c0-0.2,0.2-0.4,0.4-0.4s0.4,0.2,0.4,0.4v2.9l1.7-0.6v-3.1c0-0.2,0.2-0.4,0.4-0.4
	s0.4,0.2,0.4,0.4v2.9l0.6-0.2c0,0,0.1,0,0.1,0c0.2,0,0.4,0.2,0.4,0.4v1.2c0,0.2-0.1,0.3-0.3,0.4l-0.9,0.3v3.2l0.6-0.2
	c0,0,0.1,0,0.1,0c0.2,0,0.4,0.2,0.4,0.4v1.2c0,0.2-0.1,0.3-0.3,0.4l-0.9,0.3v3.1C274.7,51.8,274.6,52,274.4,52z M272.4,47.3l1.7-0.6
	v-3.2l-1.7,0.6V47.3z"/>
<path d="M327.1,42c0,1.4-1.1,2.4-2.1,3c-0.7,0.4-1.5,0.7-2.3,0.7c-1.1,0-2.2-0.6-2.2-1.8c0-1.4,1.1-2.4,2.1-3
	c0.7-0.4,1.5-0.7,2.3-0.7C326,40.2,327.1,40.7,327.1,42z"/>
<path d="M327.1,37c0,1.4-1.1,2.4-2.1,3c-0.7,0.4-1.5,0.7-2.3,0.7c-1.1,0-2.2-0.6-2.2-1.8c0-1.4,1.1-2.4,2.1-3
	c0.7-0.4,1.5-0.7,2.3-0.7C326,35.2,327.1,35.8,327.1,37z"/>
<path d="M327.1,32c0,1.4-1.1,2.4-2.1,3c-0.7,0.4-1.5,0.7-2.3,0.7c-1.1,0-2.2-0.6-2.2-1.8c0-1.4,1.1-2.4,2.1-3
	c0.7-0.4,1.5-0.7,2.3-0.7C326,30.2,327.1,30.8,327.1,32z"/>
<rect x="320.7" y="34.1" class="st3" width="0.2" height="23.6"/>
<rect x="320.7" y="34.1" width="0.2" height="23.6"/>
<rect x="283.8" y="19.9" class="st3" width="0.2" height="24.4"/>
<rect x="283.8" y="19.9" width="0.2" height="24.4"/>
<path d="M284.2,34.5c0,1.4-1.1,2.4-2.1,3c-0.7,0.4-1.5,0.7-2.3,0.7c-1.1,0-2.2-0.6-2.2-1.8c0-1.4,1.1-2.4,2.1-3
	c0.7-0.4,1.5-0.7,2.3-0.7C283.2,32.7,284.2,33.3,284.2,34.5z"/>
<path d="M284.2,39.5c0,1.4-1.1,2.4-2.1,3c-0.7,0.4-1.5,0.7-2.3,0.7c-1.1,0-2.2-0.6-2.2-1.8c0-1.4,1.1-2.4,2.1-3
	c0.7-0.4,1.5-0.7,2.3-0.7C283.2,37.7,284.2,38.3,284.2,39.5z"/>
<path d="M309,28.8c0.2-0.1,0.4-0.2,0.5-0.2s0.4,0.1,0.5,0.2l-0.1,6.9c0.5-0.4,1.2-0.7,1.8-0.7c1,0,1.8,1,1.8,2
	c0,1.6-1.7,2.3-2.9,3.4c-0.3,0.3-0.5,0.8-0.9,0.8c-0.3,0-0.5-0.2-0.5-0.5L309,28.8z M310,38.4v0.2c0,0.4,0,0.9,0.1,1.3
	c0.9-0.8,1.9-1.6,1.9-2.8c0-0.7-0.3-1.3-0.9-1.3c-0.6,0-1,0.6-1.1,1.3L310,38.4z"/>
<path d="M284.2,44.5c0,1.4-1.1,2.4-2.1,3c-0.7,0.4-1.5,0.7-2.3,0.7c-1.1,0-2.2-0.6-2.2-1.8c0-1.4,1.1-2.4,2.1-3
	c0.7-0.4,1.5-0.7,2.3-0.7C283.2,42.7,284.2,43.2,284.2,44.5z"/>
<path d="M432.9,42c-0.2,0-0.4-0.2-0.4-0.4v-2.9l-1.7,0.6v3.1c0,0.2-0.2,0.4-0.4,0.4s-0.4-0.2-0.4-0.4v-2.9l-0.6,0.2c0,0-0.1,0-0.1,0
	c-0.2,0-0.4-0.2-0.4-0.4v-1.2c0-0.2,0.1-0.3,0.3-0.4l0.9-0.3v-3.2l-0.6,0.2c0,0-0.1,0-0.1,0c-0.2,0-0.4-0.2-0.4-0.4v-1.2
	c0-0.2,0.1-0.3,0.3-0.4l0.9-0.3v-3.1c0-0.2,0.2-0.4,0.4-0.4s0.4,0.2,0.4,0.4v2.9l1.7-0.6v-3.1c0-0.2,0.2-0.4,0.4-0.4
	s0.4,0.2,0.4,0.4v2.9l0.6-0.2c0,0,0.1,0,0.1,0c0.2,0,0.4,0.2,0.4,0.4v1.2c0,0.2-0.1,0.3-0.3,0.4l-0.9,0.3v3.2l0.6-0.2
	c0,0,0.1,0,0.1,0c0.2,0,0.4,0.2,0.4,0.4v1.2c0,0.2-0.1,0.3-0.3,0.4l-0.9,0.3v3.1C433.3,41.9,433.1,42,432.9,42z M430.9,37.3l1.7-0.6
	v-3.2l-1.7,0.6V37.3z"/>
<path d="M477.3,37c0,1.4-1.1,2.4-2.1,3c-0.7,0.4-1.5,0.7-2.3,0.7c-1.1,0-2.2-0.6-2.2-1.8c0-1.4,1.1-2.4,2.1-3
	c0.7-0.4,1.5-0.7,2.3-0.7C476.3,35.2,477.3,35.8,477.3,37z"/>
<path d="M477.3,32c0,1.4-1.1,2.4-2.1,3c-0.7,0.4-1.5,0.7-2.3,0.7c-1.1,0-2.2-0.6-2.2-1.8c0-1.4,1.1-2.4,2.1-3
	c0.7-0.4,1.5-0.7,2.3-0.7C476.3,30.2,477.3,30.8,477.3,32z"/>
<path d="M477.3,27c0,1.4-1.1,2.4-2.1,3c-0.7,0.4-1.5,0.7-2.3,0.7c-1.1,0-2.2-0.6-2.2-1.8c0-1.4,1.1-2.4,2.1-3
	c0.7-0.4,1.5-0.7,2.3-0.7C476.3,25.2,477.3,25.8,477.3,27z"/>
<rect x="471" y="29.1" class="st3" width="0.2" height="25.2"/>
<rect x="471" y="29.1" width="0.2" height="25.2"/>
<path d="M400.2,39.5c0,1.4-1.1,2.4-2.1,3c-0.7,0.4-1.5,0.7-2.3,0.7c-1.1,0-2.2-0.6-2.2-1.8c0-1.4,1.1-2.4,2.1-3
	c0.7-0.4,1.5-0.7,2.3-0.7C399.1,37.7,400.2,38.3,400.2,39.5z"/>
<path d="M400.2,34.5c0,1.4-1.1,2.4-2.1,3c-0.7,0.4-1.5,0.7-2.3,0.7c-1.1,0-2.2-0.6-2.2-1.8c0-1.4,1.1-2.4,2.1-3
	c0.7-0.4,1.5-0.7,2.3-0.7C399.1,32.7,400.2,33.3,400.2,34.5z"/>
<path d="M400.2,29.5c0,1.4-1.1,2.4-2.1,3c-0.7,0.4-1.5,0.7-2.3,0.7c-1.1,0-2.2-0.6-2.2-1.8c0-1.4,1.1-2.4,2.1-3
	c0.7-0.4,1.5-0.7,2.3-0.7C399.1,27.7,400.2,28.3,400.2,29.5z"/>
<rect x="393.8" y="31.6" class="st3" width="0.2" height="24.4"/>
<rect x="393.8" y="31.6" width="0.2" height="24.4"/>
<path d="M387.4,21.4c0.2-0.1,0.4-0.2,0.5-0.2s0.4,0.1,0.5,0.2l-0.1,6.9c0.5-0.4,1.2-0.7,1.8-0.7c1,0,1.8,1,1.8,2
	c0,1.6-1.7,2.3-2.9,3.4c-0.3,0.3-0.5,0.8-0.9,0.8c-0.3,0-0.5-0.2-0.5-0.5L387.4,21.4z M388.4,31v0.2c0,0.4,0,0.9,0.1,1.3
	c0.9-0.8,1.9-1.6,1.9-2.8c0-0.7-0.3-1.3-0.9-1.3c-0.6,0-1,0.6-1.1,1.3L388.4,31z"/>
<path d="M442.8,39.5c0,1.4-1.1,2.4-2.1,3c-0.7,0.4-1.5,0.7-2.3,0.7c-1.1,0-2.2-0.6-2.2-1.8c0-1.4,1.1-2.4,2.1-3
	c0.7-0.4,1.5-0.7,2.3-0.7C441.7,37.7,442.8,38.3,442.8,39.5z"/>
<path d="M442.8,34.5c0,1.4-1.1,2.4-2.1,3c-0.7,0.4-1.5,0.7-2.3,0.7c-1.1,0-2.2-0.6-2.2-1.8c0-1.4,1.1-2.4,2.1-3
	c0.7-0.4,1.5-0.7,2.3-0.7C441.7,32.7,442.8,33.3,442.8,34.5z"/>
<path d="M442.8,29.5c0,1.4-1.1,2.4-2.1,3c-0.7,0.4-1.5,0.7-2.3,0.7c-1.1,0-2.2-0.6-2.2-1.8c0-1.4,1.1-2.4,2.1-3
	c0.7-0.4,1.5-0.7,2.3-0.7C441.7,27.7,442.8,28.3,442.8,29.5z"/>
<rect x="436.4" y="31.6" class="st3" width="0.2" height="24.4"/>
<rect x="436.4" y="31.6" width="0.2" height="24.4"/>
<path d="M426.5,47c-0.2,0-0.4-0.2-0.4-0.4v-2.9l-1.7,0.6v3.1c0,0.2-0.2,0.4-0.4,0.4s-0.4-0.2-0.4-0.4v-2.9l-0.6,0.2c0,0-0.1,0-0.1,0
	c-0.2,0-0.4-0.2-0.4-0.4v-1.2c0-0.2,0.1-0.3,0.3-0.4l0.9-0.3v-3.2l-0.6,0.2c0,0-0.1,0-0.1,0c-0.2,0-0.4-0.2-0.4-0.4v-1.2
	c0-0.2,0.1-0.3,0.3-0.4l0.9-0.3v-3.1c0-0.2,0.2-0.4,0.4-0.4s0.4,0.2,0.4,0.4v2.9l1.7-0.6v-3.1c0-0.2,0.2-0.4,0.4-0.4
	s0.4,0.2,0.4,0.4v2.9l0.6-0.2c0,0,0.1,0,0.1,0c0.2,0,0.4,0.2,0.4,0.4v1.2c0,0.2-0.1,0.3-0.3,0.4l-0.9,0.3v3.2l0.6-0.2
	c0,0,0.1,0,0.1,0c0.2,0,0.4,0.2,0.4,0.4v1.2c0,0.2-0.1,0.3-0.3,0.4l-0.9,0.3v3.1C426.8,46.8,426.7,47,426.5,47z M424.4,42.3l1.7-0.6
	v-3.2l-1.7,0.6V42.3z"/>
<path d="M67,59.5c-0.2,0-0.4-0.2-0.4-0.4v-2.9L65,56.8V60c0,0.2-0.2,0.4-0.4,0.4s-0.4-0.2-0.4-0.4v-2.9l-0.6,0.2c0,0-0.1,0-0.1,0
	c-0.2,0-0.4-0.2-0.4-0.4v-1.2c0-0.2,0.1-0.3,0.3-0.4l0.9-0.3v-3.2l-0.6,0.2c0,0-0.1,0-0.1,0c-0.2,0-0.4-0.2-0.4-0.4v-1.2
	c0-0.2,0.1-0.3,0.3-0.4l0.9-0.3v-3.1c0-0.2,0.2-0.4,0.4-0.4s0.4,0.2,0.4,0.4v2.9l1.7-0.6v-3.1c0-0.2,0.2-0.4,0.4-0.4
	s0.4,0.2,0.4,0.4v2.9l0.6-0.2c0,0,0.1,0,0.1,0c0.2,0,0.4,0.2,0.4,0.4V50c0,0.2-0.1,0.3-0.3,0.4l-0.9,0.3v3.2l0.6-0.2
	c0,0,0.1,0,0.1,0c0.2,0,0.4,0.2,0.4,0.4v1.2c0,0.2-0.1,0.3-0.3,0.4l-0.9,0.3v3.1C67.3,59.3,67.2,59.5,67,59.5z M65,54.8l1.7-0.6V51
	L65,51.6V54.8z"/>
<path d="M114.9,49.4c0,1.4-1.1,2.4-2.1,3c-0.7,0.4-1.5,0.7-2.3,0.7c-1.1,0-2.2-0.6-2.2-1.8c0-1.4,1.1-2.4,2.1-3
	c0.7-0.4,1.5-0.7,2.3-0.7C113.8,47.6,114.9,48.2,114.9,49.4z"/>
<path d="M114.9,44.5c0,1.4-1.1,2.4-2.1,3c-0.7,0.4-1.5,0.7-2.3,0.7c-1.1,0-2.2-0.6-2.2-1.8c0-1.4,1.1-2.4,2.1-3
	c0.7-0.4,1.5-0.7,2.3-0.7C113.8,42.7,114.9,43.2,114.9,44.5z"/>
<path d="M114.9,39.5c0,1.4-1.1,2.4-2.1,3c-0.7,0.4-1.5,0.7-2.3,0.7c-1.1,0-2.2-0.6-2.2-1.8c0-1.4,1.1-2.4,2.1-3
	c0.7-0.4,1.5-0.7,2.3-0.7C113.8,37.7,114.9,38.3,114.9,39.5z"/>
<rect x="114.4" y="23.2" class="st3" width="0.2" height="26.1"/>
<rect x="114.4" y="23.2" width="0.2" height="26.1"/>
<path d="M102.1,31.3c0.2-0.1,0.4-0.2,0.5-0.2s0.4,0.1,0.5,0.2l-0.1,6.9c0.5-0.4,1.2-0.7,1.8-0.7c1,0,1.8,1,1.8,2
	c0,1.6-1.7,2.3-2.9,3.4c-0.3,0.3-0.5,0.8-0.9,0.8c-0.3,0-0.5-0.2-0.5-0.5L102.1,31.3z M103.1,40.9v0.2c0,0.4,0,0.9,0.1,1.3
	c0.9-0.8,1.9-1.6,1.9-2.8c0-0.7-0.3-1.3-0.9-1.3c-0.6,0-1,0.6-1.1,1.3L103.1,40.9z"/>
<path d="M159.9,49.4c0,1.4-1.1,2.4-2.1,3c-0.7,0.4-1.5,0.7-2.3,0.7c-1.1,0-2.2-0.6-2.2-1.8c0-1.4,1.1-2.4,2.1-3
	c0.7-0.4,1.5-0.7,2.3-0.7C158.8,47.6,159.9,48.2,159.9,49.4z"/>
<path d="M159.9,44.5c0,1.4-1.1,2.4-2.1,3c-0.7,0.4-1.5,0.7-2.3,0.7c-1.1,0-2.2-0.6-2.2-1.8c0-1.4,1.1-2.4,2.1-3
	c0.7-0.4,1.5-0.7,2.3-0.7C158.8,42.7,159.9,43.2,159.9,44.5z"/>
<path d="M159.9,39.5c0,1.4-1.1,2.4-2.1,3c-0.7,0.4-1.5,0.7-2.3,0.7c-1.1,0-2.2-0.6-2.2-1.8c0-1.4,1.1-2.4,2.1-3
	c0.7-0.4,1.5-0.7,2.3-0.7C158.8,37.7,159.9,38.3,159.9,39.5z"/>
<path d="M38.3,51.9c0,1.4-1.1,2.4-2.1,3c-0.7,0.4-1.5,0.7-2.3,0.7c-1.1,0-2.2-0.6-2.2-1.8c0-1.4,1.1-2.4,2.1-3
	c0.7-0.4,1.5-0.7,2.3-0.7C37.2,50.1,38.3,50.7,38.3,51.9z"/>
<path d="M38.3,47c0,1.4-1.1,2.4-2.1,3c-0.7,0.4-1.5,0.7-2.3,0.7c-1.1,0-2.2-0.6-2.2-1.8c0-1.4,1.1-2.4,2.1-3
	c0.7-0.4,1.5-0.7,2.3-0.7C37.2,45.1,38.3,45.7,38.3,47z"/>
<path d="M38.3,42c0,1.4-1.1,2.4-2.1,3c-0.7,0.4-1.5,0.7-2.3,0.7c-1.1,0-2.2-0.6-2.2-1.8c0-1.4,1.1-2.4,2.1-3
	c0.7-0.4,1.5-0.7,2.3-0.7C37.2,40.2,38.3,40.7,38.3,42z"/>
<path d="M12.6,37.7c3.1,0,5.1,2.6,5.1,5.2c0,1.5-0.7,3.1-2.1,4.2c-0.4,0.3-0.9,0.6-1.5,0.7c0.1,0.7,0.1,1.4,0.1,2.1
	c0,0.4,0,0.8,0,1.2c-0.1,2.4-1.8,4.5-4.1,4.5c-2.2,0-3.9-1.8-3.9-3.9c0-1.2,1.1-2.1,2.2-2.1c1.1,0,1.9,0.9,1.9,2.1
	c0,1-0.9,1.9-1.9,1.9c-0.2,0-0.4,0-0.6-0.1c0.5,0.8,1.4,1.3,2.3,1.3c1.9,0,3.1-1.8,3.2-3.8c0-0.4,0-0.7,0-1.1c0-0.6,0-1.2-0.1-1.8
	c-0.6,0.1-1.2,0.2-1.8,0.2c-3.7,0-6.6-3.4-6.6-7.5c0-3.5,2.6-6.1,4.9-8.8c-0.4-1.2-0.7-2.5-0.9-3.8c-0.1-1-0.1-2.1-0.1-3.1
	c0-2.3,1.1-4.5,3-5.8c0.1,0,0.1-0.1,0.2-0.1c0.1,0,0.1,0,0.2,0.1c1.4,1.7,2.7,4.9,2.7,7.1c0,2.8-1.7,5.1-3.6,7.3
	c0.4,1.4,0.8,2.8,1.1,4.1C12.4,37.7,12.5,37.7,12.6,37.7z M11.6,47.3c0.6,0,1.1,0,1.6-0.1c-0.3-2.5-0.7-4.9-1.3-7.3
	c-1.6,0.2-2.5,1.2-2.5,2.4c0,0.9,0.5,1.8,1.6,2.5c0.1,0.1,0.1,0.2,0.1,0.3c0,0.2-0.2,0.4-0.4,0.4c-0.1,0-0.1,0-0.2,0
	c-1.6-0.9-2.3-2.3-2.3-3.7c0-1.8,1.2-3.5,3.2-3.9c-0.3-1.2-0.6-2.3-0.9-3.5c-2.1,2.4-4.2,4.8-4.2,8C6.3,45,8.9,47.3,11.6,47.3z
	 M9.8,27.3c0,1.5,0.4,2.7,0.7,3.9c1.6-1.9,2.9-3.9,2.9-6.5c0-1.1-0.1-1.6-0.4-2.6C11,23,9.8,25.1,9.8,27.3z M16.3,43.7
	c0-1.8-1.3-3.6-3.4-3.8c0.5,2.3,0.9,4.6,1.2,7.1C15.4,46.5,16.3,45.1,16.3,43.7z"/>
<rect x="37.8" y="25.7" class="st3" width="0.2" height="26.1"/>
<rect x="37.8" y="25.7" width="0.2" height="26.1"/>
<path d="M20.2,38.8c0.2-0.1,0.4-0.2,0.5-0.2s0.4,0.1,0.5,0.2l-0.1,6.9c0.5-0.4,1.2-0.7,1.8-0.7c1,0,1.8,1,1.8,2
	c0,1.6-1.7,2.3-2.9,3.4c-0.3,0.3-0.5,0.8-0.9,0.8c-0.3,0-0.5-0.2-0.5-0.5L20.2,38.8z M21.2,48.4v0.2c0,0.4,0,0.9,0.1,1.3
	c0.9-0.8,1.9-1.6,1.9-2.8c0-0.7-0.3-1.3-0.9-1.3c-0.6,0-1,0.6-1.1,1.3L21.2,48.4z"/>
<path d="M25.5,33.8c0.2-0.1,0.4-0.2,0.5-0.2c0.2,0,0.4,0.1,0.5,0.2l-0.1,6.9c0.5-0.4,1.2-0.7,1.8-0.7c1,0,1.8,1,1.8,2
	c0,1.6-1.7,2.3-2.9,3.4c-0.3,0.3-0.5,0.8-0.9,0.8c-0.3,0-0.5-0.2-0.5-0.5L25.5,33.8z M26.5,43.4v0.2c0,0.4,0,0.9,0.1,1.3
	c0.9-0.8,1.9-1.6,1.9-2.8c0-0.7-0.3-1.3-0.9-1.3c-0.6,0-1,0.6-1.1,1.3L26.5,43.4z"/>
<path d="M76.8,51.9c0,1.4-1.1,2.4-2.1,3c-0.7,0.4-1.5,0.7-2.3,0.7c-1.1,0-2.2-0.6-2.2-1.8c0-1.4,1.1-2.4,2.1-3
	c0.7-0.4,1.5-0.7,2.3-0.7C75.8,50.1,76.8,50.7,76.8,51.9z"/>
<path d="M76.8,47c0,1.4-1.1,2.4-2.1,3c-0.7,0.4-1.5,0.7-2.3,0.7c-1.1,0-2.2-0.6-2.2-1.8c0-1.4,1.1-2.4,2.1-3
	c0.7-0.4,1.5-0.7,2.3-0.7C75.8,45.1,76.8,45.7,76.8,47z"/>
<path d="M76.8,42c0,1.4-1.1,2.4-2.1,3c-0.7,0.4-1.5,0.7-2.3,0.7c-1.1,0-2.2-0.6-2.2-1.8c0-1.4,1.1-2.4,2.1-3
	c0.7-0.4,1.5-0.7,2.3-0.7C75.8,40.2,76.8,40.7,76.8,42z"/>
<rect x="76.4" y="25.7" class="st3" width="0.2" height="26.1"/>
<rect x="76.4" y="25.7" width="0.2" height="26.1"/>
<rect x="202.4" y="21.5" class="st3" width="0.2" height="25.2"/>
<rect x="202.4" y="21.5" width="0.2" height="25.2"/>
<path d="M184.7,33.8c0.2-0.1,0.4-0.2,0.5-0.2s0.4,0.1,0.5,0.2l-0.1,6.9c0.5-0.4,1.2-0.7,1.8-0.7c1,0,1.8,1,1.8,2
	c0,1.6-1.7,2.3-2.9,3.4c-0.3,0.3-0.5,0.8-0.9,0.8c-0.3,0-0.5-0.2-0.5-0.5L184.7,33.8z M185.8,43.4v0.2c0,0.4,0,0.9,0.1,1.3
	c0.9-0.8,1.9-1.6,1.9-2.8c0-0.7-0.3-1.3-0.9-1.3c-0.6,0-1,0.6-1.1,1.3L185.8,43.4z"/>
<path d="M190,28.8c0.2-0.1,0.4-0.2,0.5-0.2s0.4,0.1,0.5,0.2l-0.1,6.9c0.5-0.4,1.2-0.7,1.8-0.7c1,0,1.8,1,1.8,2
	c0,1.6-1.7,2.3-2.9,3.4c-0.3,0.3-0.5,0.8-0.9,0.8c-0.3,0-0.5-0.2-0.5-0.5L190,28.8z M191.1,38.4v0.2c0,0.4,0,0.9,0.1,1.3
	c0.9-0.8,1.9-1.6,1.9-2.8c0-0.7-0.3-1.3-0.9-1.3c-0.6,0-1,0.6-1.1,1.3L191.1,38.4z"/>
<path d="M245.7,44.5c0,1.4-1.1,2.4-2.1,3c-0.7,0.4-1.5,0.7-2.3,0.7c-1.1,0-2.2-0.6-2.2-1.8c0-1.4,1.1-2.4,2.1-3
	c0.7-0.4,1.5-0.7,2.3-0.7C244.7,42.7,245.7,43.2,245.7,44.5z"/>
<path d="M245.7,39.5c0,1.4-1.1,2.4-2.1,3c-0.7,0.4-1.5,0.7-2.3,0.7c-1.1,0-2.2-0.6-2.2-1.8c0-1.4,1.1-2.4,2.1-3
	c0.7-0.4,1.5-0.7,2.3-0.7C244.7,37.7,245.7,38.3,245.7,39.5z"/>
<path d="M245.7,34.5c0,1.4-1.1,2.4-2.1,3c-0.7,0.4-1.5,0.7-2.3,0.7c-1.1,0-2.2-0.6-2.2-1.8c0-1.4,1.1-2.4,2.1-3
	c0.7-0.4,1.5-0.7,2.3-0.7C244.7,32.7,245.7,33.3,245.7,34.5z"/>
<rect x="245.3" y="19.9" class="st3" width="0.2" height="24.4"/>
<rect x="245.3" y="19.9" width="0.2" height="24.4"/>
<path d="M227.6,31.3c0.2-0.1,0.4-0.2,0.5-0.2s0.4,0.1,0.5,0.2l-0.1,6.9c0.5-0.4,1.2-0.7,1.8-0.7c1,0,1.8,1,1.8,2
	c0,1.6-1.7,2.3-2.9,3.4c-0.3,0.3-0.5,0.8-0.9,0.8c-0.3,0-0.5-0.2-0.5-0.5L227.6,31.3z M228.7,40.9v0.2c0,0.4,0,0.9,0.1,1.3
	c0.9-0.8,1.9-1.6,1.9-2.8c0-0.7-0.3-1.3-0.9-1.3c-0.6,0-1,0.6-1.1,1.3L228.7,40.9z"/>
<path d="M232.9,26.3c0.2-0.1,0.4-0.2,0.5-0.2s0.4,0.1,0.5,0.2l-0.1,6.9c0.5-0.4,1.2-0.7,1.8-0.7c1,0,1.8,1,1.8,2
	c0,1.6-1.7,2.3-2.9,3.4c-0.3,0.3-0.5,0.8-0.9,0.8c-0.3,0-0.5-0.2-0.5-0.5L232.9,26.3z M234,35.9v0.2c0,0.4,0,0.9,0.1,1.3
	c0.9-0.8,1.9-1.6,1.9-2.8c0-0.7-0.3-1.3-0.9-1.3c-0.6,0-1,0.6-1.1,1.3L234,35.9z"/>
<rect x="159.5" y="23.2" class="st3" width="0.2" height="26.1"/>
<rect x="159.5" y="23.2" width="0.2" height="26.1"/>
<path d="M143.6,57c-0.2,0-0.4-0.2-0.4-0.4v-2.9l-1.7,0.6v3.1c0,0.2-0.2,0.4-0.4,0.4s-0.4-0.2-0.4-0.4v-2.9l-0.6,0.2c0,0-0.1,0-0.1,0
	c-0.2,0-0.4-0.2-0.4-0.4v-1.2c0-0.2,0.1-0.3,0.3-0.4l0.9-0.3v-3.2l-0.6,0.2c0,0-0.1,0-0.1,0c-0.2,0-0.4-0.2-0.4-0.4V48
	c0-0.2,0.1-0.3,0.3-0.4l0.9-0.3v-3.1c0-0.2,0.2-0.4,0.4-0.4s0.4,0.2,0.4,0.4v2.9l1.7-0.6v-3.1c0-0.2,0.2-0.4,0.4-0.4
	s0.4,0.2,0.4,0.4v2.9l0.6-0.2c0,0,0.1,0,0.1,0c0.2,0,0.4,0.2,0.4,0.4v1.2c0,0.2-0.1,0.3-0.3,0.4l-0.9,0.3v3.2l0.6-0.2
	c0,0,0.1,0,0.1,0c0.2,0,0.4,0.2,0.4,0.4v1.2c0,0.2-0.1,0.3-0.3,0.4l-0.9,0.3v3.1C144,56.8,143.8,57,143.6,57z M141.6,52.3l1.7-0.6
	v-3.2l-1.7,0.6V52.3z"/>
<path d="M150.1,52c-0.2,0-0.4-0.2-0.4-0.4v-2.9l-1.7,0.6v3.1c0,0.2-0.2,0.4-0.4,0.4s-0.4-0.2-0.4-0.4v-2.9l-0.6,0.2c0,0-0.1,0-0.1,0
	c-0.2,0-0.4-0.2-0.4-0.4v-1.2c0-0.2,0.1-0.3,0.3-0.4l0.9-0.3v-3.2l-0.6,0.2c0,0-0.1,0-0.1,0c-0.2,0-0.4-0.2-0.4-0.4V43
	c0-0.2,0.1-0.3,0.3-0.4l0.9-0.3v-3.1c0-0.2,0.2-0.4,0.4-0.4s0.4,0.2,0.4,0.4v2.9l1.7-0.6v-3.1c0-0.2,0.2-0.4,0.4-0.4
	s0.4,0.2,0.4,0.4v2.9l0.6-0.2c0,0,0.1,0,0.1,0c0.2,0,0.4,0.2,0.4,0.4v1.2c0,0.2-0.1,0.3-0.3,0.4l-0.9,0.3v3.2l0.6-0.2
	c0,0,0.1,0,0.1,0c0.2,0,0.4,0.2,0.4,0.4v1.2c0,0.2-0.1,0.3-0.3,0.4l-0.9,0.3v3.1C150.4,51.8,150.3,52,150.1,52z M148,47.3l1.7-0.6
	v-3.2l-1.7,0.6V47.3z"/>
<path d="M202.8,37c0,1.4-1.1,2.4-2.1,3c-0.7,0.4-1.5,0.7-2.3,0.7c-1.1,0-2.2-0.6-2.2-1.8c0-1.4,1.1-2.4,2.1-3
	c0.7-0.4,1.5-0.7,2.3-0.7C201.8,35.2,202.8,35.8,202.8,37z"/>
<path d="M202.8,47c0,1.4-1.1,2.4-2.1,3c-0.7,0.4-1.5,0.7-2.3,0.7c-1.1,0-2.2-0.6-2.2-1.8c0-1.4,1.1-2.4,2.1-3
	c0.7-0.4,1.5-0.7,2.3-0.7C201.8,45.1,202.8,45.7,202.8,47z"/>
<path d="M202.8,42c0,1.4-1.1,2.4-2.1,3c-0.7,0.4-1.5,0.7-2.3,0.7c-1.1,0-2.2-0.6-2.2-1.8c0-1.4,1.1-2.4,2.1-3
	c0.7-0.4,1.5-0.7,2.3-0.7C201.8,40.2,202.8,40.7,202.8,42z"/>
</svg>
