<?xml version="1.0" encoding="utf-8"?>
<!-- Generator: Adobe Illustrator 21.1.0, SVG Export Plug-In . SVG Version: 6.00 Build 0)  -->
<svg version="1.1" id="Ebene_1" xmlns="http://www.w3.org/2000/svg" xmlns:xlink="http://www.w3.org/1999/xlink" x="0px" y="0px"
	 viewBox="0 0 500 60" style="enable-background:new 0 0 500 60;" xml:space="preserve">
<rect x="136.2" y="18" width="0.9" height="19.9"/>
<rect x="382.8" y="18" width="0.9" height="19.9"/>
<rect x="346.1" y="18" width="0.9" height="19.9"/>
<rect x="98.1" y="18" width="0.9" height="19.9"/>
<rect x="419.1" y="18" width="0.9" height="19.9"/>
<rect x="59.6" y="18" width="0.9" height="19.9"/>
<rect x="181.2" y="18" width="0.9" height="19.9"/>
<rect x="305.4" y="18" width="0.9" height="19.9"/>
<rect x="461.6" y="18" width="0.9" height="19.9"/>
<rect x="267" y="18" width="0.9" height="19.9"/>
<rect x="224.1" y="18" width="0.9" height="19.9"/>
<rect x="496" y="18" width="0.9" height="19.9"/>
<path d="M39.4,43.4h-8.8c-0.3,0-0.5-0.2-0.5-0.5s0.2-0.5,0.5-0.5h8.8c0.3,0,0.5,0.2,0.5,0.5S39.7,43.4,39.4,43.4z"/>
<path d="M78,43.4h-8.1c-0.3,0-0.5-0.2-0.5-0.5s0.2-0.5,0.5-0.5H78c0.3,0,0.5,0.2,0.5,0.5S78.3,43.4,78,43.4z"/>
<path d="M496.7,38.1H1.1c-0.1,0-0.2-0.1-0.2-0.2s0.1-0.2,0.2-0.2h495.6c0.1,0,0.2,0.1,0.2,0.2S496.8,38.1,496.7,38.1z"/>
<path d="M496.7,33.1H1.1c-0.1,0-0.2-0.1-0.2-0.2s0.1-0.2,0.2-0.2h495.6c0.1,0,0.2,0.1,0.2,0.2S496.8,33.1,496.7,33.1z"/>
<path d="M496.7,28.1H1.1c-0.1,0-0.2-0.1-0.2-0.2s0.1-0.2,0.2-0.2h495.6c0.1,0,0.2,0.1,0.2,0.2S496.8,28.1,496.7,28.1z"/>
<path d="M496.7,23.2H1.1c-0.1,0-0.2-0.1-0.2-0.2s0.1-0.2,0.2-0.2h495.6c0.1,0,0.2,0.1,0.2,0.2S496.8,23.2,496.7,23.2z"/>
<path d="M496.7,18.2H1.1c-0.1,0-0.2-0.1-0.2-0.2s0.1-0.2,0.2-0.2h495.6c0.1,0,0.2,0.1,0.2,0.2S496.8,18.2,496.7,18.2z"/>
<path d="M314.3,13.8c0.2-0.1,0.4-0.2,0.5-0.2s0.4,0.1,0.5,0.2l-0.1,6.9c0.5-0.4,1.2-0.7,1.8-0.7c1,0,1.8,1,1.8,2
	c0,1.6-1.7,2.3-2.9,3.4c-0.3,0.3-0.5,0.8-0.9,0.8c-0.3,0-0.5-0.2-0.5-0.5L314.3,13.8z M315.3,23.4v0.2c0,0.4,0,0.9,0.1,1.3
	c0.9-0.8,1.9-1.6,1.9-2.8c0-0.7-0.3-1.3-0.9-1.3s-1,0.6-1.1,1.3V23.4z"/>
<path d="M363.7,32c0,1.4-1.1,2.4-2.1,3c-0.7,0.4-1.5,0.7-2.3,0.7c-1.1,0-2.2-0.6-2.2-1.8c0-1.4,1.1-2.4,2.1-3
	c0.7-0.4,1.5-0.7,2.3-0.7C362.7,30.2,363.7,30.7,363.7,32z"/>
<path d="M363.7,27c0,1.4-1.1,2.4-2.1,3c-0.7,0.4-1.5,0.7-2.3,0.7c-1.1,0-2.2-0.6-2.2-1.8c0-1.4,1.1-2.4,2.1-3
	c0.7-0.4,1.5-0.7,2.3-0.7C362.7,25.2,363.7,25.8,363.7,27z"/>
<path d="M363.7,22c0,1.4-1.1,2.4-2.1,3c-0.7,0.4-1.5,0.7-2.3,0.7c-1.1,0-2.2-0.6-2.2-1.8c0-1.4,1.1-2.4,2.1-3
	c0.7-0.4,1.5-0.7,2.3-0.7C362.7,20.2,363.7,20.8,363.7,22z"/>
<path d="M357.6,47.9h-0.2c-0.1,0-0.2-0.1-0.2-0.2V24.1c0-0.1,0.1-0.2,0.2-0.2h0.2c0.1,0,0.2,0.1,0.2,0.2v23.6
	C357.8,47.8,357.7,47.9,357.6,47.9z"/>
<rect x="357.4" y="24.1" width="0.2" height="23.6"/>
<path d="M353.9,39.5c-0.2,0-0.4-0.2-0.4-0.4v-2.9l-1.7,0.6V40c0,0.2-0.2,0.4-0.4,0.4S351,40.2,351,40v-2.9l-0.6,0.2h-0.1
	c-0.2,0-0.4-0.2-0.4-0.4v-1.2c0-0.2,0.1-0.3,0.3-0.4l0.9-0.3v-3.2l-0.6,0.2h-0.1c-0.2,0-0.4-0.2-0.4-0.4v-1.2c0-0.2,0.1-0.3,0.3-0.4
	l0.9-0.3v-3.1c0-0.2,0.2-0.4,0.4-0.4s0.4,0.2,0.4,0.4v2.9l1.7-0.6v-3.1c0-0.2,0.2-0.4,0.4-0.4s0.4,0.2,0.4,0.4v2.9l0.6-0.2h0.1
	c0.2,0,0.4,0.2,0.4,0.4V30c0,0.2-0.1,0.3-0.3,0.4l-0.9,0.3v3.2l0.6-0.2h0.1c0.2,0,0.4,0.2,0.4,0.4v1.2c0,0.2-0.1,0.3-0.3,0.4
	l-0.9,0.3v3.1C354.3,39.3,354.1,39.5,353.9,39.5z M351.9,34.8l1.7-0.6V31l-1.7,0.6V34.8z"/>
<path d="M274.4,42c-0.2,0-0.4-0.2-0.4-0.4v-2.9l-1.7,0.6v3.1c0,0.2-0.2,0.4-0.4,0.4s-0.4-0.2-0.4-0.4v-2.9l-0.6,0.2h-0.1
	c-0.2,0-0.4-0.2-0.4-0.4v-1.2c0-0.2,0.1-0.3,0.3-0.4l0.9-0.3v-3.2l-0.6,0.2h-0.1c-0.2,0-0.4-0.2-0.4-0.4v-1c0-0.2,0.1-0.3,0.3-0.4
	l0.9-0.3v-3.1c0-0.2,0.2-0.4,0.4-0.4s0.4,0.2,0.4,0.4v2.9l1.7-0.6v-3.1c0-0.2,0.2-0.4,0.4-0.4s0.4,0.2,0.4,0.4v2.9l0.6-0.2h0.1
	c0.2,0,0.4,0.2,0.4,0.4v1.2c0,0.2-0.1,0.3-0.3,0.4l-0.9,0.3v3.2l0.6-0.2h0.1c0.2,0,0.4,0.2,0.4,0.4V38c0,0.2-0.1,0.3-0.3,0.4
	l-0.9,0.3v3.1C274.7,41.8,274.6,42,274.4,42z M272.4,37.3l1.7-0.6v-3.2l-1.7,0.6V37.3z"/>
<path d="M327.1,32c0,1.4-1.1,2.4-2.1,3c-0.7,0.4-1.5,0.7-2.3,0.7c-1.1,0-2.2-0.6-2.2-1.8c0-1.4,1.1-2.4,2.1-3
	c0.7-0.4,1.5-0.7,2.3-0.7C326,30.2,327.1,30.7,327.1,32z"/>
<path d="M327.1,27c0,1.4-1.1,2.4-2.1,3c-0.7,0.4-1.5,0.7-2.3,0.7c-1.1,0-2.2-0.6-2.2-1.8c0-1.4,1.1-2.4,2.1-3
	c0.7-0.4,1.5-0.7,2.3-0.7C326,25.2,327.1,25.8,327.1,27z"/>
<path d="M327.1,22c0,1.4-1.1,2.4-2.1,3c-0.7,0.4-1.5,0.7-2.3,0.7c-1.1,0-2.2-0.6-2.2-1.8c0-1.4,1.1-2.4,2.1-3
	c0.7-0.4,1.5-0.7,2.3-0.7C326,20.2,327.1,20.8,327.1,22z"/>
<path d="M320.9,47.9h-0.2c-0.1,0-0.2-0.1-0.2-0.2V24.1c0-0.1,0.1-0.2,0.2-0.2h0.2c0.1,0,0.2,0.1,0.2,0.2v23.6
	C321.1,47.8,321,47.9,320.9,47.9z"/>
<rect x="320.7" y="24.1" width="0.2" height="23.6"/>
<path d="M284,34.5h-0.2c-0.1,0-0.2-0.1-0.2-0.2V9.9c0-0.1,0.1-0.2,0.2-0.2h0.2c0.1,0,0.2,0.1,0.2,0.2v24.4
	C284.2,34.4,284.1,34.5,284,34.5z"/>
<rect x="283.8" y="9.9" width="0.2" height="24.4"/>
<path d="M284.2,24.5c0,1.4-1.1,2.4-2.1,3c-0.7,0.4-1.5,0.7-2.3,0.7c-1.1,0-2.2-0.6-2.2-1.8c0-1.4,1.1-2.4,2.1-3
	c0.7-0.4,1.5-0.7,2.3-0.7C283.2,22.7,284.2,23.3,284.2,24.5z"/>
<path d="M284.2,29.5c0,1.4-1.1,2.4-2.1,3c-0.7,0.4-1.5,0.7-2.3,0.7c-1.1,0-2.2-0.6-2.2-1.8c0-1.4,1.1-2.4,2.1-3
	c0.7-0.4,1.5-0.7,2.3-0.7C283.2,27.7,284.2,28.3,284.2,29.5z"/>
<path d="M309,18.8c0.2-0.1,0.4-0.2,0.5-0.2s0.4,0.1,0.5,0.2l-0.1,6.9c0.5-0.4,1.2-0.7,1.8-0.7c1,0,1.8,1,1.8,2
	c0,1.6-1.7,2.3-2.9,3.4c-0.3,0.3-0.5,0.8-0.9,0.8c-0.3,0-0.5-0.2-0.5-0.5L309,18.8z M310,28.4v0.2c0,0.4,0,0.9,0.1,1.3
	c0.9-0.8,1.9-1.6,1.9-2.8c0-0.7-0.3-1.3-0.9-1.3s-1,0.6-1.1,1.3V28.4z"/>
<path d="M284.2,34.5c0,1.4-1.1,2.4-2.1,3c-0.7,0.4-1.5,0.7-2.3,0.7c-1.1,0-2.2-0.6-2.2-1.8c0-1.4,1.1-2.4,2.1-3
	c0.7-0.4,1.5-0.7,2.3-0.7C283.2,32.7,284.2,33.2,284.2,34.5z"/>
<path d="M432.9,32c-0.2,0-0.4-0.2-0.4-0.4v-2.9l-1.7,0.6v3.1c0,0.2-0.2,0.4-0.4,0.4s-0.4-0.2-0.4-0.4v-2.9l-0.6,0.2h-0.1
	c-0.2,0-0.4-0.2-0.4-0.4v-1.2c0-0.2,0.1-0.3,0.3-0.4l0.9-0.3v-3.2l-0.6,0.2h-0.1c-0.2,0-0.4-0.2-0.4-0.4v-1.2c0-0.2,0.1-0.3,0.3-0.4
	l0.9-0.3V19c0-0.2,0.2-0.4,0.4-0.4s0.4,0.2,0.4,0.4v2.9l1.7-0.6v-3.1c0-0.2,0.2-0.4,0.4-0.4s0.4,0.2,0.4,0.4v2.9l0.6-0.2h0.1
	c0.2,0,0.4,0.2,0.4,0.4v1.2c0,0.2-0.1,0.3-0.3,0.4l-0.9,0.3v3.2l0.6-0.2h0.1c0.2,0,0.4,0.2,0.4,0.4v1.2c0,0.2-0.1,0.3-0.3,0.4
	l-0.9,0.3v3.1C433.3,31.9,433.1,32,432.9,32z M430.9,27.3l1.7-0.6v-3.2l-1.7,0.6V27.3z"/>
<path d="M477.3,27c0,1.4-1.1,2.4-2.1,3c-0.7,0.4-1.5,0.7-2.3,0.7c-1.1,0-2.2-0.6-2.2-1.8c0-1.4,1.1-2.4,2.1-3
	c0.7-0.4,1.5-0.7,2.3-0.7C476.3,25.2,477.3,25.8,477.3,27z"/>
<path d="M477.3,22c0,1.4-1.1,2.4-2.1,3c-0.7,0.4-1.5,0.7-2.3,0.7c-1.1,0-2.2-0.6-2.2-1.8c0-1.4,1.1-2.4,2.1-3
	c0.7-0.4,1.5-0.7,2.3-0.7C476.3,20.2,477.3,20.8,477.3,22z"/>
<path d="M477.3,17c0,1.4-1.1,2.4-2.1,3c-0.7,0.4-1.5,0.7-2.3,0.7c-1.1,0-2.2-0.6-2.2-1.8c0-1.4,1.1-2.4,2.1-3
	c0.7-0.4,1.5-0.7,2.3-0.7C476.3,15.2,477.3,15.8,477.3,17z"/>
<path d="M471.2,44.5H471c-0.1,0-0.2-0.1-0.2-0.2V19.1c0-0.1,0.1-0.2,0.2-0.2h0.2c0.1,0,0.2,0.1,0.2,0.2v25.2
	C471.4,44.4,471.3,44.5,471.2,44.5z"/>
<rect x="471" y="19.1" width="0.2" height="25.2"/>
<path d="M400.2,29.5c0,1.4-1.1,2.4-2.1,3c-0.7,0.4-1.5,0.7-2.3,0.7c-1.1,0-2.2-0.6-2.2-1.8c0-1.4,1.1-2.4,2.1-3
	c0.7-0.4,1.5-0.7,2.3-0.7C399.1,27.7,400.2,28.3,400.2,29.5z"/>
<path d="M400.2,24.5c0,1.4-1.1,2.4-2.1,3c-0.7,0.4-1.5,0.7-2.3,0.7c-1.1,0-2.2-0.6-2.2-1.8c0-1.4,1.1-2.4,2.1-3
	c0.7-0.4,1.5-0.7,2.3-0.7C399.1,22.7,400.2,23.3,400.2,24.5z"/>
<path d="M400.2,19.5c0,1.4-1.1,2.4-2.1,3c-0.7,0.4-1.5,0.7-2.3,0.7c-1.1,0-2.2-0.6-2.2-1.8c0-1.4,1.1-2.4,2.1-3
	c0.7-0.4,1.5-0.7,2.3-0.7C399.1,17.7,400.2,18.3,400.2,19.5z"/>
<path d="M394,46.2h-0.2c-0.1,0-0.2-0.1-0.2-0.2V21.6c0-0.1,0.1-0.2,0.2-0.2h0.2c0.1,0,0.2,0.1,0.2,0.2V46
	C394.2,46.1,394.1,46.2,394,46.2z"/>
<rect x="393.8" y="21.6" width="0.2" height="24.4"/>
<path d="M387.4,11.4c0.2-0.1,0.4-0.2,0.5-0.2s0.4,0.1,0.5,0.2l-0.1,6.9c0.5-0.4,1.2-0.7,1.8-0.7c1,0,1.8,1,1.8,2
	c0,1.6-1.7,2.3-2.9,3.4c-0.3,0.3-0.5,0.8-0.9,0.8c-0.3,0-0.5-0.2-0.5-0.5L387.4,11.4z M388.4,21v0.2c0,0.4,0,0.9,0.1,1.3
	c0.9-0.8,1.9-1.6,1.9-2.8c0-0.7-0.3-1.3-0.9-1.3s-1,0.6-1.1,1.3V21z"/>
<path d="M442.8,29.5c0,1.4-1.1,2.4-2.1,3c-0.7,0.4-1.5,0.7-2.3,0.7c-1.1,0-2.2-0.6-2.2-1.8c0-1.4,1.1-2.4,2.1-3
	c0.7-0.4,1.5-0.7,2.3-0.7C441.7,27.7,442.8,28.3,442.8,29.5z"/>
<path d="M442.8,24.5c0,1.4-1.1,2.4-2.1,3c-0.7,0.4-1.5,0.7-2.3,0.7c-1.1,0-2.2-0.6-2.2-1.8c0-1.4,1.1-2.4,2.1-3
	c0.7-0.4,1.5-0.7,2.3-0.7C441.7,22.7,442.8,23.3,442.8,24.5z"/>
<path d="M442.8,19.5c0,1.4-1.1,2.4-2.1,3c-0.7,0.4-1.5,0.7-2.3,0.7c-1.1,0-2.2-0.6-2.2-1.8c0-1.4,1.1-2.4,2.1-3
	c0.7-0.4,1.5-0.7,2.3-0.7C441.7,17.7,442.8,18.3,442.8,19.5z"/>
<path d="M436.6,46.2h-0.2c-0.1,0-0.2-0.1-0.2-0.2V21.6c0-0.1,0.1-0.2,0.2-0.2h0.2c0.1,0,0.2,0.1,0.2,0.2V46
	C436.8,46.1,436.7,46.2,436.6,46.2z"/>
<rect x="436.4" y="21.6" width="0.2" height="24.4"/>
<path d="M426.5,37c-0.2,0-0.4-0.2-0.4-0.4v-2.9l-1.7,0.6v3.1c0,0.2-0.2,0.4-0.4,0.4s-0.4-0.2-0.4-0.4v-2.9l-0.6,0.2h-0.1
	c-0.2,0-0.4-0.2-0.4-0.4v-1.2c0-0.2,0.1-0.3,0.3-0.4l0.9-0.3v-3.2l-0.6,0.2H423c-0.2,0-0.4-0.2-0.4-0.4v-1.2c0-0.2,0.1-0.3,0.3-0.4
	l0.9-0.3V24c0-0.2,0.2-0.4,0.4-0.4s0.4,0.2,0.4,0.4v2.9l1.7-0.6v-3.1c0-0.2,0.2-0.4,0.4-0.4s0.4,0.2,0.4,0.4v2.9l0.6-0.2h0.1
	c0.2,0,0.4,0.2,0.4,0.4v1.2c0,0.2-0.1,0.3-0.3,0.4l-0.9,0.3v3.2l0.6-0.2h0.1c0.2,0,0.4,0.2,0.4,0.4v1.2c0,0.2-0.1,0.3-0.3,0.4
	l-0.9,0.3v3.1C426.8,36.8,426.7,37,426.5,37z M424.4,32.3l1.7-0.6v-3.2l-1.7,0.6V32.3z"/>
<path d="M67,49.5c-0.2,0-0.4-0.2-0.4-0.4v-2.9L65,46.8V50c0,0.2-0.2,0.4-0.4,0.4s-0.4-0.2-0.4-0.4v-2.9l-0.6,0.2h-0.1
	c-0.2,0-0.4-0.2-0.4-0.4v-1.2c0-0.2,0.1-0.3,0.3-0.4l0.9-0.3v-3.2L63.7,42h-0.1c-0.2,0-0.4-0.2-0.4-0.4v-1.2c0-0.2,0.1-0.3,0.3-0.4
	l0.9-0.3v-3.1c0-0.2,0.2-0.4,0.4-0.4s0.4,0.2,0.4,0.4v2.9l1.7-0.6v-3.1c0-0.2,0.2-0.4,0.4-0.4s0.4,0.2,0.4,0.4v2.9l0.6-0.2h0.1
	c0.2,0,0.4,0.2,0.4,0.4V40c0,0.2-0.1,0.3-0.3,0.4l-0.9,0.3v3.2l0.6-0.2h0.1c0.2,0,0.4,0.2,0.4,0.4v1.2c0,0.2-0.1,0.3-0.3,0.4
	L67.5,46v3.1C67.3,49.3,67.2,49.5,67,49.5z M65,44.8l1.7-0.6V41L65,41.6V44.8z"/>
<path d="M114.9,39.4c0,1.4-1.1,2.4-2.1,3c-0.7,0.4-1.5,0.7-2.3,0.7c-1.1,0-2.2-0.6-2.2-1.8c0-1.4,1.1-2.4,2.1-3
	c0.7-0.4,1.5-0.7,2.3-0.7C113.8,37.6,114.9,38.2,114.9,39.4z"/>
<path d="M114.9,34.5c0,1.4-1.1,2.4-2.1,3c-0.7,0.4-1.5,0.7-2.3,0.7c-1.1,0-2.2-0.6-2.2-1.8c0-1.4,1.1-2.4,2.1-3
	c0.7-0.4,1.5-0.7,2.3-0.7C113.8,32.7,114.9,33.2,114.9,34.5z"/>
<path d="M114.9,29.5c0,1.4-1.1,2.4-2.1,3c-0.7,0.4-1.5,0.7-2.3,0.7c-1.1,0-2.2-0.6-2.2-1.8c0-1.4,1.1-2.4,2.1-3
	c0.7-0.4,1.5-0.7,2.3-0.7C113.8,27.7,114.9,28.3,114.9,29.5z"/>
<path d="M114.6,39.5h-0.2c-0.1,0-0.2-0.1-0.2-0.2V13.2c0-0.1,0.1-0.2,0.2-0.2h0.2c0.1,0,0.2,0.1,0.2,0.2v26.1
	C114.8,39.4,114.7,39.5,114.6,39.5z"/>
<rect x="114.4" y="13.2" width="0.2" height="26.1"/>
<path d="M102.1,21.3c0.2-0.1,0.4-0.2,0.5-0.2s0.4,0.1,0.5,0.2l-0.1,6.9c0.5-0.4,1.2-0.7,1.8-0.7c1,0,1.8,1,1.8,2
	c0,1.6-1.7,2.3-2.9,3.4c-0.3,0.3-0.5,0.8-0.9,0.8c-0.3,0-0.5-0.2-0.5-0.5L102.1,21.3z M103.1,30.9v0.2c0,0.4,0,0.9,0.1,1.3
	c0.9-0.8,1.9-1.6,1.9-2.8c0-0.7-0.3-1.3-0.9-1.3s-1,0.6-1.1,1.3V30.9z"/>
<path d="M159.9,39.4c0,1.4-1.1,2.4-2.1,3c-0.7,0.4-1.5,0.7-2.3,0.7c-1.1,0-2.2-0.6-2.2-1.8c0-1.4,1.1-2.4,2.1-3
	c0.7-0.4,1.5-0.7,2.3-0.7C158.8,37.6,159.9,38.2,159.9,39.4z"/>
<path d="M159.9,34.5c0,1.4-1.1,2.4-2.1,3c-0.7,0.4-1.5,0.7-2.3,0.7c-1.1,0-2.2-0.6-2.2-1.8c0-1.4,1.1-2.4,2.1-3
	c0.7-0.4,1.5-0.7,2.3-0.7C158.8,32.7,159.9,33.2,159.9,34.5z"/>
<path d="M159.9,29.5c0,1.4-1.1,2.4-2.1,3c-0.7,0.4-1.5,0.7-2.3,0.7c-1.1,0-2.2-0.6-2.2-1.8c0-1.4,1.1-2.4,2.1-3
	c0.7-0.4,1.5-0.7,2.3-0.7C158.8,27.7,159.9,28.3,159.9,29.5z"/>
<path d="M38.3,41.9c0,1.4-1.1,2.4-2.1,3c-0.7,0.4-1.5,0.7-2.3,0.7c-1.1,0-2.2-0.6-2.2-1.8c0-1.4,1.1-2.4,2.1-3
	c0.7-0.4,1.5-0.7,2.3-0.7C37.2,40.1,38.3,40.7,38.3,41.9z"/>
<path d="M38.3,37c0,1.4-1.1,2.4-2.1,3c-0.7,0.4-1.5,0.7-2.3,0.7c-1.1,0-2.2-0.6-2.2-1.8c0-1.4,1.1-2.4,2.1-3
	c0.7-0.4,1.5-0.7,2.3-0.7C37.2,35.1,38.3,35.7,38.3,37z"/>
<path d="M38.3,32c0,1.4-1.1,2.4-2.1,3c-0.7,0.4-1.5,0.7-2.3,0.7c-1.1,0-2.2-0.6-2.2-1.8c0-1.4,1.1-2.4,2.1-3
	c0.7-0.4,1.5-0.7,2.3-0.7C37.2,30.2,38.3,30.7,38.3,32z"/>
<path d="M12.6,27.7c3.1,0,5.1,2.6,5.1,5.2c0,1.5-0.7,3.1-2.1,4.2c-0.4,0.3-0.9,0.6-1.5,0.7c0.1,0.7,0.1,1.4,0.1,2.1
	c0,0.4,0,0.8,0,1.2c-0.1,2.4-1.8,4.5-4.1,4.5c-2.2,0-3.9-1.8-3.9-3.9c0-1.2,1.1-2.1,2.2-2.1s1.9,0.9,1.9,2.1c0,1-0.9,1.9-1.9,1.9
	c-0.2,0-0.4,0-0.6-0.1c0.5,0.8,1.4,1.3,2.3,1.3c1.9,0,3.1-1.8,3.2-3.8c0-0.4,0-0.7,0-1.1c0-0.6,0-1.2-0.1-1.8
	c-0.6,0.1-1.2,0.2-1.8,0.2c-3.7,0-6.6-3.4-6.6-7.5c0-3.5,2.6-6.1,4.9-8.8c-0.4-1.2-0.7-2.5-0.9-3.8c-0.1-1-0.1-2.1-0.1-3.1
	c0-2.3,1.1-4.5,3-5.8c0.1,0,0.1-0.1,0.2-0.1c0.1,0,0.1,0,0.2,0.1c1.4,1.7,2.7,4.9,2.7,7.1c0,2.8-1.7,5.1-3.6,7.3
	c0.4,1.4,0.8,2.8,1.1,4.1C12.4,27.7,12.5,27.7,12.6,27.7z M11.6,37.3c0.6,0,1.1,0,1.6-0.1c-0.3-2.5-0.7-4.9-1.3-7.3
	c-1.6,0.2-2.5,1.2-2.5,2.4c0,0.9,0.5,1.8,1.6,2.5c0.1,0.1,0.1,0.2,0.1,0.3c0,0.2-0.2,0.4-0.4,0.4c-0.1,0-0.1,0-0.2,0
	c-1.6-0.9-2.3-2.3-2.3-3.7c0-1.8,1.2-3.5,3.2-3.9c-0.3-1.2-0.6-2.3-0.9-3.5c-2.1,2.4-4.2,4.8-4.2,8C6.3,35,8.9,37.3,11.6,37.3z
	 M9.8,17.3c0,1.5,0.4,2.7,0.7,3.9c1.6-1.9,2.9-3.9,2.9-6.5c0-1.1-0.1-1.6-0.4-2.6C11,13,9.8,15.1,9.8,17.3z M16.3,33.7
	c0-1.8-1.3-3.6-3.4-3.8c0.5,2.3,0.9,4.6,1.2,7.1C15.4,36.5,16.3,35.1,16.3,33.7z"/>
<path d="M38,42h-0.2c-0.1,0-0.2-0.1-0.2-0.2V15.7c0-0.1,0.1-0.2,0.2-0.2H38c0.1,0,0.2,0.1,0.2,0.2v26.1C38.2,41.9,38.1,42,38,42z"/>
<rect x="37.8" y="15.7" width="0.2" height="26.1"/>
<path d="M20.2,28.8c0.2-0.1,0.4-0.2,0.5-0.2s0.4,0.1,0.5,0.2l-0.1,6.9c0.5-0.4,1.2-0.7,1.8-0.7c1,0,1.8,1,1.8,2
	c0,1.6-1.7,2.3-2.9,3.4c-0.3,0.3-0.5,0.8-0.9,0.8c-0.3,0-0.5-0.2-0.5-0.5L20.2,28.8z M21.2,38.4v0.2c0,0.4,0,0.9,0.1,1.3
	c0.9-0.8,1.9-1.6,1.9-2.8c0-0.7-0.3-1.3-0.9-1.3s-1,0.6-1.1,1.3V38.4z"/>
<path d="M25.5,23.8c0.2-0.1,0.4-0.2,0.5-0.2c0.2,0,0.4,0.1,0.5,0.2l-0.1,6.9c0.5-0.4,1.2-0.7,1.8-0.7c1,0,1.8,1,1.8,2
	c0,1.6-1.7,2.3-2.9,3.4c-0.3,0.3-0.5,0.8-0.9,0.8c-0.3,0-0.5-0.2-0.5-0.5L25.5,23.8z M26.5,33.4v0.2c0,0.4,0,0.9,0.1,1.3
	c0.9-0.8,1.9-1.6,1.9-2.8c0-0.7-0.3-1.3-0.9-1.3s-1,0.6-1.1,1.3V33.4z"/>
<path d="M76.8,41.9c0,1.4-1.1,2.4-2.1,3c-0.7,0.4-1.5,0.7-2.3,0.7c-1.1,0-2.2-0.6-2.2-1.8c0-1.4,1.1-2.4,2.1-3
	c0.7-0.4,1.5-0.7,2.3-0.7C75.8,40.1,76.8,40.7,76.8,41.9z"/>
<path d="M76.8,37c0,1.4-1.1,2.4-2.1,3c-0.7,0.4-1.5,0.7-2.3,0.7c-1.1,0-2.2-0.6-2.2-1.8c0-1.4,1.1-2.4,2.1-3
	c0.7-0.4,1.5-0.7,2.3-0.7C75.8,35.1,76.8,35.7,76.8,37z"/>
<path d="M76.8,32c0,1.4-1.1,2.4-2.1,3c-0.7,0.4-1.5,0.7-2.3,0.7c-1.1,0-2.2-0.6-2.2-1.8c0-1.4,1.1-2.4,2.1-3
	c0.7-0.4,1.5-0.7,2.3-0.7C75.8,30.2,76.8,30.7,76.8,32z"/>
<path d="M76.6,42h-0.2c-0.1,0-0.2-0.1-0.2-0.2V15.7c0-0.1,0.1-0.2,0.2-0.2h0.2c0.1,0,0.2,0.1,0.2,0.2v26.1
	C76.8,41.9,76.7,42,76.6,42z"/>
<rect x="76.4" y="15.7" width="0.2" height="26.1"/>
<path d="M202.6,36.9h-0.2c-0.1,0-0.2-0.1-0.2-0.2V11.5c0-0.1,0.1-0.2,0.2-0.2h0.2c0.1,0,0.2,0.1,0.2,0.2v25.2
	C202.8,36.8,202.7,36.9,202.6,36.9z"/>
<rect x="202.4" y="11.5" width="0.2" height="25.2"/>
<path d="M184.7,23.8c0.2-0.1,0.4-0.2,0.5-0.2s0.4,0.1,0.5,0.2l-0.1,6.9c0.5-0.4,1.2-0.7,1.8-0.7c1,0,1.8,1,1.8,2
	c0,1.6-1.7,2.3-2.9,3.4c-0.3,0.3-0.5,0.8-0.9,0.8c-0.3,0-0.5-0.2-0.5-0.5L184.7,23.8z M185.8,33.4v0.2c0,0.4,0,0.9,0.1,1.3
	c0.9-0.8,1.9-1.6,1.9-2.8c0-0.7-0.3-1.3-0.9-1.3c-0.6,0-1,0.6-1.1,1.3V33.4z"/>
<path d="M190,18.8c0.2-0.1,0.4-0.2,0.5-0.2s0.4,0.1,0.5,0.2l-0.1,6.9c0.5-0.4,1.2-0.7,1.8-0.7c1,0,1.8,1,1.8,2
	c0,1.6-1.7,2.3-2.9,3.4c-0.3,0.3-0.5,0.8-0.9,0.8c-0.3,0-0.5-0.2-0.5-0.5L190,18.8z M191.1,28.4v0.2c0,0.4,0,0.9,0.1,1.3
	c0.9-0.8,1.9-1.6,1.9-2.8c0-0.7-0.3-1.3-0.9-1.3c-0.6,0-1,0.6-1.1,1.3V28.4z"/>
<path d="M245.7,34.5c0,1.4-1.1,2.4-2.1,3c-0.7,0.4-1.5,0.7-2.3,0.7c-1.1,0-2.2-0.6-2.2-1.8c0-1.4,1.1-2.4,2.1-3
	c0.7-0.4,1.5-0.7,2.3-0.7C244.7,32.7,245.7,33.2,245.7,34.5z"/>
<path d="M245.7,29.5c0,1.4-1.1,2.4-2.1,3c-0.7,0.4-1.5,0.7-2.3,0.7c-1.1,0-2.2-0.6-2.2-1.8c0-1.4,1.1-2.4,2.1-3
	c0.7-0.4,1.5-0.7,2.3-0.7C244.7,27.7,245.7,28.3,245.7,29.5z"/>
<path d="M245.7,24.5c0,1.4-1.1,2.4-2.1,3c-0.7,0.4-1.5,0.7-2.3,0.7c-1.1,0-2.2-0.6-2.2-1.8c0-1.4,1.1-2.4,2.1-3
	c0.7-0.4,1.5-0.7,2.3-0.7C244.7,22.7,245.7,23.3,245.7,24.5z"/>
<path d="M245.5,34.5h-0.2c-0.1,0-0.2-0.1-0.2-0.2V9.9c0-0.1,0.1-0.2,0.2-0.2h0.2c0.1,0,0.2,0.1,0.2,0.2v24.4
	C245.7,34.4,245.6,34.5,245.5,34.5z"/>
<rect x="245.3" y="9.9" width="0.2" height="24.4"/>
<path d="M227.6,21.3c0.2-0.1,0.4-0.2,0.5-0.2s0.4,0.1,0.5,0.2l-0.1,6.9c0.5-0.4,1.2-0.7,1.8-0.7c1,0,1.8,1,1.8,2
	c0,1.6-1.7,2.3-2.9,3.4c-0.3,0.3-0.5,0.8-0.9,0.8c-0.3,0-0.5-0.2-0.5-0.5L227.6,21.3z M228.7,30.9v0.2c0,0.4,0,0.9,0.1,1.3
	c0.9-0.8,1.9-1.6,1.9-2.8c0-0.7-0.3-1.3-0.9-1.3c-0.6,0-1,0.6-1.1,1.3V30.9z"/>
<path d="M232.9,16.3c0.2-0.1,0.4-0.2,0.5-0.2s0.4,0.1,0.5,0.2l-0.1,6.9c0.5-0.4,1.2-0.7,1.8-0.7c1,0,1.8,1,1.8,2
	c0,1.6-1.7,2.3-2.9,3.4c-0.3,0.3-0.5,0.8-0.9,0.8c-0.3,0-0.5-0.2-0.5-0.5L232.9,16.3z M234,25.9v0.2c0,0.4,0,0.9,0.1,1.3
	c0.9-0.8,1.9-1.6,1.9-2.8c0-0.7-0.3-1.3-0.9-1.3c-0.6,0-1,0.6-1.1,1.3V25.9z"/>
<path d="M159.7,39.5h-0.2c-0.1,0-0.2-0.1-0.2-0.2V13.2c0-0.1,0.1-0.2,0.2-0.2h0.2c0.1,0,0.2,0.1,0.2,0.2v26.1
	C159.9,39.4,159.8,39.5,159.7,39.5z"/>
<rect x="159.5" y="13.2" width="0.2" height="26.1"/>
<path d="M143.6,47c-0.2,0-0.4-0.2-0.4-0.4v-2.9l-1.7,0.6v3.1c0,0.2-0.2,0.4-0.4,0.4s-0.4-0.2-0.4-0.4v-2.9l-0.6,0.2H140
	c-0.2,0-0.4-0.2-0.4-0.4v-1.2c0-0.2,0.1-0.3,0.3-0.4l0.9-0.3v-3.2l-0.6,0.2h-0.1c-0.2,0-0.4-0.2-0.4-0.4v-1c0-0.2,0.1-0.3,0.3-0.4
	l0.9-0.3v-3.1c0-0.2,0.2-0.4,0.4-0.4s0.4,0.2,0.4,0.4v2.9l1.7-0.6v-3.1c0-0.2,0.2-0.4,0.4-0.4s0.4,0.2,0.4,0.4v2.9l0.6-0.2h0.1
	c0.2,0,0.4,0.2,0.4,0.4v1.2c0,0.2-0.1,0.3-0.3,0.4l-0.9,0.3v3.2l0.6-0.2h0.1c0.2,0,0.4,0.2,0.4,0.4V43c0,0.2-0.1,0.3-0.3,0.4
	l-0.9,0.3v3.1C144,46.8,143.8,47,143.6,47z M141.6,42.3l1.7-0.6v-3.2l-1.7,0.6V42.3z"/>
<path d="M150.1,42c-0.2,0-0.4-0.2-0.4-0.4v-2.9l-1.7,0.6v3.1c0,0.2-0.2,0.4-0.4,0.4s-0.4-0.2-0.4-0.4v-2.9l-0.6,0.2h-0.1
	c-0.2,0-0.4-0.2-0.4-0.4v-1.2c0-0.2,0.1-0.3,0.3-0.4l0.9-0.3v-3.2l-0.6,0.2h-0.1c-0.2,0-0.4-0.2-0.4-0.4v-1c0-0.2,0.1-0.3,0.3-0.4
	l0.9-0.3v-3.1c0-0.2,0.2-0.4,0.4-0.4s0.4,0.2,0.4,0.4v2.9l1.7-0.6v-3.1c0-0.2,0.2-0.4,0.4-0.4s0.4,0.2,0.4,0.4v2.9l0.6-0.2h0.1
	c0.2,0,0.4,0.2,0.4,0.4v1.2c0,0.2-0.1,0.3-0.3,0.4l-0.9,0.3v3.2l0.6-0.2h0.1c0.2,0,0.4,0.2,0.4,0.4V38c0,0.2-0.1,0.3-0.3,0.4
	l-0.9,0.3v3.1C150.4,41.8,150.3,42,150.1,42z M148,37.3l1.7-0.6v-3.2l-1.7,0.6V37.3z"/>
<path d="M202.8,27c0,1.4-1.1,2.4-2.1,3c-0.7,0.4-1.5,0.7-2.3,0.7c-1.1,0-2.2-0.6-2.2-1.8c0-1.4,1.1-2.4,2.1-3
	c0.7-0.4,1.5-0.7,2.3-0.7C201.8,25.2,202.8,25.8,202.8,27z"/>
<path d="M202.8,37c0,1.4-1.1,2.4-2.1,3c-0.7,0.4-1.5,0.7-2.3,0.7c-1.1,0-2.2-0.6-2.2-1.8c0-1.4,1.1-2.4,2.1-3
	c0.7-0.4,1.5-0.7,2.3-0.7C201.8,35.1,202.8,35.7,202.8,37z"/>
<path d="M202.8,32c0,1.4-1.1,2.4-2.1,3c-0.7,0.4-1.5,0.7-2.3,0.7c-1.1,0-2.2-0.6-2.2-1.8c0-1.4,1.1-2.4,2.1-3
	c0.7-0.4,1.5-0.7,2.3-0.7C201.8,30.2,202.8,30.7,202.8,32z"/>
</svg>
