<?xml version="1.0" encoding="utf-8"?>
<!-- Generator: Adobe Illustrator 21.1.0, SVG Export Plug-In . SVG Version: 6.00 Build 0)  -->
<svg version="1.1" id="Ebene_1" xmlns="http://www.w3.org/2000/svg" xmlns:xlink="http://www.w3.org/1999/xlink" x="0px" y="0px"
	 viewBox="0 0 500 60" style="enable-background:new 0 0 500 60;" xml:space="preserve">
<rect x="179" y="18" width="0.9" height="19.9"/>
<rect x="416.2" y="18" width="0.9" height="19.9"/>
<rect x="305.4" y="18" width="0.9" height="19.9"/>
<rect x="58.1" y="18" width="0.9" height="19.9"/>
<rect x="453.1" y="18" width="0.9" height="19.9"/>
<rect x="340.6" y="18" width="0.9" height="19.9"/>
<rect x="99" y="18" width="0.9" height="19.9"/>
<rect x="218" y="18" width="0.9" height="19.9"/>
<rect x="138" y="18" width="0.9" height="19.9"/>
<rect x="379.1" y="18" width="0.9" height="19.9"/>
<rect x="496" y="18" width="0.9" height="19.9"/>
<rect x="254.7" y="18" width="0.9" height="19.9"/>
<path d="M37.5,43.4h-8.9c-0.3,0-0.5-0.2-0.5-0.5s0.2-0.5,0.5-0.5h8.9c0.3,0,0.5,0.2,0.5,0.5S37.8,43.4,37.5,43.4z"/>
<path d="M496.7,38.1H1.1c-0.1,0-0.2-0.1-0.2-0.2s0.1-0.2,0.2-0.2h495.6c0.1,0,0.2,0.1,0.2,0.2S496.8,38.1,496.7,38.1z"/>
<path d="M496.7,33.1H1.1c-0.1,0-0.2-0.1-0.2-0.2s0.1-0.2,0.2-0.2h495.6c0.1,0,0.2,0.1,0.2,0.2S496.8,33.1,496.7,33.1z"/>
<path d="M496.7,28.1H1.1c-0.1,0-0.2-0.1-0.2-0.2s0.1-0.2,0.2-0.2h495.6c0.1,0,0.2,0.1,0.2,0.2S496.8,28.1,496.7,28.1z"/>
<path d="M496.7,23.2H1.1c-0.1,0-0.2-0.1-0.2-0.2s0.1-0.2,0.2-0.2h495.6c0.1,0,0.2,0.1,0.2,0.2S496.8,23.2,496.7,23.2z"/>
<path d="M496.7,18.2H1.1c-0.1,0-0.2-0.1-0.2-0.2s0.1-0.2,0.2-0.2h495.6c0.1,0,0.2,0.1,0.2,0.2S496.8,18.2,496.7,18.2z"/>
<path d="M396.9,24.5c0,1.4-1.1,2.4-2.1,3c-0.7,0.4-1.5,0.7-2.3,0.7c-1.1,0-2.2-0.6-2.2-1.8c0-1.4,1.1-2.4,2.1-3
	c0.7-0.4,1.5-0.7,2.3-0.7C395.8,22.7,396.9,23.3,396.9,24.5z"/>
<path d="M396.9,29.5c0,1.4-1.1,2.4-2.1,3c-0.7,0.4-1.5,0.7-2.3,0.7c-1.1,0-2.2-0.6-2.2-1.8c0-1.4,1.1-2.4,2.1-3
	c0.7-0.4,1.5-0.7,2.3-0.7C395.8,27.7,396.9,28.3,396.9,29.5z"/>
<path d="M359.8,29.5c0,1.4-1.1,2.4-2.1,3c-0.7,0.4-1.5,0.7-2.3,0.7c-1.1,0-2.2-0.6-2.2-1.8c0-1.4,1.1-2.4,2.1-3
	c0.7-0.4,1.5-0.7,2.3-0.7C358.7,27.7,359.8,28.3,359.8,29.5z"/>
<path d="M359.8,24.5c0,1.4-1.1,2.4-2.1,3c-0.7,0.4-1.5,0.7-2.3,0.7c-1.1,0-2.2-0.6-2.2-1.8c0-1.4,1.1-2.4,2.1-3
	c0.7-0.4,1.5-0.7,2.3-0.7C358.7,22.7,359.8,23.3,359.8,24.5z"/>
<path d="M359.8,19.5c0,1.4-1.1,2.4-2.1,3c-0.7,0.4-1.5,0.7-2.3,0.7c-1.1,0-2.2-0.6-2.2-1.8c0-1.4,1.1-2.4,2.1-3
	c0.7-0.4,1.5-0.7,2.3-0.7C358.7,17.7,359.8,18.3,359.8,19.5z"/>
<path d="M353.6,46.2h-0.2c-0.1,0-0.2-0.1-0.2-0.2V21.6c0-0.1,0.1-0.2,0.2-0.2h0.2c0.1,0,0.2,0.1,0.2,0.2V46
	C353.8,46.1,353.7,46.2,353.6,46.2z"/>
<rect x="353.4" y="21.6" width="0.2" height="24.4"/>
<path d="M344.1,21.3c0.2-0.1,0.4-0.2,0.5-0.2s0.4,0.1,0.5,0.2l-0.1,6.9c0.5-0.4,1.2-0.7,1.8-0.7c1,0,1.8,1,1.8,2
	c0,1.6-1.7,2.3-2.9,3.4c-0.3,0.3-0.5,0.8-0.9,0.8c-0.3,0-0.5-0.2-0.5-0.5L344.1,21.3z M345.2,30.9v0.2c0,0.4,0,0.9,0.1,1.3
	c0.9-0.8,1.9-1.6,1.9-2.8c0-0.7-0.3-1.3-0.9-1.3s-1,0.6-1.1,1.3V30.9z"/>
<path d="M346.9,11.4c0.2-0.1,0.4-0.2,0.5-0.2s0.4,0.1,0.5,0.2l-0.1,6.9c0.5-0.4,1.2-0.7,1.8-0.7c1,0,1.8,1,1.8,2
	c0,1.6-1.7,2.3-2.9,3.4c-0.3,0.3-0.5,0.8-0.9,0.8c-0.3,0-0.5-0.2-0.5-0.5L346.9,11.4z M348,21v0.2c0,0.4,0,0.9,0.1,1.3
	c0.9-0.8,1.9-1.6,1.9-2.8c0-0.7-0.3-1.3-0.9-1.3s-1,0.6-1.1,1.3V21z"/>
<path d="M283.7,29.5c0,1.4-1.1,2.4-2.1,3c-0.7,0.4-1.5,0.7-2.3,0.7c-1.1,0-2.2-0.6-2.2-1.8c0-1.4,1.1-2.4,2.1-3
	c0.7-0.4,1.5-0.7,2.3-0.7C282.6,27.7,283.7,28.3,283.7,29.5z"/>
<path d="M283.7,24.5c0,1.4-1.1,2.4-2.1,3c-0.7,0.4-1.5,0.7-2.3,0.7c-1.1,0-2.2-0.6-2.2-1.8c0-1.4,1.1-2.4,2.1-3
	c0.7-0.4,1.5-0.7,2.3-0.7C282.6,22.7,283.7,23.3,283.7,24.5z"/>
<path d="M283.4,34.5h-0.2c-0.1,0-0.2-0.1-0.2-0.2V9.9c0-0.1,0.1-0.2,0.2-0.2h0.2c0.1,0,0.2,0.1,0.2,0.2v24.4
	C283.6,34.4,283.5,34.5,283.4,34.5z"/>
<rect x="283.2" y="9.9" width="0.2" height="24.4"/>
<path d="M268.6,42c-0.2,0-0.4-0.2-0.4-0.4v-2.9l-1.7,0.6v3.1c0,0.2-0.2,0.4-0.4,0.4s-0.4-0.2-0.4-0.4v-2.9l-0.6,0.2H265
	c-0.2,0-0.4-0.2-0.4-0.4v-1.2c0-0.2,0.1-0.3,0.3-0.4l0.9-0.3v-3.2l-0.6,0.2h-0.1c-0.2,0-0.4-0.2-0.4-0.4v-1c0-0.2,0.1-0.3,0.3-0.4
	l0.9-0.3v-3.1c0-0.2,0.2-0.4,0.4-0.4s0.4,0.2,0.4,0.4v2.9l1.7-0.6v-3.1c0-0.2,0.2-0.4,0.4-0.4s0.4,0.2,0.4,0.4v2.9l0.6-0.2h0.1
	c0.2,0,0.4,0.2,0.4,0.4v1.2c0,0.2-0.1,0.3-0.3,0.4l-0.9,0.3v3.2l0.6-0.2h0.1c0.2,0,0.4,0.2,0.4,0.4V38c0,0.2-0.1,0.3-0.3,0.4
	l-0.9,0.3v3.1C268.9,41.8,268.8,42,268.6,42z M266.5,37.3l1.7-0.6v-3.2l-1.7,0.6V37.3z"/>
<path d="M262.1,37c-0.2,0-0.4-0.2-0.4-0.4v-2.9l-1.7,0.6v3.1c0,0.2-0.2,0.4-0.4,0.4s-0.4-0.2-0.4-0.4v-2.9l-0.6,0.2h-0.1
	c-0.2,0-0.4-0.2-0.4-0.4v-1.2c0-0.2,0.1-0.3,0.3-0.4l0.9-0.3v-3.2l-0.6,0.2h-0.1c-0.2,0-0.4-0.2-0.4-0.4v-1.2c0-0.2,0.1-0.3,0.3-0.4
	l0.9-0.3V24c0-0.2,0.2-0.4,0.4-0.4s0.4,0.2,0.4,0.4v2.9l1.7-0.6v-3.1c0-0.2,0.2-0.4,0.4-0.4s0.4,0.2,0.4,0.4v2.9l0.6-0.2h0.1
	c0.2,0,0.4,0.2,0.4,0.4v1.2c0,0.2-0.1,0.3-0.3,0.4l-0.9,0.3v3.2l0.6-0.2h0.1c0.2,0,0.4,0.2,0.4,0.4v1.2c0,0.2-0.1,0.3-0.3,0.4
	l-0.9,0.3v3.1C262.4,36.8,262.3,37,262.1,37z M260,32.3l1.7-0.6v-3.2l-1.7,0.6V32.3z"/>
<path d="M273.9,32c-0.2,0-0.4-0.2-0.4-0.4v-2.9l-1.7,0.6v3.1c0,0.2-0.2,0.4-0.4,0.4s-0.4-0.2-0.4-0.4v-2.9l-0.6,0.2h-0.1
	c-0.2,0-0.4-0.2-0.4-0.4v-1.2c0-0.2,0.1-0.3,0.3-0.4l0.9-0.3v-3.2l-0.6,0.2h-0.1c-0.2,0-0.4-0.2-0.4-0.4v-1.2c0-0.2,0.1-0.3,0.3-0.4
	l0.9-0.3V19c0-0.2,0.2-0.4,0.4-0.4s0.4,0.2,0.4,0.4v2.9l1.7-0.6v-3.1c0-0.2,0.2-0.4,0.4-0.4s0.4,0.2,0.4,0.4v2.9l0.6-0.2h0.1
	c0.2,0,0.4,0.2,0.4,0.4v1.2c0,0.2-0.1,0.3-0.3,0.4l-0.9,0.3v3.2l0.6-0.2h0.1c0.2,0,0.4,0.2,0.4,0.4v1.2c0,0.2-0.1,0.3-0.3,0.4
	l-0.9,0.3v3.1C274.2,31.9,274.1,32,273.9,32z M271.8,27.3l1.7-0.6v-3.2l-1.7,0.6V27.3z"/>
<path d="M321.1,32c0,1.4-1.1,2.4-2.1,3c-0.7,0.4-1.5,0.7-2.3,0.7c-1.1,0-2.2-0.6-2.2-1.8c0-1.4,1.1-2.4,2.1-3
	c0.7-0.4,1.5-0.7,2.3-0.7C320,30.2,321.1,30.7,321.1,32z"/>
<path d="M321.1,27c0,1.4-1.1,2.4-2.1,3c-0.7,0.4-1.5,0.7-2.3,0.7c-1.1,0-2.2-0.6-2.2-1.8c0-1.4,1.1-2.4,2.1-3
	c0.7-0.4,1.5-0.7,2.3-0.7C320,25.2,321.1,25.8,321.1,27z"/>
<path d="M321.1,22c0,1.4-1.1,2.4-2.1,3c-0.7,0.4-1.5,0.7-2.3,0.7c-1.1,0-2.2-0.6-2.2-1.8c0-1.4,1.1-2.4,2.1-3
	c0.7-0.4,1.5-0.7,2.3-0.7C320,20.2,321.1,20.8,321.1,22z"/>
<path d="M314.9,47.9h-0.2c-0.1,0-0.2-0.1-0.2-0.2V24.1c0-0.1,0.1-0.2,0.2-0.2h0.2c0.1,0,0.2,0.1,0.2,0.2v23.6
	C315.1,47.8,315,47.9,314.9,47.9z"/>
<rect x="314.7" y="24.1" width="0.2" height="23.6"/>
<path d="M476.8,27c0,1.4-1.1,2.4-2.1,3c-0.7,0.4-1.5,0.7-2.3,0.7c-1.1,0-2.2-0.6-2.2-1.8c0-1.4,1.1-2.4,2.1-3
	c0.7-0.4,1.5-0.7,2.3-0.7C475.7,25.2,476.8,25.8,476.8,27z"/>
<path d="M476.8,22c0,1.4-1.1,2.4-2.1,3c-0.7,0.4-1.5,0.7-2.3,0.7c-1.1,0-2.2-0.6-2.2-1.8c0-1.4,1.1-2.4,2.1-3
	c0.7-0.4,1.5-0.7,2.3-0.7C475.7,20.2,476.8,20.8,476.8,22z"/>
<path d="M476.8,17c0,1.4-1.1,2.4-2.1,3c-0.7,0.4-1.5,0.7-2.3,0.7c-1.1,0-2.2-0.6-2.2-1.8c0-1.4,1.1-2.4,2.1-3
	c0.7-0.4,1.5-0.7,2.3-0.7C475.7,15.2,476.8,15.8,476.8,17z"/>
<path d="M470.6,44.5h-0.2c-0.1,0-0.2-0.1-0.2-0.2V19.1c0-0.1,0.1-0.2,0.2-0.2h0.2c0.1,0,0.2,0.1,0.2,0.2v25.2
	C470.8,44.4,470.7,44.5,470.6,44.5z"/>
<rect x="470.4" y="19.1" width="0.2" height="25.2"/>
<path d="M460.5,29.5c-0.2,0-0.4-0.2-0.4-0.4v-2.9l-1.7,0.6V30c0,0.2-0.2,0.4-0.4,0.4c-0.2,0-0.4-0.2-0.4-0.4v-2.9l-0.6,0.2h-0.1
	c-0.2,0-0.4-0.2-0.4-0.4v-1.2c0-0.2,0.1-0.3,0.3-0.4l0.9-0.3v-3.2l-0.6,0.2H457c-0.2,0-0.4-0.2-0.4-0.4v-1.2c0-0.2,0.1-0.3,0.3-0.4
	l0.9-0.3v-3.1c0-0.2,0.2-0.4,0.4-0.4c0.2,0,0.4,0.2,0.4,0.4v2.9l1.7-0.6v-3.1c0-0.2,0.2-0.4,0.4-0.4s0.4,0.2,0.4,0.4v2.9l0.6-0.2
	h0.1c0.2,0,0.4,0.2,0.4,0.4v1.2c0,0.2-0.1,0.3-0.3,0.4l-0.9,0.3V24l0.6-0.2h0.1c0.2,0,0.4,0.2,0.4,0.4v1.2c0,0.2-0.1,0.3-0.3,0.4
	l-0.9,0.3v3.1C460.9,29.4,460.7,29.5,460.5,29.5z M458.5,24.8l1.7-0.6V21l-1.7,0.6V24.8z"/>
<path d="M467,24.6c-0.2,0-0.4-0.2-0.4-0.4v-2.9l-1.7,0.6V25c0,0.2-0.2,0.4-0.4,0.4c-0.2,0-0.4-0.2-0.4-0.4v-2.9l-0.6,0.2h-0.1
	c-0.2,0-0.4-0.2-0.4-0.4v-1.2c0-0.2,0.1-0.3,0.3-0.4l0.9-0.3v-3l-0.6,0.2h-0.1c-0.2,0-0.4-0.2-0.4-0.4v-1.2c0-0.2,0.1-0.3,0.3-0.4
	l0.9-0.3v-3.1c0-0.2,0.2-0.4,0.4-0.4c0.2,0,0.4,0.2,0.4,0.4v2.9l1.7-0.6V11c0-0.2,0.2-0.4,0.4-0.4s0.4,0.2,0.4,0.4v2.9l0.6-0.2h0.1
	c0.2,0,0.4,0.2,0.4,0.4v1.2c0,0.2-0.1,0.3-0.3,0.4l-0.9,0.3v3l0.6-0.2h0.1c0.2,0,0.4,0.2,0.4,0.4v1.2c0,0.2-0.1,0.3-0.3,0.4
	l-0.9,0.3v3.1C467.3,24.4,467.2,24.6,467,24.6z M464.9,19.9l1.7-0.6v-3.2l-1.7,0.6V19.9z"/>
<path d="M396.9,19.5c0,1.4-1.1,2.4-2.1,3c-0.7,0.4-1.5,0.7-2.3,0.7c-1.1,0-2.2-0.6-2.2-1.8c0-1.4,1.1-2.4,2.1-3
	c0.7-0.4,1.5-0.7,2.3-0.7C395.8,17.7,396.9,18.3,396.9,19.5z"/>
<path d="M390.7,46.2h-0.2c-0.1,0-0.2-0.1-0.2-0.2V21.6c0-0.1,0.1-0.2,0.2-0.2h0.2c0.1,0,0.2,0.1,0.2,0.2V46
	C390.9,46.1,390.8,46.2,390.7,46.2z"/>
<rect x="390.5" y="21.6" width="0.2" height="24.4"/>
<path d="M387,32c-0.2,0-0.4-0.2-0.4-0.4v-2.9l-1.7,0.6v3.1c0,0.2-0.2,0.4-0.4,0.4s-0.4-0.2-0.4-0.4v-2.9l-0.6,0.2h-0.1
	c-0.2,0-0.4-0.2-0.4-0.4v-1.2c0-0.2,0.1-0.3,0.3-0.4l0.9-0.3v-3.2l-0.6,0.2h-0.1c-0.2,0-0.4-0.2-0.4-0.4v-1.2c0-0.2,0.1-0.3,0.3-0.4
	l0.9-0.3V19c0-0.2,0.2-0.4,0.4-0.4s0.4,0.2,0.4,0.4v2.9l1.7-0.6v-3.1c0-0.2,0.2-0.4,0.4-0.4s0.4,0.2,0.4,0.4v2.9L388,21h0.1
	c0.2,0,0.4,0.2,0.4,0.4v1.2c0,0.2-0.1,0.3-0.3,0.4l-0.9,0.3v3.2l0.6-0.2h0.1c0.2,0,0.4,0.2,0.4,0.4v1.2c0,0.2-0.1,0.3-0.3,0.4
	l-0.9,0.3v3.1C387.4,31.9,387.2,32,387,32z M385,27.3l1.7-0.6v-3.2l-1.7,0.6V27.3z"/>
<path d="M433.8,27c0,1.4-1.1,2.4-2.1,3c-0.7,0.4-1.5,0.7-2.3,0.7c-1.1,0-2.2-0.6-2.2-1.8c0-1.4,1.1-2.4,2.1-3
	c0.7-0.4,1.5-0.7,2.3-0.7C432.7,25.2,433.8,25.8,433.8,27z"/>
<path d="M433.8,22c0,1.4-1.1,2.4-2.1,3c-0.7,0.4-1.5,0.7-2.3,0.7c-1.1,0-2.2-0.6-2.2-1.8c0-1.4,1.1-2.4,2.1-3
	c0.7-0.4,1.5-0.7,2.3-0.7C432.7,20.2,433.8,20.8,433.8,22z"/>
<path d="M433.8,17c0,1.4-1.1,2.4-2.1,3c-0.7,0.4-1.5,0.7-2.3,0.7c-1.1,0-2.2-0.6-2.2-1.8c0-1.4,1.1-2.4,2.1-3
	c0.7-0.4,1.5-0.7,2.3-0.7C432.7,15.2,433.8,15.8,433.8,17z"/>
<path d="M427.6,44.5h-0.2c-0.1,0-0.2-0.1-0.2-0.2V19.1c0-0.1,0.1-0.2,0.2-0.2h0.2c0.1,0,0.2,0.1,0.2,0.2v25.2
	C427.8,44.4,427.7,44.5,427.6,44.5z"/>
<rect x="427.4" y="19.1" width="0.2" height="25.2"/>
<path d="M421,18.8c0.2-0.1,0.4-0.2,0.5-0.2s0.4,0.1,0.5,0.2l-0.1,6.9c0.5-0.4,1.2-0.7,1.8-0.7c1,0,1.8,1,1.8,2
	c0,1.6-1.7,2.3-2.9,3.4c-0.3,0.3-0.5,0.8-0.9,0.8c-0.3,0-0.5-0.2-0.5-0.5L421,18.8z M422,28.4v0.2c0,0.4,0,0.9,0.1,1.3
	c0.9-0.8,1.9-1.6,1.9-2.8c0-0.7-0.3-1.3-0.9-1.3s-1,0.6-1.1,1.3V28.4z"/>
<path d="M64.4,21.3c0.2-0.1,0.4-0.2,0.5-0.2s0.4,0.1,0.5,0.2l-0.1,6.9c0.5-0.4,1.2-0.7,1.8-0.7c1,0,1.8,1,1.8,2
	c0,1.6-1.7,2.3-2.9,3.4c-0.3,0.3-0.5,0.8-0.9,0.8c-0.3,0-0.5-0.2-0.5-0.5L64.4,21.3z M65.5,30.9v0.2c0,0.4,0,0.9,0.1,1.3
	c0.9-0.8,1.9-1.6,1.9-2.8c0-0.7-0.3-1.3-0.9-1.3s-1,0.6-1.1,1.3V30.9z"/>
<path d="M116.3,39.4c0,1.4-1.1,2.4-2.1,3c-0.7,0.4-1.5,0.7-2.3,0.7c-1.1,0-2.2-0.6-2.2-1.8c0-1.4,1.1-2.4,2.1-3
	c0.7-0.4,1.5-0.7,2.3-0.7C115.2,37.6,116.3,38.2,116.3,39.4z"/>
<path d="M116.3,34.5c0,1.4-1.1,2.4-2.1,3c-0.7,0.4-1.5,0.7-2.3,0.7c-1.1,0-2.2-0.6-2.2-1.8c0-1.4,1.1-2.4,2.1-3
	c0.7-0.4,1.5-0.7,2.3-0.7C115.2,32.7,116.3,33.2,116.3,34.5z"/>
<path d="M116.3,29.5c0,1.4-1.1,2.4-2.1,3c-0.7,0.4-1.5,0.7-2.3,0.7c-1.1,0-2.2-0.6-2.2-1.8c0-1.4,1.1-2.4,2.1-3
	c0.7-0.4,1.5-0.7,2.3-0.7C115.2,27.7,116.3,28.3,116.3,29.5z"/>
<path d="M116,39.5h-0.2c-0.1,0-0.2-0.1-0.2-0.2V13.2c0-0.1,0.1-0.2,0.2-0.2h0.2c0.1,0,0.2,0.1,0.2,0.2v26.1
	C116.2,39.4,116.1,39.5,116,39.5z"/>
<rect x="115.8" y="13.2" width="0.2" height="26.1"/>
<path d="M106.4,42c-0.2,0-0.4-0.2-0.4-0.4v-2.9l-1.7,0.6v3.1c0,0.2-0.2,0.4-0.4,0.4s-0.4-0.2-0.4-0.4v-2.9l-0.6,0.2h-0.1
	c-0.2,0-0.4-0.2-0.4-0.4v-1.2c0-0.2,0.1-0.3,0.3-0.4l0.9-0.3v-3.2l-0.6,0.2h-0.1c-0.2,0-0.4-0.2-0.4-0.4v-1c0-0.2,0.1-0.3,0.3-0.4
	l0.9-0.3v-3.1c0-0.2,0.2-0.4,0.4-0.4s0.4,0.2,0.4,0.4v2.9l1.7-0.6v-3.1c0-0.2,0.2-0.4,0.4-0.4s0.4,0.2,0.4,0.4v2.9l0.6-0.2h0.1
	c0.2,0,0.4,0.2,0.4,0.4v1.2c0,0.2-0.1,0.3-0.3,0.4l-0.9,0.3v3.2l0.6-0.2h0.1c0.2,0,0.4,0.2,0.4,0.4V38c0,0.2-0.1,0.3-0.3,0.4
	l-0.9,0.3v3.1C106.8,41.8,106.6,42,106.4,42z M104.4,37.3l1.7-0.6v-3.2l-1.7,0.6V37.3z"/>
<path d="M157.2,37c0,1.4-1.1,2.4-2.1,3c-0.7,0.4-1.5,0.7-2.3,0.7c-1.1,0-2.2-0.6-2.2-1.8c0-1.4,1.1-2.4,2.1-3
	c0.7-0.4,1.5-0.7,2.3-0.7C156.1,35.1,157.2,35.7,157.2,37z"/>
<path d="M157.2,32c0,1.4-1.1,2.4-2.1,3c-0.7,0.4-1.5,0.7-2.3,0.7c-1.1,0-2.2-0.6-2.2-1.8c0-1.4,1.1-2.4,2.1-3
	c0.7-0.4,1.5-0.7,2.3-0.7C156.1,30.2,157.2,30.7,157.2,32z"/>
<path d="M157.2,27c0,1.4-1.1,2.4-2.1,3c-0.7,0.4-1.5,0.7-2.3,0.7c-1.1,0-2.2-0.6-2.2-1.8c0-1.4,1.1-2.4,2.1-3
	c0.7-0.4,1.5-0.7,2.3-0.7C156.1,25.2,157.2,25.8,157.2,27z"/>
<path d="M36.3,41.9c0,1.4-1.1,2.4-2.1,3c-0.7,0.4-1.5,0.7-2.3,0.7c-1.1,0-2.2-0.6-2.2-1.8c0-1.4,1.1-2.4,2.1-3
	c0.7-0.4,1.5-0.7,2.3-0.7C35.3,40.1,36.3,40.7,36.3,41.9z"/>
<path d="M36.3,37c0,1.4-1.1,2.4-2.1,3c-0.7,0.4-1.5,0.7-2.3,0.7c-1.1,0-2.2-0.6-2.2-1.8c0-1.4,1.1-2.4,2.1-3
	c0.7-0.4,1.5-0.7,2.3-0.7C35.3,35.1,36.3,35.7,36.3,37z"/>
<path d="M36.3,32c0,1.4-1.1,2.4-2.1,3c-0.7,0.4-1.5,0.7-2.3,0.7c-1.1,0-2.2-0.6-2.2-1.8c0-1.4,1.1-2.4,2.1-3
	c0.7-0.4,1.5-0.7,2.3-0.7C35.3,30.2,36.3,30.7,36.3,32z"/>
<path d="M12.6,27.7c3.1,0,5.1,2.6,5.1,5.2c0,1.5-0.7,3.1-2.1,4.2c-0.4,0.3-0.9,0.6-1.5,0.7c0.1,0.7,0.1,1.4,0.1,2.1
	c0,0.4,0,0.8,0,1.2c-0.1,2.4-1.8,4.5-4.1,4.5c-2.2,0-3.9-1.8-3.9-3.9c0-1.2,1.1-2.1,2.2-2.1s1.9,0.9,1.9,2.1c0,1-0.9,1.9-1.9,1.9
	c-0.2,0-0.4,0-0.6-0.1c0.5,0.8,1.4,1.3,2.3,1.3c1.9,0,3.1-1.8,3.2-3.8c0-0.4,0-0.7,0-1.1c0-0.6,0-1.2-0.1-1.8
	c-0.6,0.1-1.2,0.2-1.8,0.2c-3.7,0-6.6-3.4-6.6-7.5c0-3.5,2.6-6.1,4.9-8.8c-0.4-1.2-0.7-2.5-0.9-3.8c-0.1-1-0.1-2.1-0.1-3.1
	c0-2.3,1.1-4.5,3-5.8c0.1,0,0.1-0.1,0.2-0.1c0.1,0,0.1,0,0.2,0.1c1.4,1.7,2.7,4.9,2.7,7.1c0,2.8-1.7,5.1-3.6,7.3
	c0.4,1.4,0.8,2.8,1.1,4.1C12.4,27.7,12.5,27.7,12.6,27.7z M11.6,37.3c0.6,0,1.1,0,1.6-0.1c-0.3-2.5-0.7-4.9-1.3-7.3
	c-1.6,0.2-2.5,1.2-2.5,2.4c0,0.9,0.5,1.8,1.6,2.5c0.1,0.1,0.1,0.2,0.1,0.3c0,0.2-0.2,0.4-0.4,0.4c-0.1,0-0.1,0-0.2,0
	c-1.6-0.9-2.3-2.3-2.3-3.7c0-1.8,1.2-3.5,3.2-3.9c-0.3-1.2-0.6-2.3-0.9-3.5c-2.1,2.4-4.2,4.8-4.2,8C6.3,35,8.9,37.3,11.6,37.3z
	 M9.8,17.3c0,1.5,0.4,2.7,0.7,3.9c1.6-1.9,2.9-3.9,2.9-6.5c0-1.1-0.1-1.6-0.4-2.6C11,13,9.8,15.1,9.8,17.3z M16.3,33.7
	c0-1.8-1.3-3.6-3.4-3.8c0.5,2.3,0.9,4.6,1.2,7.1C15.4,36.5,16.3,35.1,16.3,33.7z"/>
<path d="M36.1,42h-0.2c-0.1,0-0.2-0.1-0.2-0.2V15.7c0-0.1,0.1-0.2,0.2-0.2h0.2c0.1,0,0.2,0.1,0.2,0.2v26.1
	C36.3,41.9,36.2,42,36.1,42z"/>
<rect x="35.9" y="15.7" width="0.2" height="26.1"/>
<path d="M77.2,39.4c0,1.4-1.1,2.4-2.1,3c-0.7,0.4-1.5,0.7-2.3,0.7c-1.1,0-2.2-0.6-2.2-1.8c0-1.4,1.1-2.4,2.1-3
	c0.7-0.4,1.5-0.7,2.3-0.7C76.2,37.6,77.2,38.2,77.2,39.4z"/>
<path d="M77.2,34.5c0,1.4-1.1,2.4-2.1,3c-0.7,0.4-1.5,0.7-2.3,0.7c-1.1,0-2.2-0.6-2.2-1.8c0-1.4,1.1-2.4,2.1-3
	c0.7-0.4,1.5-0.7,2.3-0.7C76.2,32.7,77.2,33.2,77.2,34.5z"/>
<path d="M77.2,29.5c0,1.4-1.1,2.4-2.1,3c-0.7,0.4-1.5,0.7-2.3,0.7c-1.1,0-2.2-0.6-2.2-1.8c0-1.4,1.1-2.4,2.1-3
	c0.7-0.4,1.5-0.7,2.3-0.7C76.2,27.7,77.2,28.3,77.2,29.5z"/>
<path d="M77,39.5h-0.2c-0.1,0-0.2-0.1-0.2-0.2V13.2c0-0.1,0.1-0.2,0.2-0.2H77c0.1,0,0.2,0.1,0.2,0.2v26.1
	C77.2,39.4,77.1,39.5,77,39.5z"/>
<rect x="76.8" y="13.2" width="0.2" height="26.1"/>
<path d="M61.6,31.3c0.2-0.1,0.4-0.2,0.5-0.2s0.4,0.1,0.5,0.2l-0.1,6.9c0.5-0.4,1.2-0.7,1.8-0.7c1,0,1.8,1,1.8,2
	c0,1.6-1.7,2.3-2.9,3.4c-0.3,0.3-0.5,0.8-0.9,0.8c-0.3,0-0.5-0.2-0.5-0.5L61.6,31.3z M62.7,40.9v0.2c0,0.4,0,0.9,0.1,1.3
	c0.9-0.8,1.9-1.6,1.9-2.8c0-0.7-0.3-1.3-0.9-1.3s-1,0.6-1.1,1.3L62.7,40.9z"/>
<path d="M196,36.9h-0.2c-0.1,0-0.2-0.1-0.2-0.2V11.5c0-0.1,0.1-0.2,0.2-0.2h0.2c0.1,0,0.2,0.1,0.2,0.2v25.2
	C196.2,36.8,196.1,36.9,196,36.9z"/>
<rect x="195.8" y="11.5" width="0.2" height="25.2"/>
<path d="M186.4,39.5c-0.2,0-0.4-0.2-0.4-0.4v-2.9l-1.7,0.6V40c0,0.2-0.2,0.4-0.4,0.4s-0.4-0.2-0.4-0.4v-2.9l-0.6,0.2h-0.1
	c-0.2,0-0.4-0.2-0.4-0.4v-1.2c0-0.2,0.1-0.3,0.3-0.4l0.9-0.3v-3.2L183,32h-0.1c-0.2,0-0.4-0.2-0.4-0.4v-1.2c0-0.2,0.1-0.3,0.3-0.4
	l0.9-0.3v-3.1c0-0.2,0.2-0.4,0.4-0.4s0.4,0.2,0.4,0.4v2.9L186,29v-3.1c0-0.2,0.2-0.4,0.4-0.4s0.4,0.2,0.4,0.4v2.9l0.6-0.2h0.1
	c0.2,0,0.4,0.2,0.4,0.4v1c0,0.2-0.1,0.3-0.3,0.4l-0.9,0.3v3.2l0.6-0.2h0.1c0.2,0,0.4,0.2,0.4,0.4v1.2c0,0.2-0.1,0.3-0.3,0.4
	l-0.9,0.3v3.1C186.7,39.3,186.6,39.5,186.4,39.5z M184.3,34.8l1.7-0.6V31l-1.7,0.6V34.8z"/>
<path d="M232.9,34.5c0,1.4-1.1,2.4-2.1,3c-0.7,0.4-1.5,0.7-2.3,0.7c-1.1,0-2.2-0.6-2.2-1.8c0-1.4,1.1-2.4,2.1-3
	c0.7-0.4,1.5-0.7,2.3-0.7C231.9,32.7,232.9,33.2,232.9,34.5z"/>
<path d="M232.9,29.5c0,1.4-1.1,2.4-2.1,3c-0.7,0.4-1.5,0.7-2.3,0.7c-1.1,0-2.2-0.6-2.2-1.8c0-1.4,1.1-2.4,2.1-3
	c0.7-0.4,1.5-0.7,2.3-0.7C231.9,27.7,232.9,28.3,232.9,29.5z"/>
<path d="M232.9,24.5c0,1.4-1.1,2.4-2.1,3c-0.7,0.4-1.5,0.7-2.3,0.7c-1.1,0-2.2-0.6-2.2-1.8c0-1.4,1.1-2.4,2.1-3
	c0.7-0.4,1.5-0.7,2.3-0.7C231.9,22.7,232.9,23.3,232.9,24.5z"/>
<path d="M232.7,34.5h-0.2c-0.1,0-0.2-0.1-0.2-0.2V9.9c0-0.1,0.1-0.2,0.2-0.2h0.2c0.1,0,0.2,0.1,0.2,0.2v24.4
	C232.9,34.4,232.8,34.5,232.7,34.5z"/>
<rect x="232.5" y="9.9" width="0.2" height="24.4"/>
<path d="M283.7,34.5c0,1.4-1.1,2.4-2.1,3c-0.7,0.4-1.5,0.7-2.3,0.7c-1.1,0-2.2-0.6-2.2-1.8c0-1.4,1.1-2.4,2.1-3
	c0.7-0.4,1.5-0.7,2.3-0.7C282.6,32.7,283.7,33.2,283.7,34.5z"/>
<path d="M144.4,18.8c0.2-0.1,0.4-0.2,0.5-0.2s0.4,0.1,0.5,0.2l-0.1,6.9c0.5-0.4,1.2-0.7,1.8-0.7c1,0,1.8,1,1.8,2
	c0,1.6-1.7,2.3-2.9,3.4c-0.3,0.3-0.5,0.8-0.9,0.8c-0.3,0-0.5-0.2-0.5-0.5L144.4,18.8z M145.4,28.4v0.2c0,0.4,0,0.9,0.1,1.3
	c0.9-0.8,1.9-1.6,1.9-2.8c0-0.7-0.3-1.3-0.9-1.3c-0.6,0-1,0.6-1.1,1.3V28.4z"/>
<path d="M141.6,28.8c0.2-0.1,0.4-0.2,0.5-0.2s0.4,0.1,0.5,0.2l-0.1,6.9c0.5-0.4,1.2-0.7,1.8-0.7c1,0,1.8,1,1.8,2
	c0,1.6-1.7,2.3-2.9,3.4c-0.3,0.3-0.5,0.8-0.9,0.8c-0.3,0-0.5-0.2-0.5-0.5L141.6,28.8z M142.6,38.4v0.2c0,0.4,0,0.9,0.1,1.3
	c0.9-0.8,1.9-1.6,1.9-2.8c0-0.7-0.3-1.3-0.9-1.3c-0.6,0-1,0.6-1.1,1.3V38.4z M196.2,37c0,1.4-1.1,2.4-2.1,3
	c-0.7,0.4-1.5,0.7-2.3,0.7c-1.1,0-2.2-0.6-2.2-1.8c0-1.4,1.1-2.4,2.1-3c0.7-0.4,1.5-0.7,2.3-0.7C195.2,35.1,196.2,35.7,196.2,37z"/>
<path d="M196.2,32c0,1.4-1.1,2.4-2.1,3c-0.7,0.4-1.5,0.7-2.3,0.7c-1.1,0-2.2-0.6-2.2-1.8c0-1.4,1.1-2.4,2.1-3
	c0.7-0.4,1.5-0.7,2.3-0.7C195.2,30.2,196.2,30.7,196.2,32z"/>
<path d="M196.2,27c0,1.4-1.1,2.4-2.1,3c-0.7,0.4-1.5,0.7-2.3,0.7c-1.1,0-2.2-0.6-2.2-1.8c0-1.4,1.1-2.4,2.1-3
	c0.7-0.4,1.5-0.7,2.3-0.7C195.2,25.2,196.2,25.8,196.2,27z"/>
<path d="M156.9,36.9h-0.2c-0.1,0-0.2-0.1-0.2-0.2V11.5c0-0.1,0.1-0.2,0.2-0.2h0.2c0.1,0,0.2,0.1,0.2,0.2v25.2
	C157.1,36.8,157,36.9,156.9,36.9z"/>
<rect x="156.7" y="11.5" width="0.2" height="25.2"/>
</svg>
