<?xml version="1.0" encoding="utf-8"?>
<!-- Generator: Adobe Illustrator 21.1.0, SVG Export Plug-In . SVG Version: 6.00 Build 0)  -->
<svg version="1.1" id="Ebene_1" xmlns="http://www.w3.org/2000/svg" xmlns:xlink="http://www.w3.org/1999/xlink" x="0px" y="0px"
	 viewBox="0 0 500 80" style="enable-background:new 0 0 500 80;" xml:space="preserve">
<style type="text/css">
	.st0{fill:none;stroke:#000000;stroke-width:0.9465;stroke-miterlimit:10;}
	.st1{fill:none;stroke:#000000;stroke-width:0.9963;stroke-linecap:round;stroke-miterlimit:10;}
	.st2{fill:none;stroke:#000000;stroke-width:0.4981;stroke-linecap:round;stroke-miterlimit:10;}
	.st3{fill:none;stroke:#000000;stroke-width:0.3985;stroke-linecap:round;stroke-linejoin:round;stroke-miterlimit:10;}
</style>
<line class="st0" x1="179.5" y1="47.9" x2="179.5" y2="28"/>
<line class="st0" x1="416.7" y1="47.9" x2="416.7" y2="28"/>
<line class="st0" x1="305.9" y1="47.9" x2="305.9" y2="28"/>
<line class="st0" x1="58.6" y1="47.9" x2="58.6" y2="28"/>
<line class="st0" x1="453.6" y1="47.9" x2="453.6" y2="28"/>
<line class="st0" x1="341.1" y1="47.9" x2="341.1" y2="28"/>
<line class="st0" x1="99.5" y1="47.9" x2="99.5" y2="28"/>
<line class="st0" x1="218.5" y1="47.9" x2="218.5" y2="28"/>
<line class="st0" x1="138.5" y1="47.9" x2="138.5" y2="28"/>
<line class="st0" x1="379.6" y1="47.9" x2="379.6" y2="28"/>
<line class="st0" x1="496.5" y1="47.9" x2="496.5" y2="28"/>
<line class="st0" x1="255.2" y1="47.9" x2="255.2" y2="28"/>
<line class="st1" x1="28.6" y1="52.9" x2="37.5" y2="52.9"/>
<line class="st2" x1="1.1" y1="47.9" x2="496.7" y2="47.9"/>
<line class="st2" x1="1.1" y1="42.9" x2="496.7" y2="42.9"/>
<line class="st2" x1="1.1" y1="37.9" x2="496.7" y2="37.9"/>
<line class="st2" x1="1.1" y1="33" x2="496.7" y2="33"/>
<line class="st2" x1="1.1" y1="28" x2="496.7" y2="28"/>
<path d="M396.9,34.5c0,1.4-1.1,2.4-2.1,3c-0.7,0.4-1.5,0.7-2.3,0.7c-1.1,0-2.2-0.6-2.2-1.8c0-1.4,1.1-2.4,2.1-3
	c0.7-0.4,1.5-0.7,2.3-0.7C395.8,32.7,396.9,33.3,396.9,34.5z"/>
<path d="M396.9,39.5c0,1.4-1.1,2.4-2.1,3c-0.7,0.4-1.5,0.7-2.3,0.7c-1.1,0-2.2-0.6-2.2-1.8c0-1.4,1.1-2.4,2.1-3
	c0.7-0.4,1.5-0.7,2.3-0.7C395.8,37.7,396.9,38.3,396.9,39.5z"/>
<path d="M359.8,39.5c0,1.4-1.1,2.4-2.1,3c-0.7,0.4-1.5,0.7-2.3,0.7c-1.1,0-2.2-0.6-2.2-1.8c0-1.4,1.1-2.4,2.1-3
	c0.7-0.4,1.5-0.7,2.3-0.7C358.7,37.7,359.8,38.3,359.8,39.5z"/>
<path d="M359.8,34.5c0,1.4-1.1,2.4-2.1,3c-0.7,0.4-1.5,0.7-2.3,0.7c-1.1,0-2.2-0.6-2.2-1.8c0-1.4,1.1-2.4,2.1-3
	c0.7-0.4,1.5-0.7,2.3-0.7C358.7,32.7,359.8,33.3,359.8,34.5z"/>
<path d="M359.8,29.5c0,1.4-1.1,2.4-2.1,3c-0.7,0.4-1.5,0.7-2.3,0.7c-1.1,0-2.2-0.6-2.2-1.8c0-1.4,1.1-2.4,2.1-3
	c0.7-0.4,1.5-0.7,2.3-0.7C358.7,27.7,359.8,28.3,359.8,29.5z"/>
<rect x="353.4" y="31.6" class="st3" width="0.2" height="24.4"/>
<rect x="353.4" y="31.6" width="0.2" height="24.4"/>
<path d="M344.1,31.3c0.2-0.1,0.4-0.2,0.5-0.2s0.4,0.1,0.5,0.2l-0.1,6.9c0.5-0.4,1.2-0.7,1.8-0.7c1,0,1.8,1,1.8,2
	c0,1.6-1.7,2.3-2.9,3.4c-0.3,0.3-0.5,0.8-0.9,0.8c-0.3,0-0.5-0.2-0.5-0.5L344.1,31.3z M345.2,40.9v0.2c0,0.4,0,0.9,0.1,1.3
	c0.9-0.8,1.9-1.6,1.9-2.8c0-0.7-0.3-1.3-0.9-1.3c-0.6,0-1,0.6-1.1,1.3L345.2,40.9z"/>
<path d="M346.9,21.4c0.2-0.1,0.4-0.2,0.5-0.2s0.4,0.1,0.5,0.2l-0.1,6.9c0.5-0.4,1.2-0.7,1.8-0.7c1,0,1.8,1,1.8,2
	c0,1.6-1.7,2.3-2.9,3.4c-0.3,0.3-0.5,0.8-0.9,0.8c-0.3,0-0.5-0.2-0.5-0.5L346.9,21.4z M348,31v0.2c0,0.4,0,0.9,0.1,1.3
	c0.9-0.8,1.9-1.6,1.9-2.8c0-0.7-0.3-1.3-0.9-1.3c-0.6,0-1,0.6-1.1,1.3L348,31z"/>
<path d="M283.7,39.5c0,1.4-1.1,2.4-2.1,3c-0.7,0.4-1.5,0.7-2.3,0.7c-1.1,0-2.2-0.6-2.2-1.8c0-1.4,1.1-2.4,2.1-3
	c0.7-0.4,1.5-0.7,2.3-0.7C282.6,37.7,283.7,38.3,283.7,39.5z"/>
<path d="M283.7,34.5c0,1.4-1.1,2.4-2.1,3c-0.7,0.4-1.5,0.7-2.3,0.7c-1.1,0-2.2-0.6-2.2-1.8c0-1.4,1.1-2.4,2.1-3
	c0.7-0.4,1.5-0.7,2.3-0.7C282.6,32.7,283.7,33.3,283.7,34.5z"/>
<rect x="283.2" y="19.9" class="st3" width="0.2" height="24.4"/>
<rect x="283.2" y="19.9" width="0.2" height="24.4"/>
<path d="M268.6,52c-0.2,0-0.4-0.2-0.4-0.4v-2.9l-1.7,0.6v3.1c0,0.2-0.2,0.4-0.4,0.4s-0.4-0.2-0.4-0.4v-2.9l-0.6,0.2c0,0-0.1,0-0.1,0
	c-0.2,0-0.4-0.2-0.4-0.4v-1.2c0-0.2,0.1-0.3,0.3-0.4l0.9-0.3v-3.2l-0.6,0.2c0,0-0.1,0-0.1,0c-0.2,0-0.4-0.2-0.4-0.4V43
	c0-0.2,0.1-0.3,0.3-0.4l0.9-0.3v-3.1c0-0.2,0.2-0.4,0.4-0.4s0.4,0.2,0.4,0.4v2.9l1.7-0.6v-3.1c0-0.2,0.2-0.4,0.4-0.4
	s0.4,0.2,0.4,0.4v2.9l0.6-0.2c0,0,0.1,0,0.1,0c0.2,0,0.4,0.2,0.4,0.4v1.2c0,0.2-0.1,0.3-0.3,0.4l-0.9,0.3v3.2l0.6-0.2
	c0,0,0.1,0,0.1,0c0.2,0,0.4,0.2,0.4,0.4v1.2c0,0.2-0.1,0.3-0.3,0.4l-0.9,0.3v3.1C268.9,51.8,268.8,52,268.6,52z M266.5,47.3l1.7-0.6
	v-3.2l-1.7,0.6V47.3z"/>
<path d="M262.1,47c-0.2,0-0.4-0.2-0.4-0.4v-2.9l-1.7,0.6v3.1c0,0.2-0.2,0.4-0.4,0.4s-0.4-0.2-0.4-0.4v-2.9l-0.6,0.2c0,0-0.1,0-0.1,0
	c-0.2,0-0.4-0.2-0.4-0.4v-1.2c0-0.2,0.1-0.3,0.3-0.4l0.9-0.3v-3.2l-0.6,0.2c0,0-0.1,0-0.1,0c-0.2,0-0.4-0.2-0.4-0.4v-1.2
	c0-0.2,0.1-0.3,0.3-0.4l0.9-0.3v-3.1c0-0.2,0.2-0.4,0.4-0.4s0.4,0.2,0.4,0.4v2.9l1.7-0.6v-3.1c0-0.2,0.2-0.4,0.4-0.4
	s0.4,0.2,0.4,0.4v2.9l0.6-0.2c0,0,0.1,0,0.1,0c0.2,0,0.4,0.2,0.4,0.4v1.2c0,0.2-0.1,0.3-0.3,0.4l-0.9,0.3v3.2l0.6-0.2
	c0,0,0.1,0,0.1,0c0.2,0,0.4,0.2,0.4,0.4v1.2c0,0.2-0.1,0.3-0.3,0.4l-0.9,0.3v3.1C262.4,46.8,262.3,47,262.1,47z M260,42.3l1.7-0.6
	v-3.2l-1.7,0.6V42.3z"/>
<path d="M273.9,42c-0.2,0-0.4-0.2-0.4-0.4v-2.9l-1.7,0.6v3.1c0,0.2-0.2,0.4-0.4,0.4s-0.4-0.2-0.4-0.4v-2.9l-0.6,0.2c0,0-0.1,0-0.1,0
	c-0.2,0-0.4-0.2-0.4-0.4v-1.2c0-0.2,0.1-0.3,0.3-0.4l0.9-0.3v-3.2l-0.6,0.2c0,0-0.1,0-0.1,0c-0.2,0-0.4-0.2-0.4-0.4v-1.2
	c0-0.2,0.1-0.3,0.3-0.4l0.9-0.3v-3.1c0-0.2,0.2-0.4,0.4-0.4s0.4,0.2,0.4,0.4v2.9l1.7-0.6v-3.1c0-0.2,0.2-0.4,0.4-0.4
	s0.4,0.2,0.4,0.4v2.9l0.6-0.2c0,0,0.1,0,0.1,0c0.2,0,0.4,0.2,0.4,0.4v1.2c0,0.2-0.1,0.3-0.3,0.4l-0.9,0.3v3.2l0.6-0.2
	c0,0,0.1,0,0.1,0c0.2,0,0.4,0.2,0.4,0.4v1.2c0,0.2-0.1,0.3-0.3,0.4l-0.9,0.3v3.1C274.2,41.9,274.1,42,273.9,42z M271.8,37.3l1.7-0.6
	v-3.2l-1.7,0.6V37.3z"/>
<path d="M321.1,42c0,1.4-1.1,2.4-2.1,3c-0.7,0.4-1.5,0.7-2.3,0.7c-1.1,0-2.2-0.6-2.2-1.8c0-1.4,1.1-2.4,2.1-3
	c0.7-0.4,1.5-0.7,2.3-0.7C320,40.2,321.1,40.7,321.1,42z"/>
<path d="M321.1,37c0,1.4-1.1,2.4-2.1,3c-0.7,0.4-1.5,0.7-2.3,0.7c-1.1,0-2.2-0.6-2.2-1.8c0-1.4,1.1-2.4,2.1-3
	c0.7-0.4,1.5-0.7,2.3-0.7C320,35.2,321.1,35.8,321.1,37z"/>
<path d="M321.1,32c0,1.4-1.1,2.4-2.1,3c-0.7,0.4-1.5,0.7-2.3,0.7c-1.1,0-2.2-0.6-2.2-1.8c0-1.4,1.1-2.4,2.1-3
	c0.7-0.4,1.5-0.7,2.3-0.7C320,30.2,321.1,30.8,321.1,32z"/>
<rect x="314.7" y="34.1" class="st3" width="0.2" height="23.6"/>
<rect x="314.7" y="34.1" width="0.2" height="23.6"/>
<path d="M476.8,37c0,1.4-1.1,2.4-2.1,3c-0.7,0.4-1.5,0.7-2.3,0.7c-1.1,0-2.2-0.6-2.2-1.8c0-1.4,1.1-2.4,2.1-3
	c0.7-0.4,1.5-0.7,2.3-0.7C475.7,35.2,476.8,35.8,476.8,37z"/>
<path d="M476.8,32c0,1.4-1.1,2.4-2.1,3c-0.7,0.4-1.5,0.7-2.3,0.7c-1.1,0-2.2-0.6-2.2-1.8c0-1.4,1.1-2.4,2.1-3
	c0.7-0.4,1.5-0.7,2.3-0.7C475.7,30.2,476.8,30.8,476.8,32z"/>
<path d="M476.8,27c0,1.4-1.1,2.4-2.1,3c-0.7,0.4-1.5,0.7-2.3,0.7c-1.1,0-2.2-0.6-2.2-1.8c0-1.4,1.1-2.4,2.1-3
	c0.7-0.4,1.5-0.7,2.3-0.7C475.7,25.2,476.8,25.8,476.8,27z"/>
<rect x="470.4" y="29.1" class="st3" width="0.2" height="25.2"/>
<rect x="470.4" y="29.1" width="0.2" height="25.2"/>
<path d="M460.5,39.5c-0.2,0-0.4-0.2-0.4-0.4v-2.9l-1.7,0.6V40c0,0.2-0.2,0.4-0.4,0.4c-0.2,0-0.4-0.2-0.4-0.4v-2.9l-0.6,0.2
	c0,0-0.1,0-0.1,0c-0.2,0-0.4-0.2-0.4-0.4v-1.2c0-0.2,0.1-0.3,0.3-0.4l0.9-0.3v-3.2l-0.6,0.2c0,0-0.1,0-0.1,0c-0.2,0-0.4-0.2-0.4-0.4
	v-1.2c0-0.2,0.1-0.3,0.3-0.4l0.9-0.3v-3.1c0-0.2,0.2-0.4,0.4-0.4c0.2,0,0.4,0.2,0.4,0.4v2.9l1.7-0.6v-3.1c0-0.2,0.2-0.4,0.4-0.4
	s0.4,0.2,0.4,0.4v2.9l0.6-0.2c0,0,0.1,0,0.1,0c0.2,0,0.4,0.2,0.4,0.4v1.2c0,0.2-0.1,0.3-0.3,0.4l-0.9,0.3V34l0.6-0.2
	c0,0,0.1,0,0.1,0c0.2,0,0.4,0.2,0.4,0.4v1.2c0,0.2-0.1,0.3-0.3,0.4l-0.9,0.3v3.1C460.9,39.4,460.7,39.5,460.5,39.5z M458.5,34.8
	l1.7-0.6v-3.2l-1.7,0.6V34.8z"/>
<path d="M467,34.6c-0.2,0-0.4-0.2-0.4-0.4v-2.9l-1.7,0.6v3.1c0,0.2-0.2,0.4-0.4,0.4c-0.2,0-0.4-0.2-0.4-0.4v-2.9l-0.6,0.2
	c0,0-0.1,0-0.1,0c-0.2,0-0.4-0.2-0.4-0.4v-1.2c0-0.2,0.1-0.3,0.3-0.4l0.9-0.3V27l-0.6,0.2c0,0-0.1,0-0.1,0c-0.2,0-0.4-0.2-0.4-0.4
	v-1.2c0-0.2,0.1-0.3,0.3-0.4l0.9-0.3v-3.1c0-0.2,0.2-0.4,0.4-0.4c0.2,0,0.4,0.2,0.4,0.4v2.9l1.7-0.6v-3.1c0-0.2,0.2-0.4,0.4-0.4
	s0.4,0.2,0.4,0.4v2.9l0.6-0.2c0,0,0.1,0,0.1,0c0.2,0,0.4,0.2,0.4,0.4v1.2c0,0.2-0.1,0.3-0.3,0.4l-0.9,0.3V29l0.6-0.2
	c0,0,0.1,0,0.1,0c0.2,0,0.4,0.2,0.4,0.4v1.2c0,0.2-0.1,0.3-0.3,0.4l-0.9,0.3v3.1C467.3,34.4,467.2,34.6,467,34.6z M464.9,29.9
	l1.7-0.6v-3.2l-1.7,0.6V29.9z"/>
<path d="M396.9,29.5c0,1.4-1.1,2.4-2.1,3c-0.7,0.4-1.5,0.7-2.3,0.7c-1.1,0-2.2-0.6-2.2-1.8c0-1.4,1.1-2.4,2.1-3
	c0.7-0.4,1.5-0.7,2.3-0.7C395.8,27.7,396.9,28.3,396.9,29.5z"/>
<rect x="390.5" y="31.6" class="st3" width="0.2" height="24.4"/>
<rect x="390.5" y="31.6" width="0.2" height="24.4"/>
<path d="M387,42c-0.2,0-0.4-0.2-0.4-0.4v-2.9l-1.7,0.6v3.1c0,0.2-0.2,0.4-0.4,0.4s-0.4-0.2-0.4-0.4v-2.9l-0.6,0.2c0,0-0.1,0-0.1,0
	c-0.2,0-0.4-0.2-0.4-0.4v-1.2c0-0.2,0.1-0.3,0.3-0.4l0.9-0.3v-3.2l-0.6,0.2c0,0-0.1,0-0.1,0c-0.2,0-0.4-0.2-0.4-0.4v-1.2
	c0-0.2,0.1-0.3,0.3-0.4l0.9-0.3v-3.1c0-0.2,0.2-0.4,0.4-0.4s0.4,0.2,0.4,0.4v2.9l1.7-0.6v-3.1c0-0.2,0.2-0.4,0.4-0.4
	s0.4,0.2,0.4,0.4v2.9L388,31c0,0,0.1,0,0.1,0c0.2,0,0.4,0.2,0.4,0.4v1.2c0,0.2-0.1,0.3-0.3,0.4l-0.9,0.3v3.2l0.6-0.2
	c0,0,0.1,0,0.1,0c0.2,0,0.4,0.2,0.4,0.4v1.2c0,0.2-0.1,0.3-0.3,0.4l-0.9,0.3v3.1C387.4,41.9,387.2,42,387,42z M385,37.3l1.7-0.6
	v-3.2l-1.7,0.6V37.3z"/>
<path d="M433.8,37c0,1.4-1.1,2.4-2.1,3c-0.7,0.4-1.5,0.7-2.3,0.7c-1.1,0-2.2-0.6-2.2-1.8c0-1.4,1.1-2.4,2.1-3
	c0.7-0.4,1.5-0.7,2.3-0.7C432.7,35.2,433.8,35.8,433.8,37z"/>
<path d="M433.8,32c0,1.4-1.1,2.4-2.1,3c-0.7,0.4-1.5,0.7-2.3,0.7c-1.1,0-2.2-0.6-2.2-1.8c0-1.4,1.1-2.4,2.1-3
	c0.7-0.4,1.5-0.7,2.3-0.7C432.7,30.2,433.8,30.8,433.8,32z"/>
<path d="M433.8,27c0,1.4-1.1,2.4-2.1,3c-0.7,0.4-1.5,0.7-2.3,0.7c-1.1,0-2.2-0.6-2.2-1.8c0-1.4,1.1-2.4,2.1-3
	c0.7-0.4,1.5-0.7,2.3-0.7C432.7,25.2,433.8,25.8,433.8,27z"/>
<rect x="427.4" y="29.1" class="st3" width="0.2" height="25.2"/>
<rect x="427.4" y="29.1" width="0.2" height="25.2"/>
<path d="M421,28.8c0.2-0.1,0.4-0.2,0.5-0.2s0.4,0.1,0.5,0.2l-0.1,6.9c0.5-0.4,1.2-0.7,1.8-0.7c1,0,1.8,1,1.8,2
	c0,1.6-1.7,2.3-2.9,3.4c-0.3,0.3-0.5,0.8-0.9,0.8c-0.3,0-0.5-0.2-0.5-0.5L421,28.8z M422,38.4v0.2c0,0.4,0,0.9,0.1,1.3
	c0.9-0.8,1.9-1.6,1.9-2.8c0-0.7-0.3-1.3-0.9-1.3c-0.6,0-1,0.6-1.1,1.3L422,38.4z"/>
<path d="M64.4,31.3c0.2-0.1,0.4-0.2,0.5-0.2s0.4,0.1,0.5,0.2l-0.1,6.9c0.5-0.4,1.2-0.7,1.8-0.7c1,0,1.8,1,1.8,2
	c0,1.6-1.7,2.3-2.9,3.4c-0.3,0.3-0.5,0.8-0.9,0.8c-0.3,0-0.5-0.2-0.5-0.5L64.4,31.3z M65.5,40.9v0.2c0,0.4,0,0.9,0.1,1.3
	c0.9-0.8,1.9-1.6,1.9-2.8c0-0.7-0.3-1.3-0.9-1.3c-0.6,0-1,0.6-1.1,1.3L65.5,40.9z"/>
<path d="M116.3,49.4c0,1.4-1.1,2.4-2.1,3c-0.7,0.4-1.5,0.7-2.3,0.7c-1.1,0-2.2-0.6-2.2-1.8c0-1.4,1.1-2.4,2.1-3
	c0.7-0.4,1.5-0.7,2.3-0.7C115.2,47.6,116.3,48.2,116.3,49.4z"/>
<path d="M116.3,44.5c0,1.4-1.1,2.4-2.1,3c-0.7,0.4-1.5,0.7-2.3,0.7c-1.1,0-2.2-0.6-2.2-1.8c0-1.4,1.1-2.4,2.1-3
	c0.7-0.4,1.5-0.7,2.3-0.7C115.2,42.7,116.3,43.2,116.3,44.5z"/>
<path d="M116.3,39.5c0,1.4-1.1,2.4-2.1,3c-0.7,0.4-1.5,0.7-2.3,0.7c-1.1,0-2.2-0.6-2.2-1.8c0-1.4,1.1-2.4,2.1-3
	c0.7-0.4,1.5-0.7,2.3-0.7C115.2,37.7,116.3,38.3,116.3,39.5z"/>
<rect x="115.8" y="23.2" class="st3" width="0.2" height="26.1"/>
<rect x="115.8" y="23.2" width="0.2" height="26.1"/>
<path d="M106.4,52c-0.2,0-0.4-0.2-0.4-0.4v-2.9l-1.7,0.6v3.1c0,0.2-0.2,0.4-0.4,0.4s-0.4-0.2-0.4-0.4v-2.9l-0.6,0.2c0,0-0.1,0-0.1,0
	c-0.2,0-0.4-0.2-0.4-0.4v-1.2c0-0.2,0.1-0.3,0.3-0.4l0.9-0.3v-3.2l-0.6,0.2c0,0-0.1,0-0.1,0c-0.2,0-0.4-0.2-0.4-0.4V43
	c0-0.2,0.1-0.3,0.3-0.4l0.9-0.3v-3.1c0-0.2,0.2-0.4,0.4-0.4s0.4,0.2,0.4,0.4v2.9l1.7-0.6v-3.1c0-0.2,0.2-0.4,0.4-0.4
	s0.4,0.2,0.4,0.4v2.9l0.6-0.2c0,0,0.1,0,0.1,0c0.2,0,0.4,0.2,0.4,0.4v1.2c0,0.2-0.1,0.3-0.3,0.4l-0.9,0.3v3.2l0.6-0.2
	c0,0,0.1,0,0.1,0c0.2,0,0.4,0.2,0.4,0.4v1.2c0,0.2-0.1,0.3-0.3,0.4l-0.9,0.3v3.1C106.8,51.8,106.6,52,106.4,52z M104.4,47.3l1.7-0.6
	v-3.2l-1.7,0.6V47.3z"/>
<path d="M157.2,47c0,1.4-1.1,2.4-2.1,3c-0.7,0.4-1.5,0.7-2.3,0.7c-1.1,0-2.2-0.6-2.2-1.8c0-1.4,1.1-2.4,2.1-3
	c0.7-0.4,1.5-0.7,2.3-0.7C156.1,45.1,157.2,45.7,157.2,47z"/>
<path d="M157.2,42c0,1.4-1.1,2.4-2.1,3c-0.7,0.4-1.5,0.7-2.3,0.7c-1.1,0-2.2-0.6-2.2-1.8c0-1.4,1.1-2.4,2.1-3
	c0.7-0.4,1.5-0.7,2.3-0.7C156.1,40.2,157.2,40.7,157.2,42z"/>
<path d="M157.2,37c0,1.4-1.1,2.4-2.1,3c-0.7,0.4-1.5,0.7-2.3,0.7c-1.1,0-2.2-0.6-2.2-1.8c0-1.4,1.1-2.4,2.1-3
	c0.7-0.4,1.5-0.7,2.3-0.7C156.1,35.2,157.2,35.8,157.2,37z"/>
<path d="M36.3,51.9c0,1.4-1.1,2.4-2.1,3c-0.7,0.4-1.5,0.7-2.3,0.7c-1.1,0-2.2-0.6-2.2-1.8c0-1.4,1.1-2.4,2.1-3
	c0.7-0.4,1.5-0.7,2.3-0.7C35.3,50.1,36.3,50.7,36.3,51.9z"/>
<path d="M36.3,47c0,1.4-1.1,2.4-2.1,3c-0.7,0.4-1.5,0.7-2.3,0.7c-1.1,0-2.2-0.6-2.2-1.8c0-1.4,1.1-2.4,2.1-3
	c0.7-0.4,1.5-0.7,2.3-0.7C35.3,45.1,36.3,45.7,36.3,47z"/>
<path d="M36.3,42c0,1.4-1.1,2.4-2.1,3c-0.7,0.4-1.5,0.7-2.3,0.7c-1.1,0-2.2-0.6-2.2-1.8c0-1.4,1.1-2.4,2.1-3
	c0.7-0.4,1.5-0.7,2.3-0.7C35.3,40.2,36.3,40.7,36.3,42z"/>
<path d="M12.6,37.7c3.1,0,5.1,2.6,5.1,5.2c0,1.5-0.7,3.1-2.1,4.2c-0.4,0.3-0.9,0.6-1.5,0.7c0.1,0.7,0.1,1.4,0.1,2.1
	c0,0.4,0,0.8,0,1.2c-0.1,2.4-1.8,4.5-4.1,4.5c-2.2,0-3.9-1.8-3.9-3.9c0-1.2,1.1-2.1,2.2-2.1c1.1,0,1.9,0.9,1.9,2.1
	c0,1-0.9,1.9-1.9,1.9c-0.2,0-0.4,0-0.6-0.1c0.5,0.8,1.4,1.3,2.3,1.3c1.9,0,3.1-1.8,3.2-3.8c0-0.4,0-0.7,0-1.1c0-0.6,0-1.2-0.1-1.8
	c-0.6,0.1-1.2,0.2-1.8,0.2c-3.7,0-6.6-3.4-6.6-7.5c0-3.5,2.6-6.1,4.9-8.8c-0.4-1.2-0.7-2.5-0.9-3.8c-0.1-1-0.1-2.1-0.1-3.1
	c0-2.3,1.1-4.5,3-5.8c0.1,0,0.1-0.1,0.2-0.1c0.1,0,0.1,0,0.2,0.1c1.4,1.7,2.7,4.9,2.7,7.1c0,2.8-1.7,5.1-3.6,7.3
	c0.4,1.4,0.8,2.8,1.1,4.1C12.4,37.7,12.5,37.7,12.6,37.7z M11.6,47.3c0.6,0,1.1,0,1.6-0.1c-0.3-2.5-0.7-4.9-1.3-7.3
	c-1.6,0.2-2.5,1.2-2.5,2.4c0,0.9,0.5,1.8,1.6,2.5c0.1,0.1,0.1,0.2,0.1,0.3c0,0.2-0.2,0.4-0.4,0.4c-0.1,0-0.1,0-0.2,0
	c-1.6-0.9-2.3-2.3-2.3-3.7c0-1.8,1.2-3.5,3.2-3.9c-0.3-1.2-0.6-2.3-0.9-3.5c-2.1,2.4-4.2,4.8-4.2,8C6.3,45,8.9,47.3,11.6,47.3z
	 M9.8,27.3c0,1.5,0.4,2.7,0.7,3.9c1.6-1.9,2.9-3.9,2.9-6.5c0-1.1-0.1-1.6-0.4-2.6C11,23,9.8,25.1,9.8,27.3z M16.3,43.7
	c0-1.8-1.3-3.6-3.4-3.8c0.5,2.3,0.9,4.6,1.2,7.1C15.4,46.5,16.3,45.1,16.3,43.7z"/>
<rect x="35.9" y="25.7" class="st3" width="0.2" height="26.1"/>
<rect x="35.9" y="25.7" width="0.2" height="26.1"/>
<path d="M77.2,49.4c0,1.4-1.1,2.4-2.1,3c-0.7,0.4-1.5,0.7-2.3,0.7c-1.1,0-2.2-0.6-2.2-1.8c0-1.4,1.1-2.4,2.1-3
	c0.7-0.4,1.5-0.7,2.3-0.7C76.2,47.6,77.2,48.2,77.2,49.4z"/>
<path d="M77.2,44.5c0,1.4-1.1,2.4-2.1,3c-0.7,0.4-1.5,0.7-2.3,0.7c-1.1,0-2.2-0.6-2.2-1.8c0-1.4,1.1-2.4,2.1-3
	c0.7-0.4,1.5-0.7,2.3-0.7C76.2,42.7,77.2,43.2,77.2,44.5z"/>
<path d="M77.2,39.5c0,1.4-1.1,2.4-2.1,3c-0.7,0.4-1.5,0.7-2.3,0.7c-1.1,0-2.2-0.6-2.2-1.8c0-1.4,1.1-2.4,2.1-3
	c0.7-0.4,1.5-0.7,2.3-0.7C76.2,37.7,77.2,38.3,77.2,39.5z"/>
<rect x="76.8" y="23.2" class="st3" width="0.2" height="26.1"/>
<rect x="76.8" y="23.2" width="0.2" height="26.1"/>
<path d="M61.6,41.3c0.2-0.1,0.4-0.2,0.5-0.2s0.4,0.1,0.5,0.2l-0.1,6.9c0.5-0.4,1.2-0.7,1.8-0.7c1,0,1.8,1,1.8,2
	c0,1.6-1.7,2.3-2.9,3.4c-0.3,0.3-0.5,0.8-0.9,0.8c-0.3,0-0.5-0.2-0.5-0.5L61.6,41.3z M62.7,50.9v0.2c0,0.4,0,0.9,0.1,1.3
	c0.9-0.8,1.9-1.6,1.9-2.8c0-0.7-0.3-1.3-0.9-1.3c-0.6,0-1,0.6-1.1,1.3L62.7,50.9z"/>
<rect x="195.8" y="21.5" class="st3" width="0.2" height="25.2"/>
<rect x="195.8" y="21.5" width="0.2" height="25.2"/>
<path d="M186.4,49.5c-0.2,0-0.4-0.2-0.4-0.4v-2.9l-1.7,0.6V50c0,0.2-0.2,0.4-0.4,0.4s-0.4-0.2-0.4-0.4v-2.9l-0.6,0.2
	c0,0-0.1,0-0.1,0c-0.2,0-0.4-0.2-0.4-0.4v-1.2c0-0.2,0.1-0.3,0.3-0.4l0.9-0.3v-3.2l-0.6,0.2c0,0-0.1,0-0.1,0c-0.2,0-0.4-0.2-0.4-0.4
	v-1.2c0-0.2,0.1-0.3,0.3-0.4l0.9-0.3v-3.1c0-0.2,0.2-0.4,0.4-0.4s0.4,0.2,0.4,0.4v2.9L186,39v-3.1c0-0.2,0.2-0.4,0.4-0.4
	s0.4,0.2,0.4,0.4v2.9l0.6-0.2c0,0,0.1,0,0.1,0c0.2,0,0.4,0.2,0.4,0.4V40c0,0.2-0.1,0.3-0.3,0.4l-0.9,0.3v3.2l0.6-0.2
	c0,0,0.1,0,0.1,0c0.2,0,0.4,0.2,0.4,0.4v1.2c0,0.2-0.1,0.3-0.3,0.4l-0.9,0.3v3.1C186.7,49.3,186.6,49.5,186.4,49.5z M184.3,44.8
	l1.7-0.6V41l-1.7,0.6V44.8z"/>
<path d="M232.9,44.5c0,1.4-1.1,2.4-2.1,3c-0.7,0.4-1.5,0.7-2.3,0.7c-1.1,0-2.2-0.6-2.2-1.8c0-1.4,1.1-2.4,2.1-3
	c0.7-0.4,1.5-0.7,2.3-0.7C231.9,42.7,232.9,43.2,232.9,44.5z"/>
<path d="M232.9,39.5c0,1.4-1.1,2.4-2.1,3c-0.7,0.4-1.5,0.7-2.3,0.7c-1.1,0-2.2-0.6-2.2-1.8c0-1.4,1.1-2.4,2.1-3
	c0.7-0.4,1.5-0.7,2.3-0.7C231.9,37.7,232.9,38.3,232.9,39.5z"/>
<path d="M232.9,34.5c0,1.4-1.1,2.4-2.1,3c-0.7,0.4-1.5,0.7-2.3,0.7c-1.1,0-2.2-0.6-2.2-1.8c0-1.4,1.1-2.4,2.1-3
	c0.7-0.4,1.5-0.7,2.3-0.7C231.9,32.7,232.9,33.3,232.9,34.5z"/>
<rect x="232.5" y="19.9" class="st3" width="0.2" height="24.4"/>
<rect x="232.5" y="19.9" width="0.2" height="24.4"/>
<path d="M283.7,44.5c0,1.4-1.1,2.4-2.1,3c-0.7,0.4-1.5,0.7-2.3,0.7c-1.1,0-2.2-0.6-2.2-1.8c0-1.4,1.1-2.4,2.1-3
	c0.7-0.4,1.5-0.7,2.3-0.7C282.6,42.7,283.7,43.2,283.7,44.5z"/>
<path d="M144.4,28.8c0.2-0.1,0.4-0.2,0.5-0.2s0.4,0.1,0.5,0.2l-0.1,6.9c0.5-0.4,1.2-0.7,1.8-0.7c1,0,1.8,1,1.8,2
	c0,1.6-1.7,2.3-2.9,3.4c-0.3,0.3-0.5,0.8-0.9,0.8c-0.3,0-0.5-0.2-0.5-0.5L144.4,28.8z M145.4,38.4v0.2c0,0.4,0,0.9,0.1,1.3
	c0.9-0.8,1.9-1.6,1.9-2.8c0-0.7-0.3-1.3-0.9-1.3c-0.6,0-1,0.6-1.1,1.3L145.4,38.4z"/>
<path d="M141.6,38.8c0.2-0.1,0.4-0.2,0.5-0.2s0.4,0.1,0.5,0.2l-0.1,6.9c0.5-0.4,1.2-0.7,1.8-0.7c1,0,1.8,1,1.8,2
	c0,1.6-1.7,2.3-2.9,3.4c-0.3,0.3-0.5,0.8-0.9,0.8c-0.3,0-0.5-0.2-0.5-0.5L141.6,38.8z M142.6,48.4v0.2c0,0.4,0,0.9,0.1,1.3
	c0.9-0.8,1.9-1.6,1.9-2.8c0-0.7-0.3-1.3-0.9-1.3c-0.6,0-1,0.6-1.1,1.3L142.6,48.4z M196.2,47c0,1.4-1.1,2.4-2.1,3
	c-0.7,0.4-1.5,0.7-2.3,0.7c-1.1,0-2.2-0.6-2.2-1.8c0-1.4,1.1-2.4,2.1-3c0.7-0.4,1.5-0.7,2.3-0.7C195.2,45.1,196.2,45.7,196.2,47z"/>
<path d="M196.2,42c0,1.4-1.1,2.4-2.1,3c-0.7,0.4-1.5,0.7-2.3,0.7c-1.1,0-2.2-0.6-2.2-1.8c0-1.4,1.1-2.4,2.1-3
	c0.7-0.4,1.5-0.7,2.3-0.7C195.2,40.2,196.2,40.7,196.2,42z"/>
<path d="M196.2,37c0,1.4-1.1,2.4-2.1,3c-0.7,0.4-1.5,0.7-2.3,0.7c-1.1,0-2.2-0.6-2.2-1.8c0-1.4,1.1-2.4,2.1-3
	c0.7-0.4,1.5-0.7,2.3-0.7C195.2,35.2,196.2,35.8,196.2,37z"/>
<rect x="156.7" y="21.5" class="st3" width="0.2" height="25.2"/>
<rect x="156.7" y="21.5" width="0.2" height="25.2"/>
</svg>
