<?xml version="1.0" encoding="utf-8"?>
<!-- Generator: Adobe Illustrator 21.1.0, SVG Export Plug-In . SVG Version: 6.00 Build 0)  -->
<svg version="1.1" id="Ebene_1" xmlns="http://www.w3.org/2000/svg" xmlns:xlink="http://www.w3.org/1999/xlink" x="0px" y="0px"
	 viewBox="0 0 500 60" style="enable-background:new 0 0 500 60;" xml:space="preserve">
<style type="text/css">
	.st0{fill:none;stroke:#000000;stroke-width:0.9465;stroke-miterlimit:10;}
	.st1{fill:none;stroke:#000000;stroke-width:0.9963;stroke-linecap:round;stroke-miterlimit:10;}
	.st2{fill:none;stroke:#000000;stroke-width:0.4981;stroke-linecap:round;stroke-miterlimit:10;}
	.st3{fill:none;stroke:#000000;stroke-width:0.3985;stroke-linecap:round;stroke-linejoin:round;stroke-miterlimit:10;}
</style>
<line class="st0" x1="139.3" y1="37.9" x2="139.3" y2="18"/>
<line class="st0" x1="383.7" y1="37.9" x2="383.7" y2="18"/>
<line class="st0" x1="102.7" y1="37.9" x2="102.7" y2="18"/>
<line class="st0" x1="341.7" y1="37.9" x2="341.7" y2="18"/>
<line class="st0" x1="418.7" y1="37.9" x2="418.7" y2="18"/>
<line class="st0" x1="185.7" y1="37.9" x2="185.7" y2="18"/>
<line class="st0" x1="58.5" y1="37.9" x2="58.5" y2="18"/>
<line class="st0" x1="304.9" y1="37.9" x2="304.9" y2="18"/>
<line class="st0" x1="459.6" y1="37.9" x2="459.6" y2="18"/>
<line class="st0" x1="222.3" y1="37.9" x2="222.3" y2="18"/>
<line class="st0" x1="260.7" y1="37.9" x2="260.7" y2="18"/>
<line class="st0" x1="496.5" y1="37.9" x2="496.5" y2="18"/>
<line class="st1" x1="28.6" y1="42.9" x2="37.5" y2="42.9"/>
<line class="st1" x1="72.9" y1="42.9" x2="81.7" y2="42.9"/>
<line class="st2" x1="1.1" y1="37.9" x2="496.7" y2="37.9"/>
<line class="st2" x1="1.1" y1="32.9" x2="496.7" y2="32.9"/>
<line class="st2" x1="1.1" y1="27.9" x2="496.7" y2="27.9"/>
<line class="st2" x1="1.1" y1="23" x2="496.7" y2="23"/>
<line class="st2" x1="1.1" y1="18" x2="496.7" y2="18"/>
<path d="M282.8,24.5c0,1.4-1.1,2.4-2.1,3c-0.7,0.4-1.5,0.7-2.3,0.7c-1.1,0-2.2-0.6-2.2-1.8c0-1.4,1.1-2.4,2.1-3
	c0.7-0.4,1.5-0.7,2.3-0.7C281.7,22.7,282.8,23.3,282.8,24.5z"/>
<path d="M363.7,32c0,1.4-1.1,2.4-2.1,3c-0.7,0.4-1.5,0.7-2.3,0.7c-1.1,0-2.2-0.6-2.2-1.8c0-1.4,1.1-2.4,2.1-3
	c0.7-0.4,1.5-0.7,2.3-0.7C362.7,30.2,363.7,30.7,363.7,32z"/>
<path d="M363.7,27c0,1.4-1.1,2.4-2.1,3c-0.7,0.4-1.5,0.7-2.3,0.7c-1.1,0-2.2-0.6-2.2-1.8c0-1.4,1.1-2.4,2.1-3
	c0.7-0.4,1.5-0.7,2.3-0.7C362.7,25.2,363.7,25.8,363.7,27z"/>
<path d="M363.7,22c0,1.4-1.1,2.4-2.1,3c-0.7,0.4-1.5,0.7-2.3,0.7c-1.1,0-2.2-0.6-2.2-1.8c0-1.4,1.1-2.4,2.1-3
	c0.7-0.4,1.5-0.7,2.3-0.7C362.7,20.2,363.7,20.8,363.7,22z"/>
<rect x="357.4" y="24.1" class="st3" width="0.2" height="23.6"/>
<rect x="357.4" y="24.1" width="0.2" height="23.6"/>
<path d="M282.8,29.5c0,1.4-1.1,2.4-2.1,3c-0.7,0.4-1.5,0.7-2.3,0.7c-1.1,0-2.2-0.6-2.2-1.8c0-1.4,1.1-2.4,2.1-3
	c0.7-0.4,1.5-0.7,2.3-0.7C281.7,27.7,282.8,28.3,282.8,29.5z"/>
<path d="M282.8,34.5c0,1.4-1.1,2.4-2.1,3c-0.7,0.4-1.5,0.7-2.3,0.7c-1.1,0-2.2-0.6-2.2-1.8c0-1.4,1.1-2.4,2.1-3
	c0.7-0.4,1.5-0.7,2.3-0.7C281.7,32.7,282.8,33.2,282.8,34.5z"/>
<path d="M348.6,39.5c-0.2,0-0.4-0.2-0.4-0.4v-2.9l-1.7,0.6V40c0,0.2-0.2,0.4-0.4,0.4s-0.4-0.2-0.4-0.4v-2.9l-0.6,0.2H345
	c-0.2,0-0.4-0.2-0.4-0.4v-1.2c0-0.2,0.1-0.3,0.3-0.4l0.9-0.3v-3.2l-0.6,0.2h-0.1c-0.2,0-0.4-0.2-0.4-0.4v-1.2c0-0.2,0.1-0.3,0.3-0.4
	l0.9-0.3v-3.1c0-0.2,0.2-0.4,0.4-0.4s0.4,0.2,0.4,0.4v2.9l1.7-0.6v-3.1c0-0.2,0.2-0.4,0.4-0.4s0.4,0.2,0.4,0.4v2.9l0.6-0.2h0.1
	c0.2,0,0.4,0.2,0.4,0.4V30c0,0.2-0.1,0.3-0.3,0.4l-0.9,0.3v3.2l0.6-0.2h0.1c0.2,0,0.4,0.2,0.4,0.4v1.2c0,0.2-0.1,0.3-0.3,0.4L349,36
	v3.1C349,39.3,348.8,39.5,348.6,39.5z M346.6,34.8l1.7-0.6V31l-1.7,0.6V34.8z"/>
<path d="M353.9,29.5c-0.2,0-0.4-0.2-0.4-0.4v-2.9l-1.7,0.6V30c0,0.2-0.2,0.4-0.4,0.4S351,30.2,351,30v-2.9l-0.6,0.2h-0.1
	c-0.2,0-0.4-0.2-0.4-0.4v-1.2c0-0.2,0.1-0.3,0.3-0.4l0.9-0.3v-3.2l-0.6,0.2h-0.1c-0.2,0-0.4-0.2-0.4-0.4v-1.2c0-0.2,0.1-0.3,0.3-0.4
	l0.9-0.3v-3.1c0-0.2,0.2-0.4,0.4-0.4s0.4,0.2,0.4,0.4v2.9l1.7-0.6v-3.1c0-0.2,0.2-0.4,0.4-0.4s0.4,0.2,0.4,0.4v2.9l0.6-0.2h0.1
	c0.2,0,0.4,0.2,0.4,0.4v1.2c0,0.2-0.1,0.3-0.3,0.4l-0.9,0.3V24l0.6-0.2h0.1c0.2,0,0.4,0.2,0.4,0.4v1.2c0,0.2-0.1,0.3-0.3,0.4
	l-0.9,0.3v3.1C354.3,29.4,354.1,29.5,353.9,29.5z M351.9,24.8l1.7-0.6V21l-1.7,0.6V24.8z"/>
<path d="M267.6,42c-0.2,0-0.4-0.2-0.4-0.4v-2.9l-1.7,0.6v3.1c0,0.2-0.2,0.4-0.4,0.4s-0.4-0.2-0.4-0.4v-2.9l-0.6,0.2H264
	c-0.2,0-0.4-0.2-0.4-0.4v-1.2c0-0.2,0.1-0.3,0.3-0.4l0.9-0.3v-3.2l-0.6,0.2h-0.1c-0.2,0-0.4-0.2-0.4-0.4v-1c0-0.2,0.1-0.3,0.3-0.4
	l0.9-0.3v-3.1c0-0.2,0.2-0.4,0.4-0.4s0.4,0.2,0.4,0.4v2.9l1.7-0.6v-3.1c0-0.2,0.2-0.4,0.4-0.4s0.4,0.2,0.4,0.4v2.9l0.6-0.2h0.1
	c0.2,0,0.4,0.2,0.4,0.4v1.2c0,0.2-0.1,0.3-0.3,0.4l-0.9,0.3v3.2l0.6-0.2h0.1c0.2,0,0.4,0.2,0.4,0.4V38c0,0.2-0.1,0.3-0.3,0.4
	l-0.9,0.3v3.1C268,41.8,267.8,42,267.6,42z M265.6,37.3l1.7-0.6v-3.2l-1.7,0.6V37.3z"/>
<path d="M272.9,32c-0.2,0-0.4-0.2-0.4-0.4v-2.9l-1.7,0.6v3.1c0,0.2-0.2,0.4-0.4,0.4s-0.4-0.2-0.4-0.4v-2.9l-0.6,0.2h-0.1
	c-0.2,0-0.4-0.2-0.4-0.4v-1.2c0-0.2,0.1-0.3,0.3-0.4l0.9-0.3v-3.2l-0.6,0.2h-0.1c-0.2,0-0.4-0.2-0.4-0.4v-1.2c0-0.2,0.1-0.3,0.3-0.4
	l0.9-0.3V19c0-0.2,0.2-0.4,0.4-0.4s0.4,0.2,0.4,0.4v2.9l1.7-0.6v-3.1c0-0.2,0.2-0.4,0.4-0.4s0.4,0.2,0.4,0.4v2.9l0.6-0.2h0.1
	c0.2,0,0.4,0.2,0.4,0.4v1.2c0,0.2-0.1,0.3-0.3,0.4l-0.9,0.3v3.2l0.6-0.2h0.1c0.2,0,0.4,0.2,0.4,0.4v1.2c0,0.2-0.1,0.3-0.3,0.4
	l-0.9,0.3v3.1C273.3,31.9,273.1,32,272.9,32z M270.9,27.3l1.7-0.6v-3.2l-1.7,0.6V27.3z"/>
<path d="M321.8,32c0,1.4-1.1,2.4-2.1,3c-0.7,0.4-1.5,0.7-2.3,0.7c-1.1,0-2.2-0.6-2.2-1.8c0-1.4,1.1-2.4,2.1-3
	c0.7-0.4,1.5-0.7,2.3-0.7C320.7,30.2,321.8,30.7,321.8,32z"/>
<path d="M321.8,27c0,1.4-1.1,2.4-2.1,3c-0.7,0.4-1.5,0.7-2.3,0.7c-1.1,0-2.2-0.6-2.2-1.8c0-1.4,1.1-2.4,2.1-3
	c0.7-0.4,1.5-0.7,2.3-0.7C320.7,25.2,321.8,25.8,321.8,27z"/>
<path d="M321.8,22c0,1.4-1.1,2.4-2.1,3c-0.7,0.4-1.5,0.7-2.3,0.7c-1.1,0-2.2-0.6-2.2-1.8c0-1.4,1.1-2.4,2.1-3
	c0.7-0.4,1.5-0.7,2.3-0.7C320.7,20.2,321.8,20.8,321.8,22z"/>
<rect x="315.4" y="24.1" class="st3" width="0.2" height="23.6"/>
<rect x="315.4" y="24.1" width="0.2" height="23.6"/>
<rect x="282.3" y="9.9" class="st3" width="0.2" height="24.4"/>
<rect x="282.3" y="9.9" width="0.2" height="24.4"/>
<path d="M308.9,18.8c0.2-0.1,0.4-0.2,0.5-0.2s0.4,0.1,0.5,0.2l-0.1,6.9c0.5-0.4,1.2-0.7,1.8-0.7c1,0,1.8,1,1.8,2
	c0,1.6-1.7,2.3-2.9,3.4c-0.3,0.3-0.5,0.8-0.9,0.8c-0.3,0-0.5-0.2-0.5-0.5L308.9,18.8z M310,28.4v0.2c0,0.4,0,0.9,0.1,1.3
	c0.9-0.8,1.9-1.6,1.9-2.8c0-0.7-0.3-1.3-0.9-1.3s-1,0.6-1.1,1.3V28.4z M476.9,27c0,1.4-1.1,2.4-2.1,3c-0.7,0.4-1.5,0.7-2.3,0.7
	c-1.1,0-2.2-0.6-2.2-1.8c0-1.4,1.1-2.4,2.1-3c0.7-0.4,1.5-0.7,2.3-0.7C475.8,25.2,476.9,25.8,476.9,27z"/>
<path d="M476.9,22c0,1.4-1.1,2.4-2.1,3c-0.7,0.4-1.5,0.7-2.3,0.7c-1.1,0-2.2-0.6-2.2-1.8c0-1.4,1.1-2.4,2.1-3
	c0.7-0.4,1.5-0.7,2.3-0.7C475.8,20.2,476.9,20.8,476.9,22z"/>
<path d="M476.9,17c0,1.4-1.1,2.4-2.1,3c-0.7,0.4-1.5,0.7-2.3,0.7c-1.1,0-2.2-0.6-2.2-1.8c0-1.4,1.1-2.4,2.1-3
	c0.7-0.4,1.5-0.7,2.3-0.7C475.8,15.2,476.9,15.8,476.9,17z"/>
<rect x="470.5" y="19.1" class="st3" width="0.2" height="25.2"/>
<rect x="470.5" y="19.1" width="0.2" height="25.2"/>
<path d="M467.1,24.6c-0.2,0-0.4-0.2-0.4-0.4v-2.9l-1.7,0.6V25c0,0.2-0.2,0.4-0.4,0.4c-0.2,0-0.4-0.2-0.4-0.4v-2.9l-0.6,0.2h-0.1
	c-0.2,0-0.4-0.2-0.4-0.4v-1.2c0-0.2,0.1-0.3,0.3-0.4l0.9-0.3v-3l-0.6,0.2h-0.1c-0.2,0-0.4-0.2-0.4-0.4v-1.2c0-0.2,0.1-0.3,0.3-0.4
	l0.9-0.3v-3.1c0-0.2,0.2-0.4,0.4-0.4c0.2,0,0.4,0.2,0.4,0.4v2.9l1.7-0.6V11c0-0.2,0.2-0.4,0.4-0.4s0.4,0.2,0.4,0.4v2.9l0.6-0.2h0.1
	c0.2,0,0.4,0.2,0.4,0.4v1.2c0,0.2-0.1,0.3-0.3,0.4l-0.9,0.3v3l0.6-0.2h0.1c0.2,0,0.4,0.2,0.4,0.4v1.2c0,0.2-0.1,0.3-0.3,0.4
	l-0.9,0.3v3.1C467.4,24.4,467.3,24.6,467.1,24.6z M465,19.9l1.7-0.6v-3.2l-1.7,0.6V19.9z"/>
<path d="M399,29.5c0,1.4-1.1,2.4-2.1,3c-0.7,0.4-1.5,0.7-2.3,0.7c-1.1,0-2.2-0.6-2.2-1.8c0-1.4,1.1-2.4,2.1-3
	c0.7-0.4,1.5-0.7,2.3-0.7C397.9,27.7,399,28.3,399,29.5z"/>
<path d="M399,24.5c0,1.4-1.1,2.4-2.1,3c-0.7,0.4-1.5,0.7-2.3,0.7c-1.1,0-2.2-0.6-2.2-1.8c0-1.4,1.1-2.4,2.1-3
	c0.7-0.4,1.5-0.7,2.3-0.7C397.9,22.7,399,23.3,399,24.5z"/>
<path d="M399,19.5c0,1.4-1.1,2.4-2.1,3c-0.7,0.4-1.5,0.7-2.3,0.7c-1.1,0-2.2-0.6-2.2-1.8c0-1.4,1.1-2.4,2.1-3
	c0.7-0.4,1.5-0.7,2.3-0.7C397.9,17.7,399,18.3,399,19.5z"/>
<rect x="392.6" y="21.6" class="st3" width="0.2" height="24.4"/>
<rect x="392.6" y="21.6" width="0.2" height="24.4"/>
<path d="M439.9,27c0,1.4-1.1,2.4-2.1,3c-0.7,0.4-1.5,0.7-2.3,0.7c-1.1,0-2.2-0.6-2.2-1.8c0-1.4,1.1-2.4,2.1-3
	c0.7-0.4,1.5-0.7,2.3-0.7C438.8,25.2,439.9,25.8,439.9,27z"/>
<path d="M439.9,22c0,1.4-1.1,2.4-2.1,3c-0.7,0.4-1.5,0.7-2.3,0.7c-1.1,0-2.2-0.6-2.2-1.8c0-1.4,1.1-2.4,2.1-3
	c0.7-0.4,1.5-0.7,2.3-0.7C438.8,20.2,439.9,20.8,439.9,22z"/>
<path d="M439.9,17c0,1.4-1.1,2.4-2.1,3c-0.7,0.4-1.5,0.7-2.3,0.7c-1.1,0-2.2-0.6-2.2-1.8c0-1.4,1.1-2.4,2.1-3
	c0.7-0.4,1.5-0.7,2.3-0.7C438.8,15.2,439.9,15.8,439.9,17z"/>
<rect x="433.5" y="19.1" class="st3" width="0.2" height="25.2"/>
<rect x="433.5" y="19.1" width="0.2" height="25.2"/>
<path d="M421.8,18.8c0.2-0.1,0.4-0.2,0.5-0.2s0.4,0.1,0.5,0.2l-0.1,6.9c0.5-0.4,1.2-0.7,1.8-0.7c1,0,1.8,1,1.8,2
	c0,1.6-1.7,2.3-2.9,3.4c-0.3,0.3-0.5,0.8-0.9,0.8c-0.3,0-0.5-0.2-0.5-0.5L421.8,18.8z M422.8,28.4v0.2c0,0.4,0,0.9,0.1,1.3
	c0.9-0.8,1.9-1.6,1.9-2.8c0-0.7-0.3-1.3-0.9-1.3s-1,0.6-1.1,1.3V28.4z"/>
<path d="M427,13.8c0.2-0.1,0.4-0.2,0.5-0.2s0.4,0.1,0.5,0.2l-0.1,6.9c0.5-0.4,1.2-0.7,1.8-0.7c1,0,1.8,1,1.8,2
	c0,1.6-1.7,2.3-2.9,3.4c-0.3,0.3-0.5,0.8-0.9,0.8c-0.3,0-0.5-0.2-0.5-0.5L427,13.8z M428.1,23.4v0.2c0,0.4,0,0.9,0.1,1.3
	c0.9-0.8,1.9-1.6,1.9-2.8c0-0.7-0.3-1.3-0.9-1.3s-1,0.6-1.1,1.3V23.4z"/>
<rect x="116.7" y="13.2" class="st3" width="0.2" height="26.1"/>
<rect x="116.7" y="13.2" width="0.2" height="26.1"/>
<path d="M163.5,37c0,1.4-1.1,2.4-2.1,3c-0.7,0.4-1.5,0.7-2.3,0.7c-1.1,0-2.2-0.6-2.2-1.8c0-1.4,1.1-2.4,2.1-3
	c0.7-0.4,1.5-0.7,2.3-0.7C162.4,35.1,163.5,35.7,163.5,37z"/>
<path d="M163.5,32c0,1.4-1.1,2.4-2.1,3c-0.7,0.4-1.5,0.7-2.3,0.7c-1.1,0-2.2-0.6-2.2-1.8c0-1.4,1.1-2.4,2.1-3
	c0.7-0.4,1.5-0.7,2.3-0.7C162.4,30.2,163.5,30.7,163.5,32z"/>
<rect x="35.9" y="15.7" class="st3" width="0.2" height="26.1"/>
<rect x="35.9" y="15.7" width="0.2" height="26.1"/>
<path d="M163.5,27c0,1.4-1.1,2.4-2.1,3c-0.7,0.4-1.5,0.7-2.3,0.7c-1.1,0-2.2-0.6-2.2-1.8c0-1.4,1.1-2.4,2.1-3
	c0.7-0.4,1.5-0.7,2.3-0.7C162.4,25.2,163.5,25.8,163.5,27z"/>
<rect x="163.1" y="11.5" class="st3" width="0.2" height="25.2"/>
<rect x="163.1" y="11.5" width="0.2" height="25.2"/>
<path d="M80.6,41.9c0,1.4-1.1,2.4-2.1,3c-0.7,0.4-1.5,0.7-2.3,0.7c-1.1,0-2.2-0.6-2.2-1.8c0-1.4,1.1-2.4,2.1-3
	c0.7-0.4,1.5-0.7,2.3-0.7C79.5,40.1,80.6,40.7,80.6,41.9z"/>
<path d="M80.6,37c0,1.4-1.1,2.4-2.1,3c-0.7,0.4-1.5,0.7-2.3,0.7c-1.1,0-2.2-0.6-2.2-1.8c0-1.4,1.1-2.4,2.1-3
	c0.7-0.4,1.5-0.7,2.3-0.7C79.5,35.1,80.6,35.7,80.6,37z"/>
<path d="M80.6,32c0,1.4-1.1,2.4-2.1,3c-0.7,0.4-1.5,0.7-2.3,0.7c-1.1,0-2.2-0.6-2.2-1.8c0-1.4,1.1-2.4,2.1-3
	c0.7-0.4,1.5-0.7,2.3-0.7C79.5,30.2,80.6,30.7,80.6,32z"/>
<rect x="80.1" y="15.7" class="st3" width="0.2" height="26.1"/>
<rect x="80.1" y="15.7" width="0.2" height="26.1"/>
<path d="M65.4,49.5c-0.2,0-0.4-0.2-0.4-0.4v-2.9l-1.7,0.6V50c0,0.2-0.2,0.4-0.4,0.4s-0.4-0.2-0.4-0.4v-2.9L62,47.3h-0.1
	c-0.2,0-0.4-0.2-0.4-0.4v-1.2c0-0.2,0.1-0.3,0.3-0.4l0.9-0.3v-3.2L62,42.1h-0.1c-0.2,0-0.4-0.2-0.4-0.4v-1.2c0-0.2,0.1-0.3,0.3-0.4
	l0.9-0.3v-3.1c0-0.2,0.2-0.4,0.4-0.4s0.4,0.2,0.4,0.4v2.9l1.7-0.6v-3.1c0-0.2,0.2-0.4,0.4-0.4s0.4,0.2,0.4,0.4v2.9l0.6-0.2h0.1
	c0.2,0,0.4,0.2,0.4,0.4v1c0,0.2-0.1,0.3-0.3,0.4l-0.9,0.3v3.2l0.6-0.2h0.1c0.2,0,0.4,0.2,0.4,0.4v1.2c0,0.2-0.1,0.3-0.3,0.4L65.8,46
	v3.1C65.8,49.3,65.6,49.5,65.4,49.5z M63.4,44.8l1.7-0.6V41l-1.7,0.6C63.4,41.6,63.4,44.8,63.4,44.8z"/>
<path d="M70.7,39.5c-0.2,0-0.4-0.2-0.4-0.4v-2.9l-1.7,0.6V40c0,0.2-0.2,0.4-0.4,0.4s-0.4-0.2-0.4-0.4v-2.9l-0.6,0.2h-0.1
	c-0.2,0-0.4-0.2-0.4-0.4v-1.2c0-0.2,0.1-0.3,0.3-0.4l0.9-0.3v-3.2L67.3,32h-0.1c-0.2,0-0.4-0.2-0.4-0.4v-1.2c0-0.2,0.1-0.3,0.3-0.4
	l0.9-0.3v-3.1c0-0.2,0.2-0.4,0.4-0.4s0.4,0.2,0.4,0.4v2.9l1.7-0.6v-3.1c0-0.2,0.2-0.4,0.4-0.4s0.4,0.2,0.4,0.4v2.9l0.6-0.2H72
	c0.2,0,0.4,0.2,0.4,0.4V30c0,0.2-0.1,0.3-0.3,0.4l-0.9,0.3v3.2l0.6-0.2h0.1c0.2,0,0.4,0.2,0.4,0.4v1.2c0,0.2-0.1,0.3-0.3,0.4
	L71.1,36v3.1C71.1,39.3,70.9,39.5,70.7,39.5z M68.7,34.8l1.7-0.6V31l-1.7,0.6V34.8z"/>
<path d="M117.1,39.4c0,1.4-1.1,2.4-2.1,3c-0.7,0.4-1.5,0.7-2.3,0.7c-1.1,0-2.2-0.6-2.2-1.8c0-1.4,1.1-2.4,2.1-3
	c0.7-0.4,1.5-0.7,2.3-0.7C116.1,37.6,117.1,38.2,117.1,39.4z"/>
<path d="M117.1,34.5c0,1.4-1.1,2.4-2.1,3c-0.7,0.4-1.5,0.7-2.3,0.7c-1.1,0-2.2-0.6-2.2-1.8c0-1.4,1.1-2.4,2.1-3
	c0.7-0.4,1.5-0.7,2.3-0.7C116.1,32.7,117.1,33.2,117.1,34.5z"/>
<path d="M117.1,29.5c0,1.4-1.1,2.4-2.1,3c-0.7,0.4-1.5,0.7-2.3,0.7c-1.1,0-2.2-0.6-2.2-1.8c0-1.4,1.1-2.4,2.1-3
	c0.7-0.4,1.5-0.7,2.3-0.7C116.1,27.7,117.1,28.3,117.1,29.5z"/>
<path d="M23.5,28.8c0.2-0.1,0.4-0.2,0.5-0.2s0.4,0.1,0.5,0.2l-0.1,6.9c0.5-0.4,1.2-0.7,1.8-0.7c1,0,1.8,1,1.8,2
	c0,1.6-1.7,2.3-2.9,3.4c-0.3,0.3-0.5,0.8-0.9,0.8c-0.3,0-0.5-0.2-0.5-0.5L23.5,28.8z M24.5,38.4v0.2c0,0.4,0,0.9,0.1,1.3
	c0.9-0.8,1.9-1.6,1.9-2.8c0-0.7-0.3-1.3-0.9-1.3s-1,0.6-1.1,1.3V38.4z"/>
<path d="M36.3,41.9c0,1.4-1.1,2.4-2.1,3c-0.7,0.4-1.5,0.7-2.3,0.7c-1.1,0-2.2-0.6-2.2-1.8c0-1.4,1.1-2.4,2.1-3
	c0.7-0.4,1.5-0.7,2.3-0.7C35.3,40.1,36.3,40.7,36.3,41.9z"/>
<path d="M238.6,34.5c0,1.4-1.1,2.4-2.1,3c-0.7,0.4-1.5,0.7-2.3,0.7c-1.1,0-2.2-0.6-2.2-1.8c0-1.4,1.1-2.4,2.1-3
	c0.7-0.4,1.5-0.7,2.3-0.7C237.5,32.7,238.6,33.2,238.6,34.5z"/>
<path d="M238.6,29.5c0,1.4-1.1,2.4-2.1,3c-0.7,0.4-1.5,0.7-2.3,0.7c-1.1,0-2.2-0.6-2.2-1.8c0-1.4,1.1-2.4,2.1-3
	c0.7-0.4,1.5-0.7,2.3-0.7C237.5,27.7,238.6,28.3,238.6,29.5z"/>
<path d="M238.6,24.5c0,1.4-1.1,2.4-2.1,3c-0.7,0.4-1.5,0.7-2.3,0.7c-1.1,0-2.2-0.6-2.2-1.8c0-1.4,1.1-2.4,2.1-3
	c0.7-0.4,1.5-0.7,2.3-0.7C237.5,22.7,238.6,23.3,238.6,24.5z"/>
<rect x="238.1" y="9.9" class="st3" width="0.2" height="24.4"/>
<rect x="238.1" y="9.9" width="0.2" height="24.4"/>
<path d="M225.8,21.3c0.2-0.1,0.4-0.2,0.5-0.2s0.4,0.1,0.5,0.2l-0.1,6.9c0.5-0.4,1.2-0.7,1.8-0.7c1,0,1.8,1,1.8,2
	c0,1.6-1.7,2.3-2.9,3.4c-0.3,0.3-0.5,0.8-0.9,0.8c-0.3,0-0.5-0.2-0.5-0.5L225.8,21.3z M226.8,30.9v0.2c0,0.4,0,0.9,0.1,1.3
	c0.9-0.8,1.9-1.6,1.9-2.8c0-0.7-0.3-1.3-0.9-1.3c-0.6,0-1,0.6-1.1,1.3V30.9z"/>
<path d="M147.9,28.8c0.2-0.1,0.4-0.2,0.5-0.2s0.4,0.1,0.5,0.2l-0.1,6.9c0.5-0.4,1.2-0.7,1.8-0.7c1,0,1.8,1,1.8,2
	c0,1.6-1.7,2.3-2.9,3.4c-0.3,0.3-0.5,0.8-0.9,0.8c-0.3,0-0.5-0.2-0.5-0.5L147.9,28.8z M148.9,38.4v0.2c0,0.4,0,0.9,0.1,1.3
	c0.9-0.8,1.9-1.6,1.9-2.8c0-0.7-0.3-1.3-0.9-1.3c-0.6,0-1,0.6-1.1,1.3V38.4z"/>
<path d="M142.4,23.8c0.2-0.1,0.4-0.2,0.5-0.2s0.4,0.1,0.5,0.2l-0.1,6.9c0.5-0.4,1.2-0.7,1.8-0.7c1,0,1.8,1,1.8,2
	c0,1.6-1.7,2.3-2.9,3.4c-0.3,0.3-0.5,0.8-0.9,0.8c-0.3,0-0.5-0.2-0.5-0.5L142.4,23.8z M143.4,33.4v0.2c0,0.4,0,0.9,0.1,1.3
	c0.9-0.8,1.9-1.6,1.9-2.8c0-0.7-0.3-1.3-0.9-1.3c-0.6,0-1,0.6-1.1,1.3V33.4z"/>
<path d="M150.7,18.8c0.2-0.1,0.4-0.2,0.5-0.2s0.4,0.1,0.5,0.2l-0.1,6.9c0.5-0.4,1.2-0.7,1.8-0.7c1,0,1.8,1,1.8,2
	c0,1.6-1.7,2.3-2.9,3.4c-0.3,0.3-0.5,0.8-0.9,0.8c-0.3,0-0.5-0.2-0.5-0.5L150.7,18.8z M151.7,28.4v0.2c0,0.4,0,0.9,0.1,1.3
	c0.9-0.8,1.9-1.6,1.9-2.8c0-0.7-0.3-1.3-0.9-1.3c-0.6,0-1,0.6-1.1,1.3V28.4z"/>
<path d="M12.6,27.7c3.1,0,5.1,2.6,5.1,5.2c0,1.5-0.7,3.1-2.1,4.2c-0.4,0.3-0.9,0.6-1.5,0.7c0.1,0.7,0.1,1.4,0.1,2.1
	c0,0.4,0,0.8,0,1.2c-0.1,2.4-1.8,4.5-4.1,4.5c-2.2,0-3.9-1.8-3.9-3.9c0-1.2,1.1-2.1,2.2-2.1s1.9,0.9,1.9,2.1c0,1-0.9,1.9-1.9,1.9
	c-0.2,0-0.4,0-0.6-0.1c0.5,0.8,1.4,1.3,2.3,1.3c1.9,0,3.1-1.8,3.2-3.8c0-0.4,0-0.7,0-1.1c0-0.6,0-1.2-0.1-1.8
	c-0.6,0.1-1.2,0.2-1.8,0.2c-3.7,0-6.6-3.4-6.6-7.5c0-3.5,2.6-6.1,4.9-8.8c-0.4-1.2-0.7-2.5-0.9-3.8c-0.1-1-0.1-2.1-0.1-3.1
	c0-2.3,1.1-4.5,3-5.8c0.1,0,0.1-0.1,0.2-0.1c0.1,0,0.1,0,0.2,0.1c1.4,1.7,2.7,4.9,2.7,7.1c0,2.8-1.7,5.1-3.6,7.3
	c0.4,1.4,0.8,2.8,1.1,4.1C12.4,27.7,12.5,27.7,12.6,27.7z M11.6,37.3c0.6,0,1.1,0,1.6-0.1c-0.3-2.5-0.7-4.9-1.3-7.3
	c-1.6,0.2-2.5,1.2-2.5,2.4c0,0.9,0.5,1.8,1.6,2.5c0.1,0.1,0.1,0.2,0.1,0.3c0,0.2-0.2,0.4-0.4,0.4c-0.1,0-0.1,0-0.2,0
	c-1.6-0.9-2.3-2.3-2.3-3.7c0-1.8,1.2-3.5,3.2-3.9c-0.3-1.2-0.6-2.3-0.9-3.5c-2.1,2.4-4.2,4.8-4.2,8C6.3,35,8.9,37.3,11.6,37.3z
	 M9.8,17.3c0,1.5,0.4,2.7,0.7,3.9c1.6-1.9,2.9-3.9,2.9-6.5c0-1.1-0.1-1.6-0.4-2.6C11,13,9.8,15.1,9.8,17.3z M16.3,33.7
	c0-1.8-1.3-3.6-3.4-3.8c0.5,2.3,0.9,4.6,1.2,7.1C15.4,36.5,16.3,35.1,16.3,33.7z M36.3,32c0,1.4-1.1,2.4-2.1,3
	c-0.7,0.4-1.5,0.7-2.3,0.7c-1.1,0-2.2-0.6-2.2-1.8c0-1.4,1.1-2.4,2.1-3c0.7-0.4,1.5-0.7,2.3-0.7C35.3,30.2,36.3,30.7,36.3,32z"/>
<path d="M36.3,37c0,1.4-1.1,2.4-2.1,3c-0.7,0.4-1.5,0.7-2.3,0.7c-1.1,0-2.2-0.6-2.2-1.8c0-1.4,1.1-2.4,2.1-3
	c0.7-0.4,1.5-0.7,2.3-0.7C35.3,35.1,36.3,35.7,36.3,37z M200.1,37c0,1.4-1.1,2.4-2.1,3c-0.7,0.4-1.5,0.7-2.3,0.7
	c-1.1,0-2.2-0.6-2.2-1.8c0-1.4,1.1-2.4,2.1-3c0.7-0.4,1.5-0.7,2.3-0.7C199,35.1,200.1,35.7,200.1,37z"/>
<path d="M200.1,32c0,1.4-1.1,2.4-2.1,3c-0.7,0.4-1.5,0.7-2.3,0.7c-1.1,0-2.2-0.6-2.2-1.8c0-1.4,1.1-2.4,2.1-3
	c0.7-0.4,1.5-0.7,2.3-0.7C199,30.2,200.1,30.7,200.1,32z"/>
<path d="M200.1,27c0,1.4-1.1,2.4-2.1,3c-0.7,0.4-1.5,0.7-2.3,0.7c-1.1,0-2.2-0.6-2.2-1.8c0-1.4,1.1-2.4,2.1-3
	c0.7-0.4,1.5-0.7,2.3-0.7C199,25.2,200.1,25.8,200.1,27z"/>
<rect x="199.6" y="11.5" class="st3" width="0.2" height="25.2"/>
<rect x="199.6" y="11.5" width="0.2" height="25.2"/>
</svg>
