<?xml version="1.0" encoding="utf-8"?>
<!-- Generator: Adobe Illustrator 21.1.0, SVG Export Plug-In . SVG Version: 6.00 Build 0)  -->
<svg version="1.1" id="Ebene_1" xmlns="http://www.w3.org/2000/svg" xmlns:xlink="http://www.w3.org/1999/xlink" x="0px" y="0px"
	 viewBox="0 0 500 80" style="enable-background:new 0 0 500 80;" xml:space="preserve">
<style type="text/css">
	.st0{fill:none;stroke:#000000;stroke-width:0.9465;stroke-miterlimit:10;}
	.st1{fill:none;stroke:#000000;stroke-width:0.9963;stroke-linecap:round;stroke-miterlimit:10;}
	.st2{fill:none;stroke:#000000;stroke-width:0.4981;stroke-linecap:round;stroke-miterlimit:10;}
	.st3{fill:none;stroke:#000000;stroke-width:0.3985;stroke-linecap:round;stroke-linejoin:round;stroke-miterlimit:10;}
</style>
<line class="st0" x1="139.3" y1="47.9" x2="139.3" y2="28"/>
<line class="st0" x1="383.7" y1="47.9" x2="383.7" y2="28"/>
<line class="st0" x1="102.7" y1="47.9" x2="102.7" y2="28"/>
<line class="st0" x1="341.7" y1="47.9" x2="341.7" y2="28"/>
<line class="st0" x1="418.7" y1="47.9" x2="418.7" y2="28"/>
<line class="st0" x1="185.7" y1="47.9" x2="185.7" y2="28"/>
<line class="st0" x1="58.5" y1="47.9" x2="58.5" y2="28"/>
<line class="st0" x1="304.9" y1="47.9" x2="304.9" y2="28"/>
<line class="st0" x1="459.6" y1="47.9" x2="459.6" y2="28"/>
<line class="st0" x1="222.3" y1="47.9" x2="222.3" y2="28"/>
<line class="st0" x1="260.7" y1="47.9" x2="260.7" y2="28"/>
<line class="st0" x1="496.5" y1="47.9" x2="496.5" y2="28"/>
<line class="st1" x1="28.6" y1="52.9" x2="37.5" y2="52.9"/>
<line class="st1" x1="72.9" y1="52.9" x2="81.7" y2="52.9"/>
<line class="st2" x1="1.1" y1="47.9" x2="496.7" y2="47.9"/>
<line class="st2" x1="1.1" y1="42.9" x2="496.7" y2="42.9"/>
<line class="st2" x1="1.1" y1="37.9" x2="496.7" y2="37.9"/>
<line class="st2" x1="1.1" y1="33" x2="496.7" y2="33"/>
<line class="st2" x1="1.1" y1="28" x2="496.7" y2="28"/>
<path d="M282.8,34.5c0,1.4-1.1,2.4-2.1,3c-0.7,0.4-1.5,0.7-2.3,0.7c-1.1,0-2.2-0.6-2.2-1.8c0-1.4,1.1-2.4,2.1-3
	c0.7-0.4,1.5-0.7,2.3-0.7C281.7,32.7,282.8,33.3,282.8,34.5z"/>
<path d="M363.7,42c0,1.4-1.1,2.4-2.1,3c-0.7,0.4-1.5,0.7-2.3,0.7c-1.1,0-2.2-0.6-2.2-1.8c0-1.4,1.1-2.4,2.1-3
	c0.7-0.4,1.5-0.7,2.3-0.7C362.7,40.2,363.7,40.7,363.7,42z"/>
<path d="M363.7,37c0,1.4-1.1,2.4-2.1,3c-0.7,0.4-1.5,0.7-2.3,0.7c-1.1,0-2.2-0.6-2.2-1.8c0-1.4,1.1-2.4,2.1-3
	c0.7-0.4,1.5-0.7,2.3-0.7C362.7,35.2,363.7,35.8,363.7,37z"/>
<path d="M363.7,32c0,1.4-1.1,2.4-2.1,3c-0.7,0.4-1.5,0.7-2.3,0.7c-1.1,0-2.2-0.6-2.2-1.8c0-1.4,1.1-2.4,2.1-3
	c0.7-0.4,1.5-0.7,2.3-0.7C362.7,30.2,363.7,30.8,363.7,32z"/>
<rect x="357.4" y="34.1" class="st3" width="0.2" height="23.6"/>
<rect x="357.4" y="34.1" width="0.2" height="23.6"/>
<path d="M282.8,39.5c0,1.4-1.1,2.4-2.1,3c-0.7,0.4-1.5,0.7-2.3,0.7c-1.1,0-2.2-0.6-2.2-1.8c0-1.4,1.1-2.4,2.1-3
	c0.7-0.4,1.5-0.7,2.3-0.7C281.7,37.7,282.8,38.3,282.8,39.5z"/>
<path d="M282.8,44.5c0,1.4-1.1,2.4-2.1,3c-0.7,0.4-1.5,0.7-2.3,0.7c-1.1,0-2.2-0.6-2.2-1.8c0-1.4,1.1-2.4,2.1-3
	c0.7-0.4,1.5-0.7,2.3-0.7C281.7,42.7,282.8,43.2,282.8,44.5z"/>
<path d="M348.6,49.5c-0.2,0-0.4-0.2-0.4-0.4v-2.9l-1.7,0.6V50c0,0.2-0.2,0.4-0.4,0.4s-0.4-0.2-0.4-0.4v-2.9l-0.6,0.2
	c0,0-0.1,0-0.1,0c-0.2,0-0.4-0.2-0.4-0.4v-1.2c0-0.2,0.1-0.3,0.3-0.4l0.9-0.3v-3.2l-0.6,0.2c0,0-0.1,0-0.1,0c-0.2,0-0.4-0.2-0.4-0.4
	v-1.2c0-0.2,0.1-0.3,0.3-0.4l0.9-0.3v-3.1c0-0.2,0.2-0.4,0.4-0.4s0.4,0.2,0.4,0.4v2.9l1.7-0.6v-3.1c0-0.2,0.2-0.4,0.4-0.4
	s0.4,0.2,0.4,0.4v2.9l0.6-0.2c0,0,0.1,0,0.1,0c0.2,0,0.4,0.2,0.4,0.4V40c0,0.2-0.1,0.3-0.3,0.4l-0.9,0.3v3.2l0.6-0.2
	c0,0,0.1,0,0.1,0c0.2,0,0.4,0.2,0.4,0.4v1.2c0,0.2-0.1,0.3-0.3,0.4L349,46v3.1C349,49.3,348.8,49.5,348.6,49.5z M346.6,44.8l1.7-0.6
	V41l-1.7,0.6V44.8z"/>
<path d="M353.9,39.5c-0.2,0-0.4-0.2-0.4-0.4v-2.9l-1.7,0.6V40c0,0.2-0.2,0.4-0.4,0.4s-0.4-0.2-0.4-0.4v-2.9l-0.6,0.2
	c0,0-0.1,0-0.1,0c-0.2,0-0.4-0.2-0.4-0.4v-1.2c0-0.2,0.1-0.3,0.3-0.4l0.9-0.3v-3.2l-0.6,0.2c0,0-0.1,0-0.1,0c-0.2,0-0.4-0.2-0.4-0.4
	v-1.2c0-0.2,0.1-0.3,0.3-0.4l0.9-0.3v-3.1c0-0.2,0.2-0.4,0.4-0.4s0.4,0.2,0.4,0.4v2.9l1.7-0.6v-3.1c0-0.2,0.2-0.4,0.4-0.4
	s0.4,0.2,0.4,0.4v2.9l0.6-0.2c0,0,0.1,0,0.1,0c0.2,0,0.4,0.2,0.4,0.4v1.2c0,0.2-0.1,0.3-0.3,0.4l-0.9,0.3V34l0.6-0.2
	c0,0,0.1,0,0.1,0c0.2,0,0.4,0.2,0.4,0.4v1.2c0,0.2-0.1,0.3-0.3,0.4l-0.9,0.3v3.1C354.3,39.4,354.1,39.5,353.9,39.5z M351.9,34.8
	l1.7-0.6v-3.2l-1.7,0.6V34.8z"/>
<path d="M267.6,52c-0.2,0-0.4-0.2-0.4-0.4v-2.9l-1.7,0.6v3.1c0,0.2-0.2,0.4-0.4,0.4s-0.4-0.2-0.4-0.4v-2.9l-0.6,0.2c0,0-0.1,0-0.1,0
	c-0.2,0-0.4-0.2-0.4-0.4v-1.2c0-0.2,0.1-0.3,0.3-0.4l0.9-0.3v-3.2l-0.6,0.2c0,0-0.1,0-0.1,0c-0.2,0-0.4-0.2-0.4-0.4V43
	c0-0.2,0.1-0.3,0.3-0.4l0.9-0.3v-3.1c0-0.2,0.2-0.4,0.4-0.4s0.4,0.2,0.4,0.4v2.9l1.7-0.6v-3.1c0-0.2,0.2-0.4,0.4-0.4
	s0.4,0.2,0.4,0.4v2.9l0.6-0.2c0,0,0.1,0,0.1,0c0.2,0,0.4,0.2,0.4,0.4v1.2c0,0.2-0.1,0.3-0.3,0.4l-0.9,0.3v3.2l0.6-0.2
	c0,0,0.1,0,0.1,0c0.2,0,0.4,0.2,0.4,0.4v1.2c0,0.2-0.1,0.3-0.3,0.4l-0.9,0.3v3.1C268,51.8,267.8,52,267.6,52z M265.6,47.3l1.7-0.6
	v-3.2l-1.7,0.6V47.3z"/>
<path d="M272.9,42c-0.2,0-0.4-0.2-0.4-0.4v-2.9l-1.7,0.6v3.1c0,0.2-0.2,0.4-0.4,0.4s-0.4-0.2-0.4-0.4v-2.9l-0.6,0.2c0,0-0.1,0-0.1,0
	c-0.2,0-0.4-0.2-0.4-0.4v-1.2c0-0.2,0.1-0.3,0.3-0.4l0.9-0.3v-3.2l-0.6,0.2c0,0-0.1,0-0.1,0c-0.2,0-0.4-0.2-0.4-0.4v-1.2
	c0-0.2,0.1-0.3,0.3-0.4l0.9-0.3v-3.1c0-0.2,0.2-0.4,0.4-0.4s0.4,0.2,0.4,0.4v2.9l1.7-0.6v-3.1c0-0.2,0.2-0.4,0.4-0.4
	s0.4,0.2,0.4,0.4v2.9l0.6-0.2c0,0,0.1,0,0.1,0c0.2,0,0.4,0.2,0.4,0.4v1.2c0,0.2-0.1,0.3-0.3,0.4l-0.9,0.3v3.2l0.6-0.2
	c0,0,0.1,0,0.1,0c0.2,0,0.4,0.2,0.4,0.4v1.2c0,0.2-0.1,0.3-0.3,0.4l-0.9,0.3v3.1C273.3,41.9,273.1,42,272.9,42z M270.9,37.3l1.7-0.6
	v-3.2l-1.7,0.6V37.3z"/>
<path d="M321.8,42c0,1.4-1.1,2.4-2.1,3c-0.7,0.4-1.5,0.7-2.3,0.7c-1.1,0-2.2-0.6-2.2-1.8c0-1.4,1.1-2.4,2.1-3
	c0.7-0.4,1.5-0.7,2.3-0.7C320.7,40.2,321.8,40.7,321.8,42z"/>
<path d="M321.8,37c0,1.4-1.1,2.4-2.1,3c-0.7,0.4-1.5,0.7-2.3,0.7c-1.1,0-2.2-0.6-2.2-1.8c0-1.4,1.1-2.4,2.1-3
	c0.7-0.4,1.5-0.7,2.3-0.7C320.7,35.2,321.8,35.8,321.8,37z"/>
<path d="M321.8,32c0,1.4-1.1,2.4-2.1,3c-0.7,0.4-1.5,0.7-2.3,0.7c-1.1,0-2.2-0.6-2.2-1.8c0-1.4,1.1-2.4,2.1-3
	c0.7-0.4,1.5-0.7,2.3-0.7C320.7,30.2,321.8,30.8,321.8,32z"/>
<rect x="315.4" y="34.1" class="st3" width="0.2" height="23.6"/>
<rect x="315.4" y="34.1" width="0.2" height="23.6"/>
<rect x="282.3" y="19.9" class="st3" width="0.2" height="24.4"/>
<rect x="282.3" y="19.9" width="0.2" height="24.4"/>
<path d="M308.9,28.8c0.2-0.1,0.4-0.2,0.5-0.2s0.4,0.1,0.5,0.2l-0.1,6.9c0.5-0.4,1.2-0.7,1.8-0.7c1,0,1.8,1,1.8,2
	c0,1.6-1.7,2.3-2.9,3.4c-0.3,0.3-0.5,0.8-0.9,0.8c-0.3,0-0.5-0.2-0.5-0.5L308.9,28.8z M310,38.4v0.2c0,0.4,0,0.9,0.1,1.3
	c0.9-0.8,1.9-1.6,1.9-2.8c0-0.7-0.3-1.3-0.9-1.3c-0.6,0-1,0.6-1.1,1.3L310,38.4z M476.9,37c0,1.4-1.1,2.4-2.1,3
	c-0.7,0.4-1.5,0.7-2.3,0.7c-1.1,0-2.2-0.6-2.2-1.8c0-1.4,1.1-2.4,2.1-3c0.7-0.4,1.5-0.7,2.3-0.7C475.8,35.2,476.9,35.8,476.9,37z"/>
<path d="M476.9,32c0,1.4-1.1,2.4-2.1,3c-0.7,0.4-1.5,0.7-2.3,0.7c-1.1,0-2.2-0.6-2.2-1.8c0-1.4,1.1-2.4,2.1-3
	c0.7-0.4,1.5-0.7,2.3-0.7C475.8,30.2,476.9,30.8,476.9,32z"/>
<path d="M476.9,27c0,1.4-1.1,2.4-2.1,3c-0.7,0.4-1.5,0.7-2.3,0.7c-1.1,0-2.2-0.6-2.2-1.8c0-1.4,1.1-2.4,2.1-3
	c0.7-0.4,1.5-0.7,2.3-0.7C475.8,25.2,476.9,25.8,476.9,27z"/>
<rect x="470.5" y="29.1" class="st3" width="0.2" height="25.2"/>
<rect x="470.5" y="29.1" width="0.2" height="25.2"/>
<path d="M467.1,34.6c-0.2,0-0.4-0.2-0.4-0.4v-2.9l-1.7,0.6v3.1c0,0.2-0.2,0.4-0.4,0.4c-0.2,0-0.4-0.2-0.4-0.4v-2.9l-0.6,0.2
	c0,0-0.1,0-0.1,0c-0.2,0-0.4-0.2-0.4-0.4v-1.2c0-0.2,0.1-0.3,0.3-0.4l0.9-0.3V27l-0.6,0.2c0,0-0.1,0-0.1,0c-0.2,0-0.4-0.2-0.4-0.4
	v-1.2c0-0.2,0.1-0.3,0.3-0.4l0.9-0.3v-3.1c0-0.2,0.2-0.4,0.4-0.4c0.2,0,0.4,0.2,0.4,0.4v2.9l1.7-0.6v-3.1c0-0.2,0.2-0.4,0.4-0.4
	s0.4,0.2,0.4,0.4v2.9l0.6-0.2c0,0,0.1,0,0.1,0c0.2,0,0.4,0.2,0.4,0.4v1.2c0,0.2-0.1,0.3-0.3,0.4l-0.9,0.3V29l0.6-0.2
	c0,0,0.1,0,0.1,0c0.2,0,0.4,0.2,0.4,0.4v1.2c0,0.2-0.1,0.3-0.3,0.4l-0.9,0.3v3.1C467.4,34.4,467.3,34.6,467.1,34.6z M465,29.9
	l1.7-0.6v-3.2l-1.7,0.6V29.9z"/>
<path d="M399,39.5c0,1.4-1.1,2.4-2.1,3c-0.7,0.4-1.5,0.7-2.3,0.7c-1.1,0-2.2-0.6-2.2-1.8c0-1.4,1.1-2.4,2.1-3
	c0.7-0.4,1.5-0.7,2.3-0.7C397.9,37.7,399,38.3,399,39.5z"/>
<path d="M399,34.5c0,1.4-1.1,2.4-2.1,3c-0.7,0.4-1.5,0.7-2.3,0.7c-1.1,0-2.2-0.6-2.2-1.8c0-1.4,1.1-2.4,2.1-3
	c0.7-0.4,1.5-0.7,2.3-0.7C397.9,32.7,399,33.3,399,34.5z"/>
<path d="M399,29.5c0,1.4-1.1,2.4-2.1,3c-0.7,0.4-1.5,0.7-2.3,0.7c-1.1,0-2.2-0.6-2.2-1.8c0-1.4,1.1-2.4,2.1-3
	c0.7-0.4,1.5-0.7,2.3-0.7C397.9,27.7,399,28.3,399,29.5z"/>
<rect x="392.6" y="31.6" class="st3" width="0.2" height="24.4"/>
<rect x="392.6" y="31.6" width="0.2" height="24.4"/>
<path d="M439.9,37c0,1.4-1.1,2.4-2.1,3c-0.7,0.4-1.5,0.7-2.3,0.7c-1.1,0-2.2-0.6-2.2-1.8c0-1.4,1.1-2.4,2.1-3
	c0.7-0.4,1.5-0.7,2.3-0.7C438.8,35.2,439.9,35.8,439.9,37z"/>
<path d="M439.9,32c0,1.4-1.1,2.4-2.1,3c-0.7,0.4-1.5,0.7-2.3,0.7c-1.1,0-2.2-0.6-2.2-1.8c0-1.4,1.1-2.4,2.1-3
	c0.7-0.4,1.5-0.7,2.3-0.7C438.8,30.2,439.9,30.8,439.9,32z"/>
<path d="M439.9,27c0,1.4-1.1,2.4-2.1,3c-0.7,0.4-1.5,0.7-2.3,0.7c-1.1,0-2.2-0.6-2.2-1.8c0-1.4,1.1-2.4,2.1-3
	c0.7-0.4,1.5-0.7,2.3-0.7C438.8,25.2,439.9,25.8,439.9,27z"/>
<rect x="433.5" y="29.1" class="st3" width="0.2" height="25.2"/>
<rect x="433.5" y="29.1" width="0.2" height="25.2"/>
<path d="M421.8,28.8c0.2-0.1,0.4-0.2,0.5-0.2s0.4,0.1,0.5,0.2l-0.1,6.9c0.5-0.4,1.2-0.7,1.8-0.7c1,0,1.8,1,1.8,2
	c0,1.6-1.7,2.3-2.9,3.4c-0.3,0.3-0.5,0.8-0.9,0.8c-0.3,0-0.5-0.2-0.5-0.5L421.8,28.8z M422.8,38.4v0.2c0,0.4,0,0.9,0.1,1.3
	c0.9-0.8,1.9-1.6,1.9-2.8c0-0.7-0.3-1.3-0.9-1.3c-0.6,0-1,0.6-1.1,1.3L422.8,38.4z"/>
<path d="M427,23.8c0.2-0.1,0.4-0.2,0.5-0.2s0.4,0.1,0.5,0.2l-0.1,6.9c0.5-0.4,1.2-0.7,1.8-0.7c1,0,1.8,1,1.8,2
	c0,1.6-1.7,2.3-2.9,3.4c-0.3,0.3-0.5,0.8-0.9,0.8c-0.3,0-0.5-0.2-0.5-0.5L427,23.8z M428.1,33.4v0.2c0,0.4,0,0.9,0.1,1.3
	c0.9-0.8,1.9-1.6,1.9-2.8c0-0.7-0.3-1.3-0.9-1.3c-0.6,0-1,0.6-1.1,1.3L428.1,33.4z"/>
<rect x="116.7" y="23.2" class="st3" width="0.2" height="26.1"/>
<rect x="116.7" y="23.2" width="0.2" height="26.1"/>
<path d="M163.5,47c0,1.4-1.1,2.4-2.1,3c-0.7,0.4-1.5,0.7-2.3,0.7c-1.1,0-2.2-0.6-2.2-1.8c0-1.4,1.1-2.4,2.1-3
	c0.7-0.4,1.5-0.7,2.3-0.7C162.4,45.1,163.5,45.7,163.5,47z"/>
<path d="M163.5,42c0,1.4-1.1,2.4-2.1,3c-0.7,0.4-1.5,0.7-2.3,0.7c-1.1,0-2.2-0.6-2.2-1.8c0-1.4,1.1-2.4,2.1-3
	c0.7-0.4,1.5-0.7,2.3-0.7C162.4,40.2,163.5,40.7,163.5,42z"/>
<rect x="35.9" y="25.7" class="st3" width="0.2" height="26.1"/>
<rect x="35.9" y="25.7" width="0.2" height="26.1"/>
<path d="M163.5,37c0,1.4-1.1,2.4-2.1,3c-0.7,0.4-1.5,0.7-2.3,0.7c-1.1,0-2.2-0.6-2.2-1.8c0-1.4,1.1-2.4,2.1-3
	c0.7-0.4,1.5-0.7,2.3-0.7C162.4,35.2,163.5,35.8,163.5,37z"/>
<rect x="163.1" y="21.5" class="st3" width="0.2" height="25.2"/>
<rect x="163.1" y="21.5" width="0.2" height="25.2"/>
<path d="M80.6,51.9c0,1.4-1.1,2.4-2.1,3c-0.7,0.4-1.5,0.7-2.3,0.7c-1.1,0-2.2-0.6-2.2-1.8c0-1.4,1.1-2.4,2.1-3
	c0.7-0.4,1.5-0.7,2.3-0.7C79.5,50.1,80.6,50.7,80.6,51.9z"/>
<path d="M80.6,47c0,1.4-1.1,2.4-2.1,3c-0.7,0.4-1.5,0.7-2.3,0.7c-1.1,0-2.2-0.6-2.2-1.8c0-1.4,1.1-2.4,2.1-3
	c0.7-0.4,1.5-0.7,2.3-0.7C79.5,45.1,80.6,45.7,80.6,47z"/>
<path d="M80.6,42c0,1.4-1.1,2.4-2.1,3c-0.7,0.4-1.5,0.7-2.3,0.7c-1.1,0-2.2-0.6-2.2-1.8c0-1.4,1.1-2.4,2.1-3
	c0.7-0.4,1.5-0.7,2.3-0.7C79.5,40.2,80.6,40.7,80.6,42z"/>
<rect x="80.1" y="25.7" class="st3" width="0.2" height="26.1"/>
<rect x="80.1" y="25.7" width="0.2" height="26.1"/>
<path d="M65.4,59.5c-0.2,0-0.4-0.2-0.4-0.4v-2.9l-1.7,0.6V60c0,0.2-0.2,0.4-0.4,0.4s-0.4-0.2-0.4-0.4v-2.9L62,57.3c0,0-0.1,0-0.1,0
	c-0.2,0-0.4-0.2-0.4-0.4v-1.2c0-0.2,0.1-0.3,0.3-0.4l0.9-0.3v-3.2L62,52.1c0,0-0.1,0-0.1,0c-0.2,0-0.4-0.2-0.4-0.4v-1.2
	c0-0.2,0.1-0.3,0.3-0.4l0.9-0.3v-3.1c0-0.2,0.2-0.4,0.4-0.4s0.4,0.2,0.4,0.4v2.9l1.7-0.6v-3.1c0-0.2,0.2-0.4,0.4-0.4
	s0.4,0.2,0.4,0.4v2.9l0.6-0.2c0,0,0.1,0,0.1,0c0.2,0,0.4,0.2,0.4,0.4V50c0,0.2-0.1,0.3-0.3,0.4l-0.9,0.3v3.2l0.6-0.2
	c0,0,0.1,0,0.1,0c0.2,0,0.4,0.2,0.4,0.4v1.2c0,0.2-0.1,0.3-0.3,0.4l-0.9,0.3v3.1C65.8,59.3,65.6,59.5,65.4,59.5z M63.4,54.8l1.7-0.6
	V51l-1.7,0.6V54.8z"/>
<path d="M70.7,49.5c-0.2,0-0.4-0.2-0.4-0.4v-2.9l-1.7,0.6V50c0,0.2-0.2,0.4-0.4,0.4s-0.4-0.2-0.4-0.4v-2.9l-0.6,0.2c0,0-0.1,0-0.1,0
	c-0.2,0-0.4-0.2-0.4-0.4v-1.2c0-0.2,0.1-0.3,0.3-0.4l0.9-0.3v-3.2l-0.6,0.2c0,0-0.1,0-0.1,0c-0.2,0-0.4-0.2-0.4-0.4v-1.2
	c0-0.2,0.1-0.3,0.3-0.4l0.9-0.3v-3.1c0-0.2,0.2-0.4,0.4-0.4s0.4,0.2,0.4,0.4v2.9l1.7-0.6v-3.1c0-0.2,0.2-0.4,0.4-0.4
	s0.4,0.2,0.4,0.4v2.9l0.6-0.2c0,0,0.1,0,0.1,0c0.2,0,0.4,0.2,0.4,0.4V40c0,0.2-0.1,0.3-0.3,0.4l-0.9,0.3v3.2l0.6-0.2
	c0,0,0.1,0,0.1,0c0.2,0,0.4,0.2,0.4,0.4v1.2c0,0.2-0.1,0.3-0.3,0.4L71.1,46v3.1C71.1,49.3,70.9,49.5,70.7,49.5z M68.7,44.8l1.7-0.6
	V41l-1.7,0.6V44.8z"/>
<path d="M117.1,49.4c0,1.4-1.1,2.4-2.1,3c-0.7,0.4-1.5,0.7-2.3,0.7c-1.1,0-2.2-0.6-2.2-1.8c0-1.4,1.1-2.4,2.1-3
	c0.7-0.4,1.5-0.7,2.3-0.7C116.1,47.6,117.1,48.2,117.1,49.4z"/>
<path d="M117.1,44.5c0,1.4-1.1,2.4-2.1,3c-0.7,0.4-1.5,0.7-2.3,0.7c-1.1,0-2.2-0.6-2.2-1.8c0-1.4,1.1-2.4,2.1-3
	c0.7-0.4,1.5-0.7,2.3-0.7C116.1,42.7,117.1,43.2,117.1,44.5z"/>
<path d="M117.1,39.5c0,1.4-1.1,2.4-2.1,3c-0.7,0.4-1.5,0.7-2.3,0.7c-1.1,0-2.2-0.6-2.2-1.8c0-1.4,1.1-2.4,2.1-3
	c0.7-0.4,1.5-0.7,2.3-0.7C116.1,37.7,117.1,38.3,117.1,39.5z"/>
<path d="M23.5,38.8c0.2-0.1,0.4-0.2,0.5-0.2s0.4,0.1,0.5,0.2l-0.1,6.9c0.5-0.4,1.2-0.7,1.8-0.7c1,0,1.8,1,1.8,2
	c0,1.6-1.7,2.3-2.9,3.4c-0.3,0.3-0.5,0.8-0.9,0.8c-0.3,0-0.5-0.2-0.5-0.5L23.5,38.8z M24.5,48.4v0.2c0,0.4,0,0.9,0.1,1.3
	c0.9-0.8,1.9-1.6,1.9-2.8c0-0.7-0.3-1.3-0.9-1.3c-0.6,0-1,0.6-1.1,1.3L24.5,48.4z"/>
<path d="M36.3,51.9c0,1.4-1.1,2.4-2.1,3c-0.7,0.4-1.5,0.7-2.3,0.7c-1.1,0-2.2-0.6-2.2-1.8c0-1.4,1.1-2.4,2.1-3
	c0.7-0.4,1.5-0.7,2.3-0.7C35.3,50.1,36.3,50.7,36.3,51.9z"/>
<path d="M238.6,44.5c0,1.4-1.1,2.4-2.1,3c-0.7,0.4-1.5,0.7-2.3,0.7c-1.1,0-2.2-0.6-2.2-1.8c0-1.4,1.1-2.4,2.1-3
	c0.7-0.4,1.5-0.7,2.3-0.7C237.5,42.7,238.6,43.2,238.6,44.5z"/>
<path d="M238.6,39.5c0,1.4-1.1,2.4-2.1,3c-0.7,0.4-1.5,0.7-2.3,0.7c-1.1,0-2.2-0.6-2.2-1.8c0-1.4,1.1-2.4,2.1-3
	c0.7-0.4,1.5-0.7,2.3-0.7C237.5,37.7,238.6,38.3,238.6,39.5z"/>
<path d="M238.6,34.5c0,1.4-1.1,2.4-2.1,3c-0.7,0.4-1.5,0.7-2.3,0.7c-1.1,0-2.2-0.6-2.2-1.8c0-1.4,1.1-2.4,2.1-3
	c0.7-0.4,1.5-0.7,2.3-0.7C237.5,32.7,238.6,33.3,238.6,34.5z"/>
<rect x="238.1" y="19.9" class="st3" width="0.2" height="24.4"/>
<rect x="238.1" y="19.9" width="0.2" height="24.4"/>
<path d="M225.8,31.3c0.2-0.1,0.4-0.2,0.5-0.2s0.4,0.1,0.5,0.2l-0.1,6.9c0.5-0.4,1.2-0.7,1.8-0.7c1,0,1.8,1,1.8,2
	c0,1.6-1.7,2.3-2.9,3.4c-0.3,0.3-0.5,0.8-0.9,0.8c-0.3,0-0.5-0.2-0.5-0.5L225.8,31.3z M226.8,40.9v0.2c0,0.4,0,0.9,0.1,1.3
	c0.9-0.8,1.9-1.6,1.9-2.8c0-0.7-0.3-1.3-0.9-1.3c-0.6,0-1,0.6-1.1,1.3L226.8,40.9z"/>
<path d="M147.9,38.8c0.2-0.1,0.4-0.2,0.5-0.2s0.4,0.1,0.5,0.2l-0.1,6.9c0.5-0.4,1.2-0.7,1.8-0.7c1,0,1.8,1,1.8,2
	c0,1.6-1.7,2.3-2.9,3.4c-0.3,0.3-0.5,0.8-0.9,0.8c-0.3,0-0.5-0.2-0.5-0.5L147.9,38.8z M148.9,48.4v0.2c0,0.4,0,0.9,0.1,1.3
	c0.9-0.8,1.9-1.6,1.9-2.8c0-0.7-0.3-1.3-0.9-1.3c-0.6,0-1,0.6-1.1,1.3L148.9,48.4z"/>
<path d="M142.4,33.8c0.2-0.1,0.4-0.2,0.5-0.2s0.4,0.1,0.5,0.2l-0.1,6.9c0.5-0.4,1.2-0.7,1.8-0.7c1,0,1.8,1,1.8,2
	c0,1.6-1.7,2.3-2.9,3.4c-0.3,0.3-0.5,0.8-0.9,0.8c-0.3,0-0.5-0.2-0.5-0.5L142.4,33.8z M143.4,43.4v0.2c0,0.4,0,0.9,0.1,1.3
	c0.9-0.8,1.9-1.6,1.9-2.8c0-0.7-0.3-1.3-0.9-1.3c-0.6,0-1,0.6-1.1,1.3L143.4,43.4z"/>
<path d="M150.7,28.8c0.2-0.1,0.4-0.2,0.5-0.2s0.4,0.1,0.5,0.2l-0.1,6.9c0.5-0.4,1.2-0.7,1.8-0.7c1,0,1.8,1,1.8,2
	c0,1.6-1.7,2.3-2.9,3.4c-0.3,0.3-0.5,0.8-0.9,0.8c-0.3,0-0.5-0.2-0.5-0.5L150.7,28.8z M151.7,38.4v0.2c0,0.4,0,0.9,0.1,1.3
	c0.9-0.8,1.9-1.6,1.9-2.8c0-0.7-0.3-1.3-0.9-1.3c-0.6,0-1,0.6-1.1,1.3L151.7,38.4z"/>
<path d="M12.6,37.7c3.1,0,5.1,2.6,5.1,5.2c0,1.5-0.7,3.1-2.1,4.2c-0.4,0.3-0.9,0.6-1.5,0.7c0.1,0.7,0.1,1.4,0.1,2.1
	c0,0.4,0,0.8,0,1.2c-0.1,2.4-1.8,4.5-4.1,4.5c-2.2,0-3.9-1.8-3.9-3.9c0-1.2,1.1-2.1,2.2-2.1c1.1,0,1.9,0.9,1.9,2.1
	c0,1-0.9,1.9-1.9,1.9c-0.2,0-0.4,0-0.6-0.1c0.5,0.8,1.4,1.3,2.3,1.3c1.9,0,3.1-1.8,3.2-3.8c0-0.4,0-0.7,0-1.1c0-0.6,0-1.2-0.1-1.8
	c-0.6,0.1-1.2,0.2-1.8,0.2c-3.7,0-6.6-3.4-6.6-7.5c0-3.5,2.6-6.1,4.9-8.8c-0.4-1.2-0.7-2.5-0.9-3.8c-0.1-1-0.1-2.1-0.1-3.1
	c0-2.3,1.1-4.5,3-5.8c0.1,0,0.1-0.1,0.2-0.1c0.1,0,0.1,0,0.2,0.1c1.4,1.7,2.7,4.9,2.7,7.1c0,2.8-1.7,5.1-3.6,7.3
	c0.4,1.4,0.8,2.8,1.1,4.1C12.4,37.7,12.5,37.7,12.6,37.7z M11.6,47.3c0.6,0,1.1,0,1.6-0.1c-0.3-2.5-0.7-4.9-1.3-7.3
	c-1.6,0.2-2.5,1.2-2.5,2.4c0,0.9,0.5,1.8,1.6,2.5c0.1,0.1,0.1,0.2,0.1,0.3c0,0.2-0.2,0.4-0.4,0.4c-0.1,0-0.1,0-0.2,0
	c-1.6-0.9-2.3-2.3-2.3-3.7c0-1.8,1.2-3.5,3.2-3.9c-0.3-1.2-0.6-2.3-0.9-3.5c-2.1,2.4-4.2,4.8-4.2,8C6.3,45,8.9,47.3,11.6,47.3z
	 M9.8,27.3c0,1.5,0.4,2.7,0.7,3.9c1.6-1.9,2.9-3.9,2.9-6.5c0-1.1-0.1-1.6-0.4-2.6C11,23,9.8,25.1,9.8,27.3z M16.3,43.7
	c0-1.8-1.3-3.6-3.4-3.8c0.5,2.3,0.9,4.6,1.2,7.1C15.4,46.5,16.3,45.1,16.3,43.7z M36.3,42c0,1.4-1.1,2.4-2.1,3
	c-0.7,0.4-1.5,0.7-2.3,0.7c-1.1,0-2.2-0.6-2.2-1.8c0-1.4,1.1-2.4,2.1-3c0.7-0.4,1.5-0.7,2.3-0.7C35.3,40.2,36.3,40.7,36.3,42z"/>
<path d="M36.3,47c0,1.4-1.1,2.4-2.1,3c-0.7,0.4-1.5,0.7-2.3,0.7c-1.1,0-2.2-0.6-2.2-1.8c0-1.4,1.1-2.4,2.1-3
	c0.7-0.4,1.5-0.7,2.3-0.7C35.3,45.1,36.3,45.7,36.3,47z M200.1,47c0,1.4-1.1,2.4-2.1,3c-0.7,0.4-1.5,0.7-2.3,0.7
	c-1.1,0-2.2-0.6-2.2-1.8c0-1.4,1.1-2.4,2.1-3c0.7-0.4,1.5-0.7,2.3-0.7C199,45.1,200.1,45.7,200.1,47z"/>
<path d="M200.1,42c0,1.4-1.1,2.4-2.1,3c-0.7,0.4-1.5,0.7-2.3,0.7c-1.1,0-2.2-0.6-2.2-1.8c0-1.4,1.1-2.4,2.1-3
	c0.7-0.4,1.5-0.7,2.3-0.7C199,40.2,200.1,40.7,200.1,42z"/>
<path d="M200.1,37c0,1.4-1.1,2.4-2.1,3c-0.7,0.4-1.5,0.7-2.3,0.7c-1.1,0-2.2-0.6-2.2-1.8c0-1.4,1.1-2.4,2.1-3
	c0.7-0.4,1.5-0.7,2.3-0.7C199,35.2,200.1,35.8,200.1,37z"/>
<rect x="199.6" y="21.5" class="st3" width="0.2" height="25.2"/>
<rect x="199.6" y="21.5" width="0.2" height="25.2"/>
</svg>
