<?xml version="1.0" encoding="utf-8"?>
<!-- Generator: Adobe Illustrator 21.1.0, SVG Export Plug-In . SVG Version: 6.00 Build 0)  -->
<svg version="1.1" id="Ebene_1" xmlns="http://www.w3.org/2000/svg" xmlns:xlink="http://www.w3.org/1999/xlink" x="0px" y="0px"
	 viewBox="0 0 500 141.6" style="enable-background:new 0 0 500 141.6;" xml:space="preserve">
<style type="text/css">
	.st0{fill:none;stroke:#000000;stroke-width:2.9888;stroke-miterlimit:10;}
	.st1{fill:none;stroke:#000000;stroke-width:0.9465;stroke-miterlimit:10;}
	.st2{fill:none;stroke:#000000;stroke-width:0.9963;stroke-linecap:round;stroke-miterlimit:10;}
	.st3{fill:none;stroke:#000000;stroke-width:0.4981;stroke-linecap:round;stroke-miterlimit:10;}
	.st4{fill:none;stroke:#000000;stroke-width:0.3985;stroke-linecap:round;stroke-linejoin:round;stroke-miterlimit:10;}
	.st5{fill:none;stroke:#000000;stroke-width:0.9465;stroke-linejoin:round;stroke-miterlimit:10;}
	.st6{fill:none;stroke:#000000;stroke-width:2.9888;stroke-linejoin:round;stroke-miterlimit:10;}
	.st7{fill:none;stroke:#000000;stroke-width:0.4981;stroke-linecap:round;stroke-linejoin:round;stroke-miterlimit:10;}
</style>
<line class="st0" x1="253.8" y1="47.9" x2="253.8" y2="28"/>
<line class="st1" x1="212.3" y1="47.9" x2="212.3" y2="28"/>
<line class="st1" x1="292.9" y1="47.9" x2="292.9" y2="28"/>
<line class="st0" x1="173.2" y1="47.9" x2="173.2" y2="28"/>
<line class="st0" x1="332" y1="47.9" x2="332" y2="28"/>
<line class="st1" x1="134.2" y1="47.9" x2="134.2" y2="28"/>
<line class="st1" x1="371.1" y1="47.9" x2="371.1" y2="28"/>
<line class="st0" x1="95.1" y1="47.9" x2="95.1" y2="28"/>
<line class="st1" x1="413.9" y1="47.9" x2="413.9" y2="28"/>
<line class="st0" x1="495.4" y1="47.9" x2="495.4" y2="28"/>
<line class="st1" x1="58.1" y1="47.9" x2="58.1" y2="28"/>
<line class="st1" x1="456.8" y1="47.9" x2="456.8" y2="28"/>
<line class="st2" x1="302.2" y1="52.9" x2="310.3" y2="52.9"/>
<line class="st3" x1="1.1" y1="47.9" x2="496.7" y2="47.9"/>
<line class="st3" x1="1.1" y1="42.9" x2="496.7" y2="42.9"/>
<line class="st3" x1="1.1" y1="37.9" x2="496.7" y2="37.9"/>
<line class="st3" x1="1.1" y1="33" x2="496.7" y2="33"/>
<line class="st3" x1="1.1" y1="28" x2="496.7" y2="28"/>
<path d="M349.3,49.4c0,1.4-1.1,2.4-2.1,3c-0.7,0.4-1.5,0.7-2.3,0.7c-1.1,0-2.2-0.6-2.2-1.8c0-1.4,1.1-2.4,2.1-3
	c0.7-0.4,1.5-0.7,2.3-0.7C348.2,47.6,349.3,48.2,349.3,49.4z"/>
<path d="M349.3,44.5c0,1.4-1.1,2.4-2.1,3c-0.7,0.4-1.5,0.7-2.3,0.7c-1.1,0-2.2-0.6-2.2-1.8c0-1.4,1.1-2.4,2.1-3
	c0.7-0.4,1.5-0.7,2.3-0.7C348.2,42.7,349.3,43.2,349.3,44.5z"/>
<path d="M349.3,39.5c0,1.4-1.1,2.4-2.1,3c-0.7,0.4-1.5,0.7-2.3,0.7c-1.1,0-2.2-0.6-2.2-1.8c0-1.4,1.1-2.4,2.1-3
	c0.7-0.4,1.5-0.7,2.3-0.7C348.2,37.7,349.3,38.3,349.3,39.5z"/>
<rect x="348.8" y="23.2" class="st4" width="0.2" height="26.1"/>
<rect x="348.8" y="23.2" width="0.2" height="26.1"/>
<rect x="35.9" y="23.2" class="st4" width="0.2" height="26.1"/>
<rect x="35.9" y="23.2" width="0.2" height="26.1"/>
<path d="M336.4,31.3c0.2-0.1,0.4-0.2,0.5-0.2s0.4,0.1,0.5,0.2l-0.1,6.9c0.5-0.4,1.2-0.7,1.8-0.7c1,0,1.8,1,1.8,2
	c0,1.6-1.7,2.3-2.9,3.4c-0.3,0.3-0.5,0.8-0.9,0.8c-0.3,0-0.5-0.2-0.5-0.5L336.4,31.3z M337.5,40.9v0.2c0,0.4,0,0.9,0.1,1.3
	c0.9-0.8,1.9-1.6,1.9-2.8c0-0.7-0.3-1.3-0.9-1.3s-1,0.6-1.1,1.3V40.9z"/>
<path d="M392.2,44.5c0,1.4-1.1,2.4-2.1,3c-0.7,0.4-1.5,0.7-2.3,0.7c-1.1,0-2.2-0.6-2.2-1.8c0-1.4,1.1-2.4,2.1-3
	c0.7-0.4,1.5-0.7,2.3-0.7C391.1,42.7,392.2,43.2,392.2,44.5z"/>
<path d="M392.2,39.5c0,1.4-1.1,2.4-2.1,3c-0.7,0.4-1.5,0.7-2.3,0.7c-1.1,0-2.2-0.6-2.2-1.8c0-1.4,1.1-2.4,2.1-3
	c0.7-0.4,1.5-0.7,2.3-0.7C391.1,37.7,392.2,38.3,392.2,39.5z"/>
<path d="M392.2,34.5c0,1.4-1.1,2.4-2.1,3c-0.7,0.4-1.5,0.7-2.3,0.7c-1.1,0-2.2-0.6-2.2-1.8c0-1.4,1.1-2.4,2.1-3
	c0.7-0.4,1.5-0.7,2.3-0.7C391.1,32.7,392.2,33.3,392.2,34.5z"/>
<path d="M36.3,39.5c0,1.4-1.1,2.4-2.1,3c-0.7,0.4-1.5,0.7-2.3,0.7c-1.1,0-2.2-0.6-2.2-1.8c0-1.4,1.1-2.4,2.1-3
	c0.7-0.4,1.5-0.7,2.3-0.7C35.3,37.7,36.3,38.3,36.3,39.5z"/>
<rect x="270.6" y="23.2" class="st4" width="0.2" height="26.1"/>
<rect x="270.6" y="23.2" width="0.2" height="26.1"/>
<path d="M258.2,31.3c0.2-0.1,0.4-0.2,0.5-0.2s0.4,0.1,0.5,0.2l-0.1,6.9c0.5-0.4,1.2-0.7,1.8-0.7c1,0,1.8,1,1.8,2
	c0,1.6-1.7,2.3-2.9,3.4c-0.3,0.3-0.5,0.8-0.9,0.8c-0.3,0-0.5-0.2-0.5-0.5L258.2,31.3z M259.3,40.9v0.2c0,0.4,0,0.9,0.1,1.3
	c0.9-0.8,1.9-1.6,1.9-2.8c0-0.7-0.3-1.3-0.9-1.3s-1,0.6-1.1,1.3V40.9z"/>
<path d="M309.1,54.4c0,1.4-1.1,2.4-2.1,3c-0.7,0.4-1.5,0.7-2.3,0.7c-1.1,0-2.2-0.6-2.2-1.8c0-1.4,1.1-2.4,2.1-3
	c0.7-0.4,1.5-0.7,2.3-0.7C308.1,52.6,309.1,53.2,309.1,54.4z"/>
<path d="M309.1,49.4c0,1.4-1.1,2.4-2.1,3c-0.7,0.4-1.5,0.7-2.3,0.7c-1.1,0-2.2-0.6-2.2-1.8c0-1.4,1.1-2.4,2.1-3
	c0.7-0.4,1.5-0.7,2.3-0.7C308.1,47.6,309.1,48.2,309.1,49.4z"/>
<path d="M309.1,44.5c0,1.4-1.1,2.4-2.1,3c-0.7,0.4-1.5,0.7-2.3,0.7c-1.1,0-2.2-0.6-2.2-1.8c0-1.4,1.1-2.4,2.1-3
	c0.7-0.4,1.5-0.7,2.3-0.7C308.1,42.7,309.1,43.2,309.1,44.5z"/>
<rect x="308.7" y="28.2" class="st4" width="0.2" height="26.1"/>
<rect x="308.7" y="28.2" width="0.2" height="26.1"/>
<path d="M296.3,46.3c0.2-0.1,0.4-0.2,0.5-0.2s0.4,0.1,0.5,0.2l-0.1,6.9c0.5-0.4,1.2-0.7,1.8-0.7c1,0,1.8,1,1.8,2
	c0,1.6-1.7,2.3-2.9,3.4c-0.3,0.3-0.5,0.8-0.9,0.8c-0.3,0-0.5-0.2-0.5-0.5L296.3,46.3z M297.4,55.9v0.2c0,0.4,0,0.9,0.1,1.3
	c0.9-0.8,1.9-1.6,1.9-2.8c0-0.7-0.3-1.3-0.9-1.3s-1,0.6-1.1,1.3V55.9z"/>
<path d="M416.9,31.3c0.2-0.1,0.4-0.2,0.5-0.2s0.4,0.1,0.5,0.2l-0.1,6.9c0.5-0.4,1.2-0.7,1.8-0.7c1,0,1.8,1,1.8,2
	c0,1.6-1.7,2.3-2.9,3.4c-0.3,0.3-0.5,0.8-0.9,0.8c-0.3,0-0.5-0.2-0.5-0.5L416.9,31.3z M418,40.9v0.2c0,0.4,0,0.9,0.1,1.3
	c0.9-0.8,1.9-1.6,1.9-2.8c0-0.7-0.3-1.3-0.9-1.3s-1,0.6-1.1,1.3V40.9z"/>
<path d="M422.2,26.3c0.2-0.1,0.4-0.2,0.5-0.2s0.4,0.1,0.5,0.2l-0.1,6.9c0.5-0.4,1.2-0.7,1.8-0.7c1,0,1.8,1,1.8,2
	c0,1.6-1.7,2.3-2.9,3.4c-0.3,0.3-0.5,0.8-0.9,0.8c-0.3,0-0.5-0.2-0.5-0.5L422.2,26.3z M423.3,35.9v0.2c0,0.4,0,0.9,0.1,1.3
	c0.9-0.8,1.9-1.6,1.9-2.8c0-0.7-0.3-1.3-0.9-1.3s-1,0.6-1.1,1.3V35.9z"/>
<path d="M473.1,49.4c0,1.4-1.1,2.4-2.1,3c-0.7,0.4-1.5,0.7-2.3,0.7c-1.1,0-2.2-0.6-2.2-1.8c0-1.4,1.1-2.4,2.1-3
	c0.7-0.4,1.5-0.7,2.3-0.7C472.1,47.6,473.1,48.2,473.1,49.4z"/>
<path d="M473.1,44.5c0,1.4-1.1,2.4-2.1,3c-0.7,0.4-1.5,0.7-2.3,0.7c-1.1,0-2.2-0.6-2.2-1.8c0-1.4,1.1-2.4,2.1-3
	c0.7-0.4,1.5-0.7,2.3-0.7C472.1,42.7,473.1,43.2,473.1,44.5z"/>
<path d="M473.1,34.5c0,1.4-1.1,2.4-2.1,3c-0.7,0.4-1.5,0.7-2.3,0.7c-1.1,0-2.2-0.6-2.2-1.8c0-1.4,1.1-2.4,2.1-3
	c0.7-0.4,1.5-0.7,2.3-0.7C472.1,32.7,473.1,33.3,473.1,34.5z"/>
<rect x="472.7" y="19.9" class="st4" width="0.2" height="29.4"/>
<rect x="472.7" y="19.9" width="0.2" height="29.4"/>
<path d="M460.3,26.3c0.2-0.1,0.4-0.2,0.5-0.2s0.4,0.1,0.5,0.2l-0.1,6.9c0.5-0.4,1.2-0.7,1.8-0.7c1,0,1.8,1,1.8,2
	c0,1.6-1.7,2.3-2.9,3.4c-0.3,0.3-0.5,0.8-0.9,0.8c-0.3,0-0.5-0.2-0.5-0.5L460.3,26.3z M461.4,35.9v0.2c0,0.4,0,0.9,0.1,1.3
	c0.9-0.8,1.9-1.6,1.9-2.8c0-0.7-0.3-1.3-0.9-1.3s-1,0.6-1.1,1.3V35.9z"/>
<path d="M12.6,37.7c3.1,0,5.1,2.6,5.1,5.2c0,1.5-0.7,3.1-2.1,4.2c-0.4,0.3-0.9,0.6-1.5,0.7c0.1,0.7,0.1,1.4,0.1,2.1
	c0,0.4,0,0.8,0,1.2c-0.1,2.4-1.8,4.5-4.1,4.5c-2.2,0-3.9-1.8-3.9-3.9c0-1.2,1.1-2.1,2.2-2.1s1.9,0.9,1.9,2.1c0,1-0.9,1.9-1.9,1.9
	c-0.2,0-0.4,0-0.6-0.1c0.5,0.8,1.4,1.3,2.3,1.3c1.9,0,3.1-1.8,3.2-3.8c0-0.4,0-0.7,0-1.1c0-0.6,0-1.2-0.1-1.8
	c-0.6,0.1-1.2,0.2-1.8,0.2c-3.7,0-6.6-3.4-6.6-7.5c0-3.5,2.6-6.1,4.9-8.8c-0.4-1.2-0.7-2.5-0.9-3.8c-0.1-1-0.1-2.1-0.1-3.1
	c0-2.3,1.1-4.5,3-5.8c0.1,0,0.1-0.1,0.2-0.1c0.1,0,0.1,0,0.2,0.1c1.4,1.7,2.7,4.9,2.7,7.1c0,2.8-1.7,5.1-3.6,7.3
	c0.4,1.4,0.8,2.8,1.1,4.1C12.4,37.7,12.5,37.7,12.6,37.7z M11.6,47.3c0.6,0,1.1,0,1.6-0.1c-0.3-2.5-0.7-4.9-1.3-7.3
	c-1.6,0.2-2.5,1.2-2.5,2.4c0,0.9,0.5,1.8,1.6,2.5c0.1,0.1,0.1,0.2,0.1,0.3c0,0.2-0.2,0.4-0.4,0.4c-0.1,0-0.1,0-0.2,0
	c-1.6-0.9-2.3-2.3-2.3-3.7c0-1.8,1.2-3.5,3.2-3.9c-0.3-1.2-0.6-2.3-0.9-3.5c-2.1,2.4-4.2,4.8-4.2,8C6.3,45,8.9,47.3,11.6,47.3z
	 M9.8,27.3c0,1.5,0.4,2.7,0.7,3.9c1.6-1.9,2.9-3.9,2.9-6.5c0-1.1-0.1-1.6-0.4-2.6C11,23,9.8,25.1,9.8,27.3z M16.3,43.7
	c0-1.8-1.3-3.6-3.4-3.8c0.5,2.3,0.9,4.6,1.2,7.1C15.4,46.5,16.3,45.1,16.3,43.7z"/>
<rect x="391.7" y="19.9" class="st4" width="0.2" height="24.4"/>
<rect x="391.7" y="19.9" width="0.2" height="24.4"/>
<path d="M36.3,44.5c0,1.4-1.1,2.4-2.1,3c-0.7,0.4-1.5,0.7-2.3,0.7c-1.1,0-2.2-0.6-2.2-1.8c0-1.4,1.1-2.4,2.1-3
	c0.7-0.4,1.5-0.7,2.3-0.7C35.3,42.7,36.3,43.2,36.3,44.5z"/>
<path d="M374.1,31.3c0.2-0.1,0.4-0.2,0.5-0.2s0.4,0.1,0.5,0.2l-0.1,6.9c0.5-0.4,1.2-0.7,1.8-0.7c1,0,1.8,1,1.8,2
	c0,1.6-1.7,2.3-2.9,3.4c-0.3,0.3-0.5,0.8-0.9,0.8c-0.3,0-0.5-0.2-0.5-0.5L374.1,31.3z M375.1,40.9v0.2c0,0.4,0,0.9,0.1,1.3
	c0.9-0.8,1.9-1.6,1.9-2.8c0-0.7-0.3-1.3-0.9-1.3s-1,0.6-1.1,1.3V40.9z"/>
<path d="M379.4,26.3c0.2-0.1,0.4-0.2,0.5-0.2s0.4,0.1,0.5,0.2l-0.1,6.9c0.5-0.4,1.2-0.7,1.8-0.7c1,0,1.8,1,1.8,2
	c0,1.6-1.7,2.3-2.9,3.4c-0.3,0.3-0.5,0.8-0.9,0.8c-0.3,0-0.5-0.2-0.5-0.5L379.4,26.3z M380.4,35.9v0.2c0,0.4,0,0.9,0.1,1.3
	c0.9-0.8,1.9-1.6,1.9-2.8c0-0.7-0.3-1.3-0.9-1.3s-1,0.6-1.1,1.3V35.9z"/>
<path d="M435,49.4c0,1.4-1.1,2.4-2.1,3c-0.7,0.4-1.5,0.7-2.3,0.7c-1.1,0-2.2-0.6-2.2-1.8c0-1.4,1.1-2.4,2.1-3
	c0.7-0.4,1.5-0.7,2.3-0.7C434,47.6,435,48.2,435,49.4z"/>
<path d="M435,39.5c0,1.4-1.1,2.4-2.1,3c-0.7,0.4-1.5,0.7-2.3,0.7c-1.1,0-2.2-0.6-2.2-1.8c0-1.4,1.1-2.4,2.1-3
	c0.7-0.4,1.5-0.7,2.3-0.7C434,37.7,435,38.3,435,39.5z"/>
<path d="M435,34.5c0,1.4-1.1,2.4-2.1,3c-0.7,0.4-1.5,0.7-2.3,0.7c-1.1,0-2.2-0.6-2.2-1.8c0-1.4,1.1-2.4,2.1-3
	c0.7-0.4,1.5-0.7,2.3-0.7C434,32.7,435,33.3,435,34.5z"/>
<path d="M36.3,49.4c0,1.4-1.1,2.4-2.1,3c-0.7,0.4-1.5,0.7-2.3,0.7c-1.1,0-2.2-0.6-2.2-1.8c0-1.4,1.1-2.4,2.1-3
	c0.7-0.4,1.5-0.7,2.3-0.7C35.3,47.6,36.3,48.2,36.3,49.4z"/>
<rect x="434.6" y="19.9" class="st4" width="0.2" height="29.4"/>
<rect x="434.6" y="19.9" width="0.2" height="29.4"/>
<path d="M112.4,49.4c0,1.4-1.1,2.4-2.1,3c-0.7,0.4-1.5,0.7-2.3,0.7c-1.1,0-2.2-0.6-2.2-1.8c0-1.4,1.1-2.4,2.1-3
	c0.7-0.4,1.5-0.7,2.3-0.7C111.3,47.6,112.4,48.2,112.4,49.4z"/>
<path d="M112.4,44.5c0,1.4-1.1,2.4-2.1,3c-0.7,0.4-1.5,0.7-2.3,0.7c-1.1,0-2.2-0.6-2.2-1.8c0-1.4,1.1-2.4,2.1-3
	c0.7-0.4,1.5-0.7,2.3-0.7C111.3,42.7,112.4,43.2,112.4,44.5z"/>
<path d="M112.4,39.5c0,1.4-1.1,2.4-2.1,3c-0.7,0.4-1.5,0.7-2.3,0.7c-1.1,0-2.2-0.6-2.2-1.8c0-1.4,1.1-2.4,2.1-3
	c0.7-0.4,1.5-0.7,2.3-0.7C111.3,37.7,112.4,38.3,112.4,39.5z"/>
<rect x="111.9" y="23.2" class="st4" width="0.2" height="26.1"/>
<rect x="111.9" y="23.2" width="0.2" height="26.1"/>
<path d="M99.6,31.3c0.2-0.1,0.4-0.2,0.5-0.2s0.4,0.1,0.5,0.2l-0.1,6.9c0.5-0.4,1.2-0.7,1.8-0.7c1,0,1.8,1,1.8,2
	c0,1.6-1.7,2.3-2.9,3.4c-0.3,0.3-0.5,0.8-0.9,0.8c-0.3,0-0.5-0.2-0.5-0.5L99.6,31.3z M100.6,40.9v0.2c0,0.4,0,0.9,0.1,1.3
	c0.9-0.8,1.9-1.6,1.9-2.8c0-0.7-0.3-1.3-0.9-1.3s-1,0.6-1.1,1.3V40.9z"/>
<path d="M150.5,44.5c0,1.4-1.1,2.4-2.1,3c-0.7,0.4-1.5,0.7-2.3,0.7c-1.1,0-2.2-0.6-2.2-1.8c0-1.4,1.1-2.4,2.1-3
	c0.7-0.4,1.5-0.7,2.3-0.7C149.4,42.7,150.5,43.2,150.5,44.5z"/>
<path d="M150.5,39.5c0,1.4-1.1,2.4-2.1,3c-0.7,0.4-1.5,0.7-2.3,0.7c-1.1,0-2.2-0.6-2.2-1.8c0-1.4,1.1-2.4,2.1-3
	c0.7-0.4,1.5-0.7,2.3-0.7C149.4,37.7,150.5,38.3,150.5,39.5z"/>
<path d="M150.5,34.5c0,1.4-1.1,2.4-2.1,3c-0.7,0.4-1.5,0.7-2.3,0.7c-1.1,0-2.2-0.6-2.2-1.8c0-1.4,1.1-2.4,2.1-3
	c0.7-0.4,1.5-0.7,2.3-0.7C149.4,32.7,150.5,33.3,150.5,34.5z"/>
<rect x="150" y="19.9" class="st4" width="0.2" height="24.4"/>
<rect x="150" y="19.9" width="0.2" height="24.4"/>
<path d="M23.5,31.3c0.2-0.1,0.4-0.2,0.5-0.2s0.4,0.1,0.5,0.2l-0.1,6.9c0.5-0.4,1.2-0.7,1.8-0.7c1,0,1.8,1,1.8,2
	c0,1.6-1.7,2.3-2.9,3.4c-0.3,0.3-0.5,0.8-0.9,0.8c-0.3,0-0.5-0.2-0.5-0.5L23.5,31.3z M24.5,40.9v0.2c0,0.4,0,0.9,0.1,1.3
	c0.9-0.8,1.9-1.6,1.9-2.8c0-0.7-0.3-1.3-0.9-1.3s-1,0.6-1.1,1.3V40.9z"/>
<path d="M72.3,49.4c0,1.4-1.1,2.4-2.1,3c-0.7,0.4-1.5,0.7-2.3,0.7c-1.1,0-2.2-0.6-2.2-1.8c0-1.4,1.1-2.4,2.1-3
	c0.7-0.4,1.5-0.7,2.3-0.7C71.2,47.6,72.3,48.2,72.3,49.4z"/>
<path d="M72.3,44.5c0,1.4-1.1,2.4-2.1,3c-0.7,0.4-1.5,0.7-2.3,0.7c-1.1,0-2.2-0.6-2.2-1.8c0-1.4,1.1-2.4,2.1-3
	c0.7-0.4,1.5-0.7,2.3-0.7C71.2,42.7,72.3,43.2,72.3,44.5z"/>
<path d="M72.3,39.5c0,1.4-1.1,2.4-2.1,3c-0.7,0.4-1.5,0.7-2.3,0.7c-1.1,0-2.2-0.6-2.2-1.8c0-1.4,1.1-2.4,2.1-3
	c0.7-0.4,1.5-0.7,2.3-0.7C71.2,37.7,72.3,38.3,72.3,39.5z"/>
<rect x="71.8" y="23.2" class="st4" width="0.2" height="26.1"/>
<rect x="71.8" y="23.2" width="0.2" height="26.1"/>
<path d="M231,49.4c0,1.4-1.1,2.4-2.1,3c-0.7,0.4-1.5,0.7-2.3,0.7c-1.1,0-2.2-0.6-2.2-1.8c0-1.4,1.1-2.4,2.1-3
	c0.7-0.4,1.5-0.7,2.3-0.7C229.9,47.6,231,48.2,231,49.4z"/>
<path d="M231,44.5c0,1.4-1.1,2.4-2.1,3c-0.7,0.4-1.5,0.7-2.3,0.7c-1.1,0-2.2-0.6-2.2-1.8c0-1.4,1.1-2.4,2.1-3
	c0.7-0.4,1.5-0.7,2.3-0.7C229.9,42.7,231,43.2,231,44.5z"/>
<path d="M231,39.5c0,1.4-1.1,2.4-2.1,3c-0.7,0.4-1.5,0.7-2.3,0.7c-1.1,0-2.2-0.6-2.2-1.8c0-1.4,1.1-2.4,2.1-3
	c0.7-0.4,1.5-0.7,2.3-0.7C229.9,37.7,231,38.3,231,39.5z"/>
<rect x="230.5" y="23.2" class="st4" width="0.2" height="26.1"/>
<rect x="230.5" y="23.2" width="0.2" height="26.1"/>
<path d="M215.3,41.3c0.2-0.1,0.4-0.2,0.5-0.2s0.4,0.1,0.5,0.2l-0.1,6.9c0.5-0.4,1.2-0.7,1.8-0.7c1,0,1.8,1,1.8,2
	c0,1.6-1.7,2.3-2.9,3.4c-0.3,0.3-0.5,0.8-0.9,0.8c-0.3,0-0.5-0.2-0.5-0.5L215.3,41.3z M216.4,50.9v0.2c0,0.4,0,0.9,0.1,1.3
	c0.9-0.8,1.9-1.6,1.9-2.8c0-0.7-0.3-1.3-0.9-1.3c-0.6,0-1,0.6-1.1,1.3V50.9z"/>
<path d="M218.1,31.3c0.2-0.1,0.4-0.2,0.5-0.2s0.4,0.1,0.5,0.2l-0.1,6.9c0.5-0.4,1.2-0.7,1.8-0.7c1,0,1.8,1,1.8,2
	c0,1.6-1.7,2.3-2.9,3.4c-0.3,0.3-0.5,0.8-0.9,0.8c-0.3,0-0.5-0.2-0.5-0.5L218.1,31.3z M219.2,40.9v0.2c0,0.4,0,0.9,0.1,1.3
	c0.9-0.8,1.9-1.6,1.9-2.8c0-0.7-0.3-1.3-0.9-1.3c-0.6,0-1,0.6-1.1,1.3V40.9z"/>
<path d="M271.1,49.4c0,1.4-1.1,2.4-2.1,3c-0.7,0.4-1.5,0.7-2.3,0.7c-1.1,0-2.2-0.6-2.2-1.8c0-1.4,1.1-2.4,2.1-3
	c0.7-0.4,1.5-0.7,2.3-0.7C270,47.6,271.1,48.2,271.1,49.4z"/>
<path d="M271.1,44.5c0,1.4-1.1,2.4-2.1,3c-0.7,0.4-1.5,0.7-2.3,0.7c-1.1,0-2.2-0.6-2.2-1.8c0-1.4,1.1-2.4,2.1-3
	c0.7-0.4,1.5-0.7,2.3-0.7C270,42.7,271.1,43.2,271.1,44.5z"/>
<path d="M271.1,39.5c0,1.4-1.1,2.4-2.1,3c-0.7,0.4-1.5,0.7-2.3,0.7c-1.1,0-2.2-0.6-2.2-1.8c0-1.4,1.1-2.4,2.1-3
	c0.7-0.4,1.5-0.7,2.3-0.7C270,37.7,271.1,38.3,271.1,39.5z"/>
<path d="M137.6,31.3c0.2-0.1,0.4-0.2,0.5-0.2s0.4,0.1,0.5,0.2l-0.1,6.9c0.5-0.4,1.2-0.7,1.8-0.7c1,0,1.8,1,1.8,2
	c0,1.6-1.7,2.3-2.9,3.4c-0.3,0.3-0.5,0.8-0.9,0.8c-0.3,0-0.5-0.2-0.5-0.5L137.6,31.3z M138.7,40.9v0.2c0,0.4,0,0.9,0.1,1.3
	c0.9-0.8,1.9-1.6,1.9-2.8c0-0.7-0.3-1.3-0.9-1.3c-0.6,0-1,0.6-1.1,1.3V40.9z"/>
<path d="M190.5,49.4c0,1.4-1.1,2.4-2.1,3c-0.7,0.4-1.5,0.7-2.3,0.7c-1.1,0-2.2-0.6-2.2-1.8c0-1.4,1.1-2.4,2.1-3
	c0.7-0.4,1.5-0.7,2.3-0.7C189.5,47.6,190.5,48.2,190.5,49.4z"/>
<path d="M190.5,44.5c0,1.4-1.1,2.4-2.1,3c-0.7,0.4-1.5,0.7-2.3,0.7c-1.1,0-2.2-0.6-2.2-1.8c0-1.4,1.1-2.4,2.1-3
	c0.7-0.4,1.5-0.7,2.3-0.7C189.5,42.7,190.5,43.2,190.5,44.5z"/>
<path d="M190.5,39.5c0,1.4-1.1,2.4-2.1,3c-0.7,0.4-1.5,0.7-2.3,0.7c-1.1,0-2.2-0.6-2.2-1.8c0-1.4,1.1-2.4,2.1-3
	c0.7-0.4,1.5-0.7,2.3-0.7C189.5,37.7,190.5,38.3,190.5,39.5z"/>
<rect x="190.1" y="23.2" class="st4" width="0.2" height="26.1"/>
<rect x="190.1" y="23.2" width="0.2" height="26.1"/>
<path d="M177.7,31.3c0.2-0.1,0.4-0.2,0.5-0.2s0.4,0.1,0.5,0.2l-0.1,6.9c0.5-0.4,1.2-0.7,1.8-0.7c1,0,1.8,1,1.8,2
	c0,1.6-1.7,2.3-2.9,3.4c-0.3,0.3-0.5,0.8-0.9,0.8c-0.3,0-0.5-0.2-0.5-0.5L177.7,31.3z M178.8,40.9v0.2c0,0.4,0,0.9,0.1,1.3
	c0.9-0.8,1.9-1.6,1.9-2.8c0-0.7-0.3-1.3-0.9-1.3c-0.6,0-1,0.6-1.1,1.3V40.9z"/>
<line class="st5" x1="211.2" y1="116.7" x2="211.2" y2="96.8"/>
<line class="st6" x1="173.6" y1="116.7" x2="173.6" y2="96.8"/>
<line class="st6" x1="250.7" y1="116.7" x2="250.7" y2="96.8"/>
<line class="st5" x1="136" y1="116.7" x2="136" y2="96.8"/>
<line class="st5" x1="290.6" y1="116.7" x2="290.6" y2="96.8"/>
<line class="st6" x1="337.5" y1="116.8" x2="337.5" y2="96.8"/>
<line class="st6" x1="98.4" y1="116.7" x2="98.4" y2="96.8"/>
<line class="st5" x1="58.5" y1="116.7" x2="58.5" y2="96.8"/>
<line class="st7" x1="1.1" y1="116.7" x2="338.8" y2="116.7"/>
<line class="st7" x1="1.1" y1="111.7" x2="338.8" y2="111.7"/>
<line class="st7" x1="1.1" y1="106.7" x2="338.8" y2="106.7"/>
<line class="st7" x1="1.1" y1="101.7" x2="338.8" y2="101.7"/>
<line class="st7" x1="1.1" y1="96.8" x2="338.8" y2="96.8"/>
<path d="M313.9,118.2c0,1.4-1.1,2.4-2.1,3c-0.7,0.4-1.5,0.7-2.3,0.7c-1.1,0-2.2-0.6-2.2-1.8c0-1.4,1.1-2.4,2.1-3
	c0.7-0.4,1.5-0.7,2.3-0.7C312.8,116.4,313.9,117,313.9,118.2z"/>
<path d="M313.9,113.2c0,1.4-1.1,2.4-2.1,3c-0.7,0.4-1.5,0.7-2.3,0.7c-1.1,0-2.2-0.6-2.2-1.8c0-1.4,1.1-2.4,2.1-3
	c0.7-0.4,1.5-0.7,2.3-0.7C312.8,111.4,313.9,112,313.9,113.2z"/>
<path d="M313.9,108.3c0,1.4-1.1,2.4-2.1,3c-0.7,0.4-1.5,0.7-2.3,0.7c-1.1,0-2.2-0.6-2.2-1.8c0-1.4,1.1-2.4,2.1-3
	c0.7-0.4,1.5-0.7,2.3-0.7C312.8,106.4,313.9,107,313.9,108.3z"/>
<rect x="313.4" y="92" class="st4" width="0.2" height="26.1"/>
<rect x="313.4" y="92" width="0.2" height="26.1"/>
<path d="M297.6,120.8c-0.2,0-0.4-0.2-0.4-0.4v-2.9l-1.7,0.6v3.1c0,0.2-0.2,0.4-0.4,0.4s-0.4-0.2-0.4-0.4v-2.9l-0.6,0.2H294
	c-0.2,0-0.4-0.2-0.4-0.4v-1.2c0-0.2,0.1-0.3,0.3-0.4l0.9-0.3V113l-0.6,0.2h-0.1c-0.2,0-0.4-0.2-0.4-0.4v-1.2c0-0.2,0.1-0.3,0.3-0.4
	l0.9-0.3V108c0-0.2,0.2-0.4,0.4-0.4s0.4,0.2,0.4,0.4v2.9l1.7-0.6v-3.1c0-0.2,0.2-0.4,0.4-0.4s0.4,0.2,0.4,0.4v2.9l0.6-0.2h0.1
	c0.2,0,0.4,0.2,0.4,0.4v1.2c0,0.2-0.1,0.3-0.3,0.4l-0.9,0.3v3.2l0.6-0.2h0.1c0.2,0,0.4,0.2,0.4,0.4v1.2c0,0.2-0.1,0.3-0.3,0.4
	l-0.9,0.3v3.1C297.9,120.6,297.8,120.8,297.6,120.8z M295.5,116.1l1.7-0.6v-3.2l-1.7,0.6V116.1z"/>
<path d="M304,115.8c-0.2,0-0.4-0.2-0.4-0.4v-2.9l-1.7,0.6v3.1c0,0.2-0.2,0.4-0.4,0.4s-0.4-0.2-0.4-0.4v-2.9l-0.6,0.2h-0.1
	c-0.2,0-0.4-0.2-0.4-0.4v-1.2c0-0.2,0.1-0.3,0.3-0.4l0.9-0.3V108l-0.6,0.2h-0.1c-0.2,0-0.4-0.2-0.4-0.4v-1.2c0-0.2,0.1-0.3,0.3-0.4
	l0.9-0.3V103c0-0.2,0.2-0.4,0.4-0.4s0.4,0.2,0.4,0.4v2.9l1.7-0.6v-3.1c0-0.2,0.2-0.4,0.4-0.4s0.4,0.2,0.4,0.4v2.9l0.6-0.2h0.1
	c0.2,0,0.4,0.2,0.4,0.4v1.2c0,0.2-0.1,0.3-0.3,0.4l-0.9,0.3v3.2l0.6-0.2h0.1c0.2,0,0.4,0.2,0.4,0.4v1.2c0,0.2-0.1,0.3-0.3,0.4
	l-0.9,0.3v3.1C304.4,115.6,304.2,115.8,304,115.8z M302,111.1l1.7-0.6v-3.2l-1.7,0.6V111.1z"/>
<path d="M214.7,110.1c0.2-0.1,0.4-0.2,0.5-0.2s0.4,0.1,0.5,0.2l-0.1,6.9c0.5-0.4,1.2-0.7,1.8-0.7c1,0,1.8,1,1.8,2
	c0,1.6-1.7,2.3-2.9,3.4c-0.3,0.3-0.5,0.8-0.9,0.8c-0.3,0-0.5-0.2-0.5-0.5L214.7,110.1z M215.7,119.7v0.2c0,0.4,0,0.9,0.1,1.3
	c0.9-0.8,1.9-1.6,1.9-2.8c0-0.7-0.3-1.3-0.9-1.3c-0.6,0-1,0.6-1.1,1.3V119.7z M268.5,118.2c0,1.4-1.1,2.4-2.1,3
	c-0.7,0.4-1.5,0.7-2.3,0.7c-1.1,0-2.2-0.6-2.2-1.8c0-1.4,1.1-2.4,2.1-3c0.7-0.4,1.5-0.7,2.3-0.7C267.4,116.4,268.5,117,268.5,118.2z
	"/>
<path d="M268.5,113.2c0,1.4-1.1,2.4-2.1,3c-0.7,0.4-1.5,0.7-2.3,0.7c-1.1,0-2.2-0.6-2.2-1.8c0-1.4,1.1-2.4,2.1-3
	c0.7-0.4,1.5-0.7,2.3-0.7C267.4,111.4,268.5,112,268.5,113.2z"/>
<path d="M268.5,108.3c0,1.4-1.1,2.4-2.1,3c-0.7,0.4-1.5,0.7-2.3,0.7c-1.1,0-2.2-0.6-2.2-1.8c0-1.4,1.1-2.4,2.1-3
	c0.7-0.4,1.5-0.7,2.3-0.7C267.4,106.4,268.5,107,268.5,108.3z"/>
<rect x="268" y="92" class="st4" width="0.2" height="26.1"/>
<rect x="268" y="92" width="0.2" height="26.1"/>
<path d="M258.6,120.8c-0.2,0-0.4-0.2-0.4-0.4v-2.9l-1.7,0.6v3.1c0,0.2-0.2,0.4-0.4,0.4s-0.4-0.2-0.4-0.4v-2.9l-0.6,0.2H255
	c-0.2,0-0.4-0.2-0.4-0.4v-1.2c0-0.2,0.1-0.3,0.3-0.4l0.9-0.3V113l-0.6,0.2h-0.1c-0.2,0-0.4-0.2-0.4-0.4v-1.2c0-0.2,0.1-0.3,0.3-0.4
	l0.9-0.3V108c0-0.2,0.2-0.4,0.4-0.4s0.4,0.2,0.4,0.4v2.9l1.7-0.6v-3.1c0-0.2,0.2-0.4,0.4-0.4s0.4,0.2,0.4,0.4v2.9l0.6-0.2h0.1
	c0.2,0,0.4,0.2,0.4,0.4v1.2c0,0.2-0.1,0.3-0.3,0.4l-1,0.1v3.2l0.6-0.2h0.1c0.2,0,0.4,0.2,0.4,0.4v1.2c0,0.2-0.1,0.3-0.3,0.4
	l-0.9,0.3v3.1C259,120.6,258.8,120.8,258.6,120.8z M256.6,116.1l1.7-0.6v-3.2l-1.7,0.6V116.1z"/>
<path d="M75.2,118.2c0,1.4-1.1,2.4-2.1,3c-0.7,0.4-1.5,0.7-2.3,0.7c-1.1,0-2.2-0.6-2.2-1.8c0-1.4,1.1-2.4,2.1-3
	c0.7-0.4,1.5-0.7,2.3-0.7C74.2,116.4,75.2,117,75.2,118.2z"/>
<path d="M75.2,113.2c0,1.4-1.1,2.4-2.1,3c-0.7,0.4-1.5,0.7-2.3,0.7c-1.1,0-2.2-0.6-2.2-1.8c0-1.4,1.1-2.4,2.1-3
	c0.7-0.4,1.5-0.7,2.3-0.7C74.2,111.4,75.2,112,75.2,113.2z"/>
<path d="M75.2,108.3c0,1.4-1.1,2.4-2.1,3c-0.7,0.4-1.5,0.7-2.3,0.7c-1.1,0-2.2-0.6-2.2-1.8c0-1.4,1.1-2.4,2.1-3
	c0.7-0.4,1.5-0.7,2.3-0.7C74.2,106.4,75.2,107,75.2,108.3z"/>
<rect x="74.8" y="92" class="st4" width="0.2" height="26.1"/>
<rect x="74.8" y="92" width="0.2" height="26.1"/>
<path d="M65.4,120.8c-0.2,0-0.4-0.2-0.4-0.4v-2.9l-1.7,0.6v3.1c0,0.2-0.2,0.4-0.4,0.4s-0.4-0.2-0.4-0.4v-2.9l-0.6,0.2h-0.1
	c-0.2,0-0.4-0.2-0.4-0.4v-1.2c0-0.2,0.1-0.3,0.3-0.4l0.9-0.3V113l-0.6,0.2h-0.1c-0.2,0-0.4-0.2-0.4-0.4v-1.2c0-0.2,0.1-0.3,0.3-0.4
	l0.9-0.3V108c0-0.2,0.2-0.4,0.4-0.4s0.4,0.2,0.4,0.4v2.9l1.7-0.6v-3.1c0-0.2,0.2-0.4,0.4-0.4s0.4,0.2,0.4,0.4v2.9l0.6-0.2h0.1
	c0.2,0,0.4,0.2,0.4,0.4v1.2c0,0.2-0.1,0.3-0.3,0.4l-0.9,0.3v3.2l0.6-0.2h0.1c0.2,0,0.4,0.2,0.4,0.4v1.2c0,0.2-0.1,0.3-0.3,0.4
	l-0.9,0.3v3.1C65.8,120.6,65.6,120.8,65.4,120.8z M63.4,116.1l1.7-0.6v-3.2l-1.7,0.6C63.4,112.9,63.4,116.1,63.4,116.1z"/>
<path d="M113.9,118.2c0,1.4-1.1,2.4-2.1,3c-0.7,0.4-1.5,0.7-2.3,0.7c-1.1,0-2.2-0.6-2.2-1.8c0-1.4,1.1-2.4,2.1-3
	c0.7-0.4,1.5-0.7,2.3-0.7C112.8,116.4,113.9,117,113.9,118.2z"/>
<path d="M113.9,113.2c0,1.4-1.1,2.4-2.1,3c-0.7,0.4-1.5,0.7-2.3,0.7c-1.1,0-2.2-0.6-2.2-1.8c0-1.4,1.1-2.4,2.1-3
	c0.7-0.4,1.5-0.7,2.3-0.7C112.8,111.4,113.9,112,113.9,113.2z"/>
<path d="M113.9,108.3c0,1.4-1.1,2.4-2.1,3c-0.7,0.4-1.5,0.7-2.3,0.7c-1.1,0-2.2-0.6-2.2-1.8c0-1.4,1.1-2.4,2.1-3
	c0.7-0.4,1.5-0.7,2.3-0.7C112.8,106.4,113.9,107,113.9,108.3z"/>
<rect x="113.4" y="92" class="st4" width="0.2" height="26.1"/>
<rect x="113.4" y="92" width="0.2" height="26.1"/>
<path d="M12.6,106.4c3.1,0,5.1,2.6,5.1,5.2c0,1.5-0.7,3.1-2.1,4.2c-0.4,0.3-0.9,0.6-1.5,0.7c0.1,0.7,0.1,1.4,0.1,2.1
	c0,0.4,0,0.8,0,1.2c-0.1,2.4-1.8,4.5-4.1,4.5c-2.2,0-3.9-1.8-3.9-3.9c0-1.2,1.1-2.1,2.2-2.1s1.9,0.9,1.9,2.1c0,1-0.9,1.9-1.9,1.9
	c-0.2,0-0.4,0-0.6-0.1c0.5,0.8,1.4,1.3,2.3,1.3c1.9,0,3.1-1.8,3.2-3.8c0-0.4,0-0.7,0-1.1c0-0.6,0-1.2-0.1-1.8
	c-0.6,0.1-1.2,0.2-1.8,0.2c-3.7,0-6.6-3.4-6.6-7.5c0-3.5,2.6-6.1,4.9-8.8c-0.4-1.2-0.7-2.5-0.9-3.8c-0.1-1-0.1-2.1-0.1-3.1
	c0-2.3,1.1-4.5,3-5.8c0.1,0,0.1-0.1,0.2-0.1c0.1,0,0.1,0,0.2,0.1c1.4,1.7,2.7,4.9,2.7,7.1c0,2.8-1.7,5.1-3.6,7.3
	c0.4,1.4,0.8,2.8,1.1,4.1C12.4,106.5,12.5,106.4,12.6,106.4z M11.6,116.1c0.6,0,1.1,0,1.6-0.1c-0.3-2.5-0.7-4.9-1.3-7.3
	c-1.6,0.2-2.5,1.2-2.5,2.4c0,0.9,0.5,1.8,1.6,2.5c0.1,0.1,0.1,0.2,0.1,0.3c0,0.2-0.2,0.4-0.4,0.4c-0.1,0-0.1,0-0.2,0
	c-1.6-0.9-2.3-2.3-2.3-3.7c0-1.8,1.2-3.5,3.2-3.9c-0.3-1.2-0.6-2.3-0.9-3.5c-2.1,2.4-4.2,4.8-4.2,8C6.3,113.8,8.9,116.1,11.6,116.1z
	 M9.8,96c0,1.5,0.4,2.7,0.7,3.9c1.6-1.9,2.9-3.9,2.9-6.5c0-1.1-0.1-1.6-0.4-2.6C11,91.8,9.8,93.8,9.8,96z M16.3,112.5
	c0-1.8-1.3-3.6-3.4-3.8c0.5,2.3,0.9,4.6,1.2,7.1C15.4,115.3,16.3,113.8,16.3,112.5z"/>
<path d="M36.3,118.2c0,1.4-1.1,2.4-2.1,3c-0.7,0.4-1.5,0.7-2.3,0.7c-1.1,0-2.2-0.6-2.2-1.8c0-1.4,1.1-2.4,2.1-3
	c0.7-0.4,1.5-0.7,2.3-0.7C35.3,116.4,36.3,117,36.3,118.2z"/>
<path d="M36.3,113.2c0,1.4-1.1,2.4-2.1,3c-0.7,0.4-1.5,0.7-2.3,0.7c-1.1,0-2.2-0.6-2.2-1.8c0-1.4,1.1-2.4,2.1-3
	c0.7-0.4,1.5-0.7,2.3-0.7C35.3,111.4,36.3,112,36.3,113.2z"/>
<path d="M36.3,108.3c0,1.4-1.1,2.4-2.1,3c-0.7,0.4-1.5,0.7-2.3,0.7c-1.1,0-2.2-0.6-2.2-1.8c0-1.4,1.1-2.4,2.1-3
	c0.7-0.4,1.5-0.7,2.3-0.7C35.3,106.4,36.3,107,36.3,108.3z"/>
<rect x="35.9" y="92" class="st4" width="0.2" height="26.1"/>
<rect x="35.9" y="92" width="0.2" height="26.1"/>
<path d="M189,118.2c0,1.4-1.1,2.4-2.1,3c-0.7,0.4-1.5,0.7-2.3,0.7c-1.1,0-2.2-0.6-2.2-1.8c0-1.4,1.1-2.4,2.1-3
	c0.7-0.4,1.5-0.7,2.3-0.7C187.9,116.4,189,117,189,118.2z"/>
<path d="M189,113.2c0,1.4-1.1,2.4-2.1,3c-0.7,0.4-1.5,0.7-2.3,0.7c-1.1,0-2.2-0.6-2.2-1.8c0-1.4,1.1-2.4,2.1-3
	c0.7-0.4,1.5-0.7,2.3-0.7C187.9,111.4,189,112,189,113.2z"/>
<path d="M189,108.3c0,1.4-1.1,2.4-2.1,3c-0.7,0.4-1.5,0.7-2.3,0.7c-1.1,0-2.2-0.6-2.2-1.8c0-1.4,1.1-2.4,2.1-3
	c0.7-0.4,1.5-0.7,2.3-0.7C187.9,106.4,189,107,189,108.3z"/>
<rect x="188.6" y="92" class="st4" width="0.2" height="26.1"/>
<rect x="188.6" y="92" width="0.2" height="26.1"/>
<path d="M227.5,118.2c0,1.4-1.1,2.4-2.1,3c-0.7,0.4-1.5,0.7-2.3,0.7c-1.1,0-2.2-0.6-2.2-1.8c0-1.4,1.1-2.4,2.1-3
	c0.7-0.4,1.5-0.7,2.3-0.7C226.4,116.4,227.5,117,227.5,118.2z"/>
<path d="M227.5,113.2c0,1.4-1.1,2.4-2.1,3c-0.7,0.4-1.5,0.7-2.3,0.7c-1.1,0-2.2-0.6-2.2-1.8c0-1.4,1.1-2.4,2.1-3
	c0.7-0.4,1.5-0.7,2.3-0.7C226.4,111.4,227.5,112,227.5,113.2z"/>
<path d="M227.5,108.3c0,1.4-1.1,2.4-2.1,3c-0.7,0.4-1.5,0.7-2.3,0.7c-1.1,0-2.2-0.6-2.2-1.8c0-1.4,1.1-2.4,2.1-3
	c0.7-0.4,1.5-0.7,2.3-0.7C226.4,106.4,227.5,107,227.5,108.3z"/>
<rect x="227" y="92" class="st4" width="0.2" height="26.1"/>
<rect x="227" y="92" width="0.2" height="26.1"/>
<path d="M150.4,113.2c0,1.4-1.1,2.4-2.1,3c-0.7,0.4-1.5,0.7-2.3,0.7c-1.1,0-2.2-0.6-2.2-1.8c0-1.4,1.1-2.4,2.1-3
	c0.7-0.4,1.5-0.7,2.3-0.7C149.4,111.4,150.4,112,150.4,113.2z"/>
<path d="M150.4,108.3c0,1.4-1.1,2.4-2.1,3c-0.7,0.4-1.5,0.7-2.3,0.7c-1.1,0-2.2-0.6-2.2-1.8c0-1.4,1.1-2.4,2.1-3
	c0.7-0.4,1.5-0.7,2.3-0.7C149.4,106.4,150.4,107,150.4,108.3z"/>
<path d="M150.4,103.3c0,1.4-1.1,2.4-2.1,3c-0.7,0.4-1.5,0.7-2.3,0.7c-1.1,0-2.2-0.6-2.2-1.8c0-1.4,1.1-2.4,2.1-3
	c0.7-0.4,1.5-0.7,2.3-0.7C149.4,101.5,150.4,102,150.4,103.3z"/>
<rect x="150" y="88.6" class="st4" width="0.2" height="24.4"/>
<rect x="150" y="88.6" width="0.2" height="24.4"/>
<path d="M26.6,16.6h1.5v-4.7h-1.2v-0.5c0.6-0.1,1-0.3,1.3-0.5h0.6v5.7h1.3v0.7h-3.6v-0.7H26.6z"/>
<path d="M32.1,16.2c0.3,0,0.6,0.3,0.6,0.6c0,0.4-0.3,0.6-0.6,0.6s-0.6-0.3-0.6-0.6C31.5,16.4,31.7,16.2,32.1,16.2z"/>
<path d="M37.9,12.3c0.6,0,0.9,0.2,1.4,0.6v-0.8v-1.9H40v7.1h-0.7l-0.1-0.6l0,0c-0.4,0.4-0.9,0.7-1.5,0.7c-1.2,0-2-0.9-2-2.5
	C35.8,13.3,36.8,12.3,37.9,12.3z M38,16.7c0.4,0,0.8-0.2,1.2-0.7v-2.5C38.8,13.2,38.4,13,38,13c-0.8,0-1.4,0.8-1.4,1.9
	S37.1,16.7,38,16.7z"/>
<path d="M41.5,10.9c0-0.3,0.2-0.5,0.6-0.5s0.6,0.2,0.6,0.5s-0.2,0.5-0.6,0.5S41.5,11.2,41.5,10.9z M41.7,12.5h0.8v4.9h-0.8V12.5z"/>
<path d="M44.1,12.5h0.7l0.1,0.7l0,0c0.4-0.5,0.9-0.8,1.5-0.8c0.7,0,1.1,0.3,1.3,0.9c0.5-0.5,1-0.9,1.6-0.9c1,0,1.5,0.7,1.5,1.9v3.1
	H50v-3c0-0.9-0.3-1.3-0.9-1.3c-0.4,0-0.8,0.2-1.2,0.8v3.5h-0.8v-3c0-0.9-0.3-1.3-0.9-1.3c-0.4,0-0.8,0.2-1.2,0.8v3.5h-0.8L44.1,12.5
	L44.1,12.5z"/>
<polygon points="61,12.1 60.6,12.6 62.6,14.5 55,14.5 57,12.6 56.6,12.1 53.9,14.8 53.9,14.8 56.6,17.5 57,17 55,15.1 62.6,15.1 
	60.6,17 61,17.5 63.7,14.8 63.7,14.8 "/>
<path d="M66.9,12.5h0.7l0.1,0.7l0,0c0.4-0.5,0.9-0.8,1.5-0.8c0.7,0,1.1,0.3,1.3,0.9c0.5-0.5,1-0.9,1.6-0.9c1,0,1.5,0.7,1.5,1.9v3.1
	h-0.8v-3c0-0.9-0.3-1.3-0.9-1.3c-0.4,0-0.8,0.2-1.2,0.8v3.5h-0.8v-3c0-0.9-0.3-1.3-0.9-1.3c-0.4,0-0.8,0.2-1.2,0.8v3.5H67L66.9,12.5
	L66.9,12.5z"/>
<path d="M75,10.9c0-0.3,0.2-0.5,0.6-0.5s0.6,0.2,0.6,0.5s-0.2,0.5-0.6,0.5S75,11.2,75,10.9z M75.2,12.5H76v4.9h-0.8V12.5z"/>
<path d="M77.6,12.5h0.7l0.1,0.7l0,0c0.5-0.5,1-0.8,1.6-0.8c1,0,1.5,0.7,1.5,1.9v3.1h-0.8v-3c0-0.9-0.3-1.3-0.9-1.3
	c-0.5,0-0.8,0.3-1.3,0.8v3.5h-0.8L77.6,12.5L77.6,12.5z"/>
<path d="M100.8,16.8c1.9-1.9,3-3.1,3-4.1c0-0.7-0.4-1.2-1.2-1.2c-0.5,0-1,0.3-1.4,0.8l-0.5-0.5c0.5-0.6,1.1-1,1.9-1
	c1.2,0,1.9,0.7,1.9,1.9s-1.1,2.4-2.6,4c0.3,0,0.7-0.1,1.1-0.1h1.8v0.7h-4.1L100.8,16.8L100.8,16.8z"/>
<path d="M106.7,16.2c0.3,0,0.6,0.3,0.6,0.6c0,0.4-0.3,0.6-0.6,0.6c-0.3,0-0.6-0.3-0.6-0.6C106.1,16.4,106.3,16.2,106.7,16.2z"/>
<path d="M112.5,12.3c0.6,0,0.9,0.2,1.4,0.6v-0.8v-1.9h0.8v7.1H114l-0.1-0.6l0,0c-0.4,0.4-0.9,0.7-1.5,0.7c-1.2,0-2-0.9-2-2.5
	S111.4,12.3,112.5,12.3z M112.6,16.7c0.4,0,0.8-0.2,1.2-0.7v-2.5c-0.4-0.4-0.8-0.5-1.2-0.5c-0.8,0-1.4,0.8-1.4,1.9
	S111.7,16.7,112.6,16.7z"/>
<path d="M116.1,10.9c0-0.3,0.2-0.5,0.6-0.5s0.6,0.2,0.6,0.5s-0.2,0.5-0.6,0.5S116.1,11.2,116.1,10.9z M116.3,12.5h0.8v4.9h-0.8V12.5
	z"/>
<path d="M118.8,12.5h0.7l0.1,0.7l0,0c0.4-0.5,0.9-0.8,1.5-0.8c0.7,0,1.1,0.3,1.3,0.9c0.5-0.5,1-0.9,1.6-0.9c1,0,1.5,0.7,1.5,1.9v3.1
	h-0.8v-3c0-0.9-0.3-1.3-0.9-1.3c-0.4,0-0.8,0.2-1.2,0.8v3.5h-0.8v-3c0-0.9-0.3-1.3-0.9-1.3c-0.4,0-0.8,0.2-1.2,0.8v3.5h-0.8
	L118.8,12.5L118.8,12.5z"/>
<polygon points="135.2,12.6 137.2,14.5 129.6,14.5 131.7,12.6 131.2,12.1 128.5,14.8 128.5,14.8 131.2,17.5 131.7,17 129.6,15.1 
	137.2,15.1 135.2,17 135.6,17.5 138.4,14.8 138.4,14.8 135.6,12.1 "/>
<path d="M146.7,12.3c-0.6,0-1.1,0.4-1.6,0.9c-0.2-0.6-0.6-0.9-1.3-0.9c-0.6,0-1.1,0.4-1.5,0.8l0,0l-0.1-0.7h-0.7v4.9h0.8v-3.5
	c0.4-0.5,0.9-0.8,1.2-0.8c0.6,0,0.9,0.4,0.9,1.3v3h0.8v-3.5c0.4-0.5,0.8-0.8,1.2-0.8c0.6,0,0.9,0.4,0.9,1.3v3h0.8v-3.1
	C148.2,13,147.7,12.3,146.7,12.3z"/>
<rect x="149.8" y="12.5" width="0.8" height="4.9"/>
<path d="M150.2,10.4c-0.3,0-0.6,0.2-0.6,0.5s0.2,0.5,0.6,0.5s0.6-0.2,0.6-0.5C150.8,10.6,150.5,10.4,150.2,10.4z"/>
<path d="M154.6,12.3c-0.7,0-1.2,0.4-1.6,0.8l0,0l-0.1-0.7h-0.7v4.9h0.8v-3.5c0.5-0.5,0.8-0.8,1.3-0.8c0.6,0,0.9,0.4,0.9,1.3v3h0.8
	v-3.1C156.1,13,155.7,12.3,154.6,12.3z"/>
<path d="M179.2,16c0.4,0.4,0.9,0.8,1.6,0.8c0.8,0,1.3-0.5,1.3-1.2c0-0.8-0.5-1.3-2-1.3v-0.6c1.4,0,1.8-0.5,1.8-1.2
	c0-0.6-0.4-1-1.1-1c-0.5,0-1,0.3-1.4,0.7l-0.4-0.5c0.5-0.5,1.1-0.8,1.8-0.8c1.1,0,1.9,0.6,1.9,1.6c0,0.8-0.5,1.3-1.2,1.5l0,0
	c0.8,0.2,1.4,0.7,1.4,1.6c0,1.1-0.9,1.8-2.1,1.8c-1,0-1.7-0.4-2.1-0.9L179.2,16z"/>
<path d="M184.7,16.2c0.3,0,0.6,0.3,0.6,0.6c0,0.4-0.3,0.6-0.6,0.6s-0.6-0.3-0.6-0.6C184.1,16.4,184.4,16.2,184.7,16.2z"/>
<path d="M190.6,12.3c0.6,0,0.9,0.2,1.4,0.6v-0.8v-1.9h0.8v7.1h-0.7l-0.1-0.6l0,0c-0.4,0.4-0.9,0.7-1.5,0.7c-1.2,0-2-0.9-2-2.5
	S189.5,12.3,190.6,12.3z M190.7,16.7c0.4,0,0.8-0.2,1.2-0.7v-2.5c-0.4-0.4-0.8-0.5-1.2-0.5c-0.8,0-1.4,0.8-1.4,1.9
	S189.8,16.7,190.7,16.7z"/>
<path d="M194.2,10.9c0-0.3,0.2-0.5,0.6-0.5s0.6,0.2,0.6,0.5s-0.2,0.5-0.6,0.5S194.2,11.2,194.2,10.9z M194.4,12.5h0.8v4.9h-0.8V12.5
	z"/>
<path d="M196.8,12.5h0.7l0.1,0.7l0,0c0.4-0.5,0.9-0.8,1.5-0.8c0.7,0,1.1,0.3,1.3,0.9c0.5-0.5,1-0.9,1.6-0.9c1,0,1.5,0.7,1.5,1.9v3.1
	h-0.8v-3c0-0.9-0.3-1.3-0.9-1.3c-0.4,0-0.8,0.2-1.2,0.8v3.5h-0.8v-3c0-0.9-0.3-1.3-0.9-1.3c-0.4,0-0.8,0.2-1.2,0.8v3.5h-0.8v-4.9
	H196.8z"/>
<polygon points="213.3,12.6 215.3,14.5 207.7,14.5 209.7,12.6 209.3,12.1 206.6,14.8 206.6,14.8 209.3,17.5 209.7,17 207.7,15.1 
	215.3,15.1 213.3,17 213.7,17.5 216.4,14.8 216.4,14.8 213.7,12.1 "/>
<path d="M224.8,12.3c-0.6,0-1.1,0.4-1.6,0.9c-0.2-0.6-0.6-0.9-1.3-0.9c-0.6,0-1.1,0.4-1.5,0.8l0,0l-0.1-0.7h-0.7v4.9h0.8v-3.5
	c0.4-0.5,0.9-0.8,1.2-0.8c0.6,0,0.9,0.4,0.9,1.3v3h0.8v-3.5c0.4-0.5,0.8-0.8,1.2-0.8c0.6,0,0.9,0.4,0.9,1.3v3h0.8v-3.1
	C226.3,13,225.8,12.3,224.8,12.3z"/>
<path d="M229.7,12.3c-0.8,0-1.5,0.3-1.9,0.6l0.3,0.6c0.4-0.3,0.9-0.5,1.4-0.5c0.8,0,1,0.6,1,1.2c-2.1,0.2-3,0.8-3,1.8
	c0,0.9,0.6,1.4,1.4,1.4c0.6,0,1.1-0.3,1.6-0.7l0,0l0.1,0.6h0.7v-3C231.4,13.1,230.9,12.3,229.7,12.3z M230.6,16.1
	c-0.5,0.4-0.9,0.6-1.3,0.6c-0.5,0-0.8-0.2-0.8-0.8c0-0.6,0.5-1,2.2-1.2L230.6,16.1L230.6,16.1z"/>
<path d="M233.4,11.5c0.3,0,0.6-0.2,0.6-0.5s-0.2-0.5-0.6-0.5c-0.3,0-0.6,0.2-0.6,0.5C232.8,11.2,233.1,11.5,233.4,11.5z"/>
<path d="M233,17.9c0,0.6-0.1,0.9-0.6,0.9c-0.2,0-0.3,0-0.5-0.1l-0.2,0.6c0.2,0.1,0.4,0.1,0.7,0.1c1,0,1.3-0.6,1.3-1.6v-5.4H233V17.9
	z"/>
<path d="M264.9,15.6H264v1.8h-0.8v-1.8h-2.9V15l2.7-4.1h0.9v4h0.9L264.9,15.6L264.9,15.6z M263.2,14.9V13c0-0.3,0-0.9,0.1-1.2l0,0
	c-0.2,0.3-0.3,0.6-0.5,0.9l-1.5,2.2H263.2z"/>
<path d="M266.4,16.2c0.3,0,0.6,0.3,0.6,0.6c0,0.4-0.3,0.6-0.6,0.6c-0.3,0-0.6-0.3-0.6-0.6C265.8,16.4,266.1,16.2,266.4,16.2z"/>
<path d="M272.3,12.3c0.6,0,0.9,0.2,1.4,0.6v-0.8v-1.9h0.8v7.1h-0.7l-0.1-0.6l0,0c-0.4,0.4-0.9,0.7-1.5,0.7c-1.2,0-2-0.9-2-2.5
	C270.1,13.3,271.1,12.3,272.3,12.3z M272.3,16.7c0.5,0,0.8-0.2,1.2-0.7v-2.5c-0.4-0.4-0.8-0.5-1.2-0.5c-0.8,0-1.4,0.8-1.4,1.9
	C271,16,271.5,16.7,272.3,16.7z"/>
<path d="M275.9,10.9c0-0.3,0.2-0.5,0.6-0.5c0.3,0,0.6,0.2,0.6,0.5s-0.2,0.5-0.6,0.5C276.1,11.5,275.9,11.2,275.9,10.9z M276,12.5
	h0.8v4.9H276V12.5z"/>
<path d="M278.5,12.5h0.7l0.1,0.7l0,0c0.4-0.5,0.9-0.8,1.5-0.8c0.7,0,1.1,0.3,1.3,0.9c0.5-0.5,1-0.9,1.6-0.9c1,0,1.5,0.7,1.5,1.9v3.1
	h-0.8v-3c0-0.9-0.3-1.3-0.9-1.3c-0.4,0-0.8,0.2-1.2,0.8v3.5h-0.8v-3c0-0.9-0.3-1.3-0.9-1.3c-0.4,0-0.8,0.2-1.2,0.8v3.5h-0.8v-4.9
	H278.5z"/>
<polygon points="295,12.6 297,14.5 289.4,14.5 291.4,12.6 291,12.1 288.3,14.8 288.3,14.8 291,17.5 291.4,17 289.4,15.1 297,15.1 
	295,17 295.4,17.5 298.1,14.8 298.1,14.8 295.4,12.1 "/>
<path d="M306.5,12.3c-0.6,0-1.1,0.4-1.6,0.9c-0.2-0.6-0.6-0.9-1.3-0.9c-0.6,0-1.1,0.4-1.5,0.8l0,0l-0.1-0.7h-0.7v4.9h0.8v-3.5
	c0.4-0.5,0.9-0.8,1.2-0.8c0.6,0,0.9,0.4,0.9,1.3v3h0.8v-3.5c0.4-0.5,0.8-0.8,1.2-0.8c0.6,0,0.9,0.4,0.9,1.3v3h0.8v-3.1
	C307.9,13,307.5,12.3,306.5,12.3z"/>
<path d="M311.4,12.3c-0.8,0-1.5,0.3-1.9,0.6l0.3,0.6c0.4-0.3,0.9-0.5,1.4-0.5c0.8,0,1,0.6,1,1.2c-2.1,0.2-3,0.8-3,1.8
	c0,0.9,0.6,1.4,1.4,1.4c0.6,0,1.1-0.3,1.6-0.7l0,0l0.1,0.6h0.7v-3C313.1,13.1,312.6,12.3,311.4,12.3z M312.3,16.1
	c-0.5,0.4-0.9,0.6-1.3,0.6c-0.5,0-0.8-0.2-0.8-0.8c0-0.6,0.5-1,2.2-1.2v1.4H312.3z"/>
<path d="M315.1,11.5c0.3,0,0.6-0.2,0.6-0.5s-0.2-0.5-0.6-0.5c-0.3,0-0.6,0.2-0.6,0.5C314.5,11.2,314.7,11.5,315.1,11.5z"/>
<path d="M314.6,17.9c0,0.6-0.1,0.9-0.6,0.9c-0.2,0-0.3,0-0.5-0.1l-0.2,0.6c0.2,0.1,0.4,0.1,0.7,0.1c1,0,1.3-0.6,1.3-1.6v-5.4h-0.8
	v5.5H314.6z"/>
<path d="M29.8,80.5c-0.3-0.3-0.6-0.5-1-0.5c-0.9,0-1.6,0.7-1.7,2.7c0.4-0.5,1-0.8,1.5-0.8c1.1,0,1.8,0.7,1.8,2c0,1.2-0.9,2-1.9,2
	c-1.2,0-2.2-1-2.2-3.1c0-2.6,1.2-3.5,2.4-3.5c0.7,0,1.2,0.3,1.5,0.7L29.8,80.5z M29.6,83.9c0-0.8-0.4-1.3-1.2-1.3
	c-0.4,0-0.9,0.2-1.3,0.8c0.1,1.2,0.6,1.9,1.4,1.9C29.1,85.3,29.6,84.7,29.6,83.9z"/>
<path d="M32.1,84.7c0.3,0,0.6,0.3,0.6,0.6c0,0.4-0.3,0.6-0.6,0.6s-0.6-0.3-0.6-0.6C31.5,84.9,31.7,84.7,32.1,84.7z"/>
<path d="M36.1,80.9h0.7l0.1,0.7l0,0c0.4-0.5,0.9-0.8,1.5-0.8c0.7,0,1.1,0.3,1.3,0.9c0.5-0.5,1-0.9,1.6-0.9c1,0,1.5,0.7,1.5,1.9v3.1
	H42v-3c0-0.9-0.3-1.3-0.9-1.3c-0.4,0-0.8,0.2-1.2,0.8v3.5h-0.8v-3c0-0.9-0.3-1.3-0.9-1.3c-0.4,0-0.8,0.2-1.2,0.8v3.5h-0.8L36.1,80.9
	L36.1,80.9z"/>
<path d="M44.3,79.4c0-0.3,0.2-0.5,0.6-0.5s0.6,0.2,0.6,0.5s-0.2,0.5-0.6,0.5S44.3,79.7,44.3,79.4z M44.4,80.9h0.8v4.9h-0.8V80.9z"/>
<path d="M46.9,80.9h0.7l0.1,0.7l0,0c0.5-0.5,1-0.8,1.6-0.8c1,0,1.5,0.7,1.5,1.9v3.1H50v-3c0-0.9-0.3-1.3-0.9-1.3
	c-0.5,0-0.8,0.3-1.3,0.8v3.5H47L46.9,80.9L46.9,80.9z"/>
<polygon points="60.9,80.6 60.5,81.1 62.5,82.9 54.9,82.9 56.9,81.1 56.5,80.6 53.8,83.3 53.8,83.3 56.5,86 56.9,85.5 54.9,83.6 
	62.5,83.6 60.5,85.5 60.9,86 63.6,83.3 63.6,83.3 "/>
<path d="M66.8,80.9h0.7l0.1,0.7l0,0c0.4-0.5,0.9-0.8,1.5-0.8c0.7,0,1.1,0.3,1.3,0.9c0.5-0.5,1-0.9,1.6-0.9c1,0,1.5,0.7,1.5,1.9v3.1
	h-0.8v-3c0-0.9-0.3-1.3-0.9-1.3c-0.4,0-0.8,0.2-1.2,0.8v3.5h-0.8v-3c0-0.9-0.3-1.3-0.9-1.3c-0.4,0-0.8,0.2-1.2,0.8v3.5h-0.8
	L66.8,80.9L66.8,80.9z"/>
<path d="M77.8,82.7c0-0.6-0.2-1.2-1-1.2c-0.6,0-1.1,0.3-1.4,0.5L75,81.5c0.5-0.3,1.1-0.6,1.9-0.6c1.2,0,1.7,0.8,1.7,2v3h-0.7
	l-0.1-0.6l0,0c-0.5,0.4-1,0.7-1.6,0.7c-0.8,0-1.4-0.5-1.4-1.4C74.8,83.5,75.7,83,77.8,82.7z M76.5,85.3c0.5,0,0.9-0.2,1.3-0.6v-1.3
	c-1.6,0.2-2.2,0.6-2.2,1.2C75.6,85,76,85.3,76.5,85.3z"/>
<path d="M80.2,80.9H81v5.4c0,1-0.4,1.6-1.3,1.6c-0.3,0-0.5-0.1-0.7-0.1l0.2-0.6c0.1,0,0.3,0.1,0.5,0.1c0.5,0,0.6-0.4,0.6-0.9
	L80.2,80.9L80.2,80.9z M80,79.4c0-0.3,0.2-0.5,0.6-0.5c0.3,0,0.6,0.2,0.6,0.5s-0.2,0.5-0.6,0.5C80.3,79.9,80,79.7,80,79.4z"/>
<path d="M106.1,80.1h-3.2v-0.7h4.1v0.5c-1.5,1.9-1.8,3.4-1.9,5.9h-0.8C104.3,83.4,104.8,81.9,106.1,80.1z"/>
<path d="M108.7,84.7c0.3,0,0.6,0.3,0.6,0.6c0,0.4-0.3,0.6-0.6,0.6c-0.3,0-0.6-0.3-0.6-0.6C108.1,84.9,108.3,84.7,108.7,84.7z"/>
<path d="M112.7,80.9h0.7l0.1,0.7l0,0c0.4-0.5,0.9-0.8,1.5-0.8c0.7,0,1.1,0.3,1.3,0.9c0.5-0.5,1-0.9,1.6-0.9c1,0,1.5,0.7,1.5,1.9v3.1
	h-0.8v-3c0-0.9-0.3-1.3-0.9-1.3c-0.4,0-0.8,0.2-1.2,0.8v3.5h-0.8v-3c0-0.9-0.3-1.3-0.9-1.3c-0.4,0-0.8,0.2-1.2,0.8v3.5h-0.8
	L112.7,80.9L112.7,80.9z"/>
<path d="M120.9,79.4c0-0.3,0.2-0.5,0.6-0.5s0.6,0.2,0.6,0.5s-0.2,0.5-0.6,0.5S120.9,79.7,120.9,79.4z M121,80.9h0.8v4.9H121V80.9z"
	/>
<path d="M123.5,80.9h0.7l0.1,0.7l0,0c0.5-0.5,1-0.8,1.6-0.8c1,0,1.5,0.7,1.5,1.9v3.1h-0.8v-3c0-0.9-0.3-1.3-0.9-1.3
	c-0.5,0-0.8,0.3-1.3,0.8v3.5h-0.8L123.5,80.9L123.5,80.9z"/>
<polygon points="137.5,80.6 137.1,81.1 139.1,82.9 131.5,82.9 133.6,81.1 133.1,80.6 130.4,83.3 130.4,83.3 133.1,86 133.6,85.5 
	131.5,83.6 139.1,83.6 137.1,85.5 137.5,86 140.3,83.3 140.3,83.3 "/>
<path d="M143.4,80.9h0.7l0.1,0.7l0,0c0.4-0.5,0.9-0.8,1.5-0.8c0.7,0,1.1,0.3,1.3,0.9c0.5-0.5,1-0.9,1.6-0.9c1,0,1.5,0.7,1.5,1.9v3.1
	h-0.8v-3c0-0.9-0.3-1.3-0.9-1.3c-0.4,0-0.8,0.2-1.2,0.8v3.5h-0.8v-3c0-0.9-0.3-1.3-0.9-1.3c-0.4,0-0.8,0.2-1.2,0.8v3.5h-0.8v-4.9
	H143.4z"/>
<path d="M154.4,82.7c0-0.6-0.2-1.2-1-1.2c-0.6,0-1.1,0.3-1.4,0.5l-0.3-0.6c0.4-0.3,1.1-0.6,1.9-0.6c1.2,0,1.7,0.8,1.7,2v3h-0.7
	l-0.1-0.6l0,0c-0.5,0.4-1,0.7-1.6,0.7c-0.8,0-1.4-0.5-1.4-1.4C151.4,83.5,152.3,83,154.4,82.7z M153.1,85.3c0.5,0,0.9-0.2,1.3-0.6
	v-1.3c-1.6,0.2-2.2,0.6-2.2,1.2C152.2,85,152.6,85.3,153.1,85.3z"/>
<path d="M156.8,80.9h0.8v5.4c0,1-0.4,1.6-1.3,1.6c-0.3,0-0.5-0.1-0.7-0.1l0.2-0.6c0.1,0,0.3,0.1,0.5,0.1c0.5,0,0.6-0.4,0.6-0.9v-5.5
	H156.8z M156.6,79.4c0-0.3,0.2-0.5,0.6-0.5c0.3,0,0.6,0.2,0.6,0.5s-0.2,0.5-0.6,0.5C156.9,79.9,156.6,79.7,156.6,79.4z"/>
<path d="M179.1,82.5L179.1,82.5c-0.5-0.4-0.9-0.8-0.9-1.5c0-1,0.8-1.6,1.8-1.6c1.1,0,1.8,0.7,1.8,1.7c0,0.7-0.5,1.2-0.9,1.5l0,0
	c0.6,0.3,1.1,0.8,1.1,1.6c0,0.9-0.8,1.7-2.1,1.7c-1.2,0-2.1-0.7-2.1-1.7C177.9,83.3,178.5,82.8,179.1,82.5z M180,85.3
	c0.7,0,1.2-0.5,1.2-1.1c0-0.8-0.8-1.1-1.7-1.5c-0.5,0.3-0.9,0.8-0.9,1.4C178.7,84.8,179.3,85.3,180,85.3z M181.1,81
	c0-0.6-0.4-1.1-1.1-1.1c-0.6,0-1,0.4-1,1c0,0.8,0.7,1.1,1.5,1.4C180.9,81.9,181.1,81.5,181.1,81z"/>
<path d="M183.7,84.7c0.3,0,0.6,0.3,0.6,0.6c0,0.4-0.3,0.6-0.6,0.6s-0.6-0.3-0.6-0.6C183.1,84.9,183.4,84.7,183.7,84.7z"/>
<path d="M187.8,80.9h0.7l0.1,0.7l0,0c0.4-0.5,0.9-0.8,1.5-0.8c0.7,0,1.1,0.3,1.3,0.9c0.5-0.5,1-0.9,1.6-0.9c1,0,1.5,0.7,1.5,1.9v3.1
	h-0.8v-3c0-0.9-0.3-1.3-0.9-1.3c-0.4,0-0.8,0.2-1.2,0.8v3.5h-0.8v-3c0-0.9-0.3-1.3-0.9-1.3c-0.4,0-0.8,0.2-1.2,0.8v3.5h-0.8v-4.9
	H187.8z"/>
<path d="M196,79.4c0-0.3,0.2-0.5,0.6-0.5s0.6,0.2,0.6,0.5s-0.2,0.5-0.6,0.5S196,79.7,196,79.4z M196.1,80.9h0.8v4.9h-0.8V80.9z"/>
<path d="M198.6,80.9h0.7l0.1,0.7l0,0c0.5-0.5,1-0.8,1.6-0.8c1,0,1.5,0.7,1.5,1.9v3.1h-0.8v-3c0-0.9-0.3-1.3-0.9-1.3
	c-0.5,0-0.8,0.3-1.3,0.8v3.5h-0.8v-4.9H198.6z"/>
<polygon points="212.6,80.6 212.2,81.1 214.2,82.9 206.6,82.9 208.6,81.1 208.2,80.6 205.5,83.3 205.5,83.3 208.2,86 208.6,85.5 
	206.6,83.6 214.2,83.6 212.2,85.5 212.6,86 215.3,83.3 215.3,83.3 "/>
<path d="M221.2,82.7c0-0.6-0.2-1.2-1-1.2c-0.6,0-1.1,0.3-1.4,0.5l-0.3-0.6c0.4-0.3,1.1-0.6,1.9-0.6c1.2,0,1.7,0.8,1.7,2v3h-0.7
	l-0.1-0.6l0,0c-0.5,0.4-1,0.7-1.6,0.7c-0.8,0-1.4-0.5-1.4-1.4C218.2,83.5,219.1,83,221.2,82.7z M219.9,85.3c0.5,0,0.9-0.2,1.3-0.6
	v-1.3c-1.6,0.2-2.2,0.6-2.2,1.2C219,85,219.4,85.3,219.9,85.3z"/>
<path d="M223.5,80.9h0.8v3c0,0.9,0.3,1.3,0.9,1.3c0.5,0,0.8-0.2,1.3-0.8V81h0.8v4.9h-0.7l-0.1-0.8l0,0c-0.4,0.5-0.9,0.9-1.6,0.9
	c-1,0-1.5-0.7-1.5-1.9v-3.2H223.5z"/>
<path d="M229.4,85.6L229.4,85.6c-0.2-0.2-0.4-0.5-0.4-0.8c0-0.4,0.3-0.7,0.5-0.9l0,0c-0.3-0.3-0.6-0.7-0.6-1.3
	c0-1.1,0.8-1.7,1.8-1.7c0.3,0,0.5,0,0.7,0.1h1.7v0.6h-1c0.2,0.2,0.4,0.6,0.4,1c0,1-0.8,1.7-1.8,1.7c-0.2,0-0.5-0.1-0.7-0.2
	c-0.2,0.1-0.3,0.3-0.3,0.6c0,0.3,0.2,0.5,0.9,0.5h0.9c1.1,0,1.7,0.3,1.7,1.2c0,0.9-0.9,1.7-2.5,1.7c-1.2,0-2-0.5-2-1.3
	C228.6,86.3,228.9,85.9,229.4,85.6z M230.8,87.5c0.9,0,1.5-0.5,1.5-1s-0.3-0.6-1-0.6h-0.8c-0.2,0-0.4,0-0.6-0.1
	c-0.3,0.2-0.5,0.5-0.5,0.8C229.4,87.1,229.9,87.5,230.8,87.5z M231.7,82.6c0-0.7-0.5-1.1-1-1.1c-0.6,0-1,0.4-1,1.1s0.5,1.2,1,1.2
	C231.2,83.7,231.7,83.3,231.7,82.6z"/>
<path d="M258.2,84.7c0.3,0.3,0.6,0.5,1,0.5c0.9,0,1.7-0.7,1.7-2.7c-0.4,0.5-1,0.8-1.5,0.8c-1.1,0-1.8-0.7-1.8-2c0-1.2,0.9-2,1.9-2
	c1.3,0,2.2,1,2.2,3.1c0,2.6-1.2,3.5-2.4,3.5c-0.7,0-1.2-0.3-1.5-0.7L258.2,84.7z M260.9,81.9c-0.1-1.2-0.6-1.9-1.4-1.9
	c-0.6,0-1.1,0.6-1.1,1.4s0.4,1.3,1.2,1.3C260,82.7,260.5,82.5,260.9,81.9z"/>
<path d="M263.4,84.7c0.3,0,0.6,0.3,0.6,0.6c0,0.4-0.3,0.6-0.6,0.6c-0.3,0-0.6-0.3-0.6-0.6C262.8,84.9,263.1,84.7,263.4,84.7z"/>
<path d="M267.5,80.9h0.7l0.1,0.7l0,0c0.4-0.5,0.9-0.8,1.5-0.8c0.7,0,1.1,0.3,1.3,0.9c0.5-0.5,1-0.9,1.6-0.9c1,0,1.5,0.7,1.5,1.9v3.1
	h-0.8v-3c0-0.9-0.3-1.3-0.9-1.3c-0.4,0-0.8,0.2-1.2,0.8v3.5h-0.8v-3c0-0.9-0.3-1.3-0.9-1.3c-0.4,0-0.8,0.2-1.2,0.8v3.5h-0.8v-4.9
	H267.5z"/>
<path d="M278.5,82.7c0-0.6-0.2-1.2-1-1.2c-0.6,0-1.1,0.3-1.4,0.5l-0.3-0.6c0.4-0.3,1.1-0.6,1.9-0.6c1.2,0,1.7,0.8,1.7,2v3h-0.7
	l-0.1-0.6l0,0c-0.5,0.4-1,0.7-1.6,0.7c-0.8,0-1.4-0.5-1.4-1.4C275.5,83.5,276.5,83,278.5,82.7z M277.2,85.3c0.5,0,0.9-0.2,1.3-0.6
	v-1.3c-1.6,0.2-2.2,0.6-2.2,1.2C276.4,85,276.7,85.3,277.2,85.3z"/>
<path d="M280.9,80.9h0.8v5.4c0,1-0.4,1.6-1.3,1.6c-0.3,0-0.5-0.1-0.7-0.1l0.2-0.6c0.1,0,0.3,0.1,0.5,0.1c0.5,0,0.6-0.4,0.6-0.9v-5.5
	H280.9z M280.8,79.4c0-0.3,0.2-0.5,0.6-0.5c0.3,0,0.6,0.2,0.6,0.5s-0.2,0.5-0.6,0.5S280.8,79.7,280.8,79.4z"/>
<polygon points="292,80.6 291.6,81.1 293.6,82.9 286,82.9 288,81.1 287.6,80.6 284.9,83.3 284.9,83.3 287.6,86 288,85.5 286,83.6 
	293.6,83.6 291.6,85.5 292,86 294.7,83.3 294.7,83.3 "/>
<path d="M300.6,82.7c0-0.6-0.2-1.2-1-1.2c-0.6,0-1.1,0.3-1.4,0.5l-0.3-0.6c0.5-0.3,1.1-0.6,1.9-0.6c1.2,0,1.7,0.8,1.7,2v3h-0.7
	l-0.1-0.6l0,0c-0.5,0.4-1,0.7-1.6,0.7c-0.8,0-1.4-0.5-1.4-1.4C297.6,83.5,298.5,83,300.6,82.7z M299.2,85.3c0.5,0,0.9-0.2,1.3-0.6
	v-1.3c-1.6,0.2-2.2,0.6-2.2,1.2C298.4,85,298.8,85.3,299.2,85.3z"/>
<path d="M302.9,80.9h0.8v3c0,0.9,0.3,1.3,0.9,1.3c0.5,0,0.8-0.2,1.3-0.8V81h0.8v4.9H306l0-0.9l0,0c-0.5,0.5-0.9,0.9-1.6,0.9
	c-1,0-1.5-0.7-1.5-1.9V80.9z"/>
<path d="M308.7,85.6L308.7,85.6c-0.2-0.2-0.4-0.5-0.4-0.8c0-0.4,0.3-0.7,0.5-0.9l0,0c-0.3-0.3-0.6-0.7-0.6-1.3
	c0-1.1,0.8-1.7,1.8-1.7c0.3,0,0.5,0,0.7,0.1h1.7v0.6h-1c0.2,0.2,0.4,0.6,0.4,1c0,1-0.8,1.7-1.8,1.7c-0.2,0-0.5-0.1-0.7-0.2
	c-0.2,0.1-0.3,0.3-0.3,0.6c0,0.3,0.2,0.5,0.9,0.5h0.9c1.1,0,1.7,0.3,1.7,1.2c0,0.9-1,1.7-2.5,1.7c-1.2,0-2-0.5-2-1.3
	C308,86.3,308.3,85.9,308.7,85.6z M310.1,87.5c0.9,0,1.5-0.5,1.5-1s-0.3-0.6-1-0.6h-0.8c-0.2,0-0.4,0-0.6-0.1
	c-0.3,0.2-0.5,0.5-0.5,0.8C308.7,87.1,309.3,87.5,310.1,87.5z M311.1,82.6c0-0.7-0.5-1.1-1-1.1s-1,0.4-1,1.1s0.5,1.2,1,1.2
	S311.1,83.3,311.1,82.6z"/>
<path d="M337.1,16c0.4,0.4,0.9,0.7,1.6,0.7c0.8,0,1.4-0.6,1.4-1.5s-0.5-1.4-1.4-1.4c-0.4,0-0.7,0.1-1.1,0.4l-0.4-0.3l0.2-3.1h3.2
	v0.7h-2.5l-0.2,1.9c0.3-0.2,0.6-0.3,1-0.3c1.1,0,2,0.6,2,2s-1,2.2-2.1,2.2c-1,0-1.6-0.4-2.1-0.9L337.1,16z"/>
<path d="M342.7,16.2c0.3,0,0.6,0.3,0.6,0.6c0,0.4-0.3,0.6-0.6,0.6c-0.3,0-0.6-0.3-0.6-0.6C342.1,16.4,342.3,16.2,342.7,16.2z"/>
<path d="M348.5,12.3c0.6,0,0.9,0.2,1.4,0.6v-0.8v-1.9h0.8v7.1H350l-0.1-0.6l0,0c-0.4,0.4-0.9,0.7-1.5,0.7c-1.2,0-2-0.9-2-2.5
	S347.4,12.3,348.5,12.3z M348.6,16.7c0.5,0,0.8-0.2,1.2-0.7v-2.5c-0.4-0.4-0.8-0.5-1.2-0.5c-0.8,0-1.4,0.8-1.4,1.9
	S347.7,16.7,348.6,16.7z"/>
<path d="M352.1,10.9c0-0.3,0.2-0.5,0.6-0.5c0.3,0,0.6,0.2,0.6,0.5s-0.2,0.5-0.6,0.5C352.4,11.5,352.1,11.2,352.1,10.9z M352.3,12.5
	h0.8v4.9h-0.8V12.5z"/>
<path d="M354.7,12.5h0.7l0.1,0.7l0,0c0.4-0.5,0.9-0.8,1.5-0.8c0.7,0,1.1,0.3,1.3,0.9c0.5-0.5,1-0.9,1.6-0.9c1,0,1.5,0.7,1.5,1.9v3.1
	h-0.8v-3c0-0.9-0.3-1.3-0.9-1.3c-0.4,0-0.8,0.2-1.2,0.8v3.5h-0.8v-3c0-0.9-0.3-1.3-0.9-1.3c-0.4,0-0.8,0.2-1.2,0.8v3.5h-0.8v-4.9
	H354.7z"/>
<polygon points="373.6,12.1 373.2,12.6 375.2,14.5 367.6,14.5 369.6,12.6 369.2,12.1 366.5,14.8 366.5,14.8 369.2,17.5 369.6,17 
	367.6,15.1 375.2,15.1 373.2,17 373.6,17.5 376.3,14.8 376.3,14.8 "/>
<path d="M383.2,12.3c0.6,0,0.9,0.2,1.4,0.6v-0.8v-1.9h0.8v7.1h-0.7l-0.1-0.6l0,0c-0.4,0.4-0.9,0.7-1.5,0.7c-1.2,0-2-0.9-2-2.5
	C381.1,13.3,382.1,12.3,383.2,12.3z M383.3,16.7c0.5,0,0.8-0.2,1.2-0.7v-2.5c-0.4-0.4-0.8-0.5-1.2-0.5c-0.8,0-1.4,0.8-1.4,1.9
	C382,16,382.5,16.7,383.3,16.7z"/>
<path d="M386.9,10.9c0-0.3,0.2-0.5,0.6-0.5c0.3,0,0.6,0.2,0.6,0.5s-0.2,0.5-0.6,0.5C387.1,11.5,386.9,11.2,386.9,10.9z M387,12.5
	h0.8v4.9H387V12.5z"/>
<path d="M389.5,12.5h0.7l0.1,0.7l0,0c0.4-0.5,0.9-0.8,1.5-0.8c0.7,0,1.1,0.3,1.3,0.9c0.5-0.5,1-0.9,1.6-0.9c1,0,1.5,0.7,1.5,1.9v3.1
	h-0.8v-3c0-0.9-0.3-1.3-0.9-1.3c-0.4,0-0.8,0.2-1.2,0.8v3.5h-0.8v-3c0-0.9-0.3-1.3-0.9-1.3c-0.4,0-0.8,0.2-1.2,0.8v3.5h-0.8v-4.9
	H389.5z"/>
<polygon points="412.4,12.1 412,12.6 414,14.5 406.4,14.5 408.4,12.6 408,12.1 405.3,14.8 405.3,14.8 408,17.5 408.4,17 406.4,15.1 
	414,15.1 412,17 412.4,17.5 415.1,14.8 415.1,14.8 "/>
<path d="M426.1,12.3c0.6,0,0.9,0.2,1.4,0.6v-0.8v-1.9h0.8v7.1h-0.7l-0.1-0.6l0,0c-0.4,0.4-0.9,0.7-1.5,0.7c-1.2,0-2-0.9-2-2.5
	C424,13.3,425,12.3,426.1,12.3z M426.2,16.7c0.5,0,0.8-0.2,1.2-0.7v-2.5c-0.4-0.4-0.8-0.5-1.2-0.5c-0.8,0-1.4,0.8-1.4,1.9
	C424.8,16,425.3,16.7,426.2,16.7z"/>
<path d="M429.7,10.9c0-0.3,0.2-0.5,0.6-0.5s0.6,0.2,0.6,0.5s-0.2,0.5-0.6,0.5S429.7,11.2,429.7,10.9z M429.9,12.5h0.8v4.9h-0.8V12.5
	z"/>
<path d="M432.3,12.5h0.7l0.1,0.7l0,0c0.4-0.5,0.9-0.8,1.5-0.8c0.7,0,1.1,0.3,1.3,0.9c0.5-0.5,1-0.9,1.6-0.9c1,0,1.5,0.7,1.5,1.9v3.1
	h-0.8v-3c0-0.9-0.3-1.3-0.9-1.3c-0.4,0-0.8,0.2-1.2,0.8v3.5h-0.8v-3c0-0.9-0.3-1.3-0.9-1.3c-0.4,0-0.8,0.2-1.2,0.8v3.5h-0.8v-4.9
	H432.3z"/>
<polygon points="453.2,12.1 452.8,12.6 454.8,14.5 447.2,14.5 449.2,12.6 448.8,12.1 446.1,14.8 446.1,14.8 448.8,17.5 449.2,17 
	447.2,15.1 454.8,15.1 452.8,17 453.2,17.5 455.9,14.8 455.9,14.8 "/>
<path d="M464.9,12.3c0.6,0,0.9,0.2,1.4,0.6v-0.8v-1.9h0.8v7.1h-0.7l-0.1-0.6l0,0c-0.4,0.4-0.9,0.7-1.5,0.7c-1.2,0-2-0.9-2-2.5
	C462.8,13.3,463.8,12.3,464.9,12.3z M464.9,16.7c0.5,0,0.8-0.2,1.2-0.7v-2.5c-0.4-0.4-0.8-0.5-1.2-0.5c-0.8,0-1.4,0.8-1.4,1.9
	C463.6,16,464.1,16.7,464.9,16.7z"/>
<path d="M468.5,10.9c0-0.3,0.2-0.5,0.6-0.5c0.3,0,0.6,0.2,0.6,0.5s-0.2,0.5-0.6,0.5C468.8,11.5,468.5,11.2,468.5,10.9z M468.7,12.5
	h0.8v4.9h-0.8V12.5z"/>
<path d="M471.1,12.5h0.7l0.1,0.7l0,0c0.4-0.5,0.9-0.8,1.5-0.8c0.7,0,1.1,0.3,1.3,0.9c0.5-0.5,1-0.9,1.6-0.9c1,0,1.5,0.7,1.5,1.9v3.1
	H477v-3c0-0.9-0.3-1.3-0.9-1.3c-0.4,0-0.8,0.2-1.2,0.8v3.5h-0.8v-3c0-0.9-0.3-1.3-0.9-1.3c-0.4,0-0.8,0.2-1.2,0.8v3.5h-0.8v-4.9
	H471.1z"/>
</svg>
